<svg width="1061" height="523" viewBox="0 0 1061 523" fill="none" xmlns="http://www.w3.org/2000/svg">
<path fill-rule="evenodd" clip-rule="evenodd" d="M88.2019 69.9448C61.005 93.4439 44.2912 129.564 39.4766 173.945C29.9267 261.975 94.0955 326.616 173.293 338.348C208.017 342.585 244.353 330.596 274.809 309.237C305.463 287.74 328.861 258.353 336.963 231.199C339.943 221.214 350.375 215.458 360.411 218.262C370.444 221.065 376.123 232.423 373.503 242.503C373.503 242.503 371.145 253.136 370.234 258.292C368.393 268.71 365.599 282.202 365.484 295.36C365.364 309.006 366.096 319.95 369.503 326.781C371.063 329.91 372.663 331.544 374.043 332.446C375.315 333.278 377.487 334.213 381.566 334.172C394.054 334.045 405.402 328.157 415.04 311.978C425.237 294.863 433.169 269.252 439.166 232.754C440.842 222.553 452.327 215.536 462.571 216.918C472.815 218.3 480.102 227.579 479.016 237.858C472.246 294.97 465.072 324.929 458.668 362.222C473.027 346.233 491.129 326.296 494.608 300.518C496.399 271.726 503.496 254.497 516.314 239.598C529.42 224.366 540.137 220.511 554.855 217.66C580.87 213.273 610.501 237.588 602.646 262.609C602.181 265.539 594.209 274.857 586.003 275.686C586.003 275.686 586.457 255.968 570.034 253.136C553.612 250.305 545.368 256.593 538.909 264.543C531.952 273.736 527.948 279.059 527.948 298.962C528.672 314.16 534.92 321.37 538.479 324.993C542.217 328.796 548.354 331.669 557.483 331.963C576.243 332.566 599.19 330.733 621.272 305.635C626.017 300.243 630.507 294.664 630.73 288.944C619.325 245.798 614.086 196.231 622.138 158.113C626.425 137.821 631.676 119.033 639.648 106.705C643.295 101.068 648.58 95.1388 658.383 92.1438C663.951 90.4427 668.016 89.5655 673.771 91.9089C676.18 94.111 680.137 97.7826 682.944 101.305C704.756 128.678 701.34 167.652 695.67 200.909C688.496 232.885 687.563 266.58 670.51 293.681C676.01 303.108 678.487 306.108 681.01 309.108C698.67 330.108 721.062 338.475 750.818 338.456C785.82 338.882 809.663 309.962 814.626 285.797C818.727 257.357 809.778 243.476 809.778 243.476C809.778 243.476 817.056 235.564 827.092 236.443C837.128 237.322 840.553 242.178 840.553 242.178C850.107 234.57 861.583 231.443 877.903 231.587C889.138 232.594 897.678 238.195 905.697 244.751C913.734 251.32 917.348 259.764 919.779 268.147C924.365 283.964 919.339 301.092 919.825 312.22C919.749 319.141 923.136 327.676 925.382 330.278C927.24 332.432 930.047 334.973 934.978 334.298C934.978 334.298 941.939 333.427 944.497 333.011C929.144 308.108 932.728 275.978 956.322 250.065C966.208 239.208 979.711 231.566 997.832 231.595C1007.34 231.611 1017.2 233.388 1026.05 239.928C1034.7 247.109 1040.3 250.872 1044.75 262.53C1049.43 274.792 1048.43 282.824 1044.49 293.935C1040.73 304.534 1036.47 310.251 1029.26 317.082C1024.09 321.187 1008.48 334.389 1008.48 334.389C1013.36 336.24 1030.28 336.479 1036.37 333.895C1042.45 331.31 1054 324.012 1057.35 315.041C1057.35 315.041 1064.27 322.17 1056.74 336.936C1049.21 351.702 1028.48 364.543 1015.46 365.378C1000.36 366.52 983.283 363.292 971.882 356.624C958.079 362.613 950.02 367.344 936.62 366.513C921.308 365.562 906.81 359.623 900.454 352.258C892.736 343.313 886.807 332.68 884.984 323.796C883.255 315.368 882.686 306.424 883.729 299.064C886.196 288.12 885.317 278.395 884.081 274.788C882.845 271.182 877.957 267.663 873.79 267.796C862.867 267.79 858.51 277.11 858.51 277.11C858.51 277.11 854.025 285.037 851.51 290.61C849.972 294.138 846.656 303.823 845.003 307.243C828.156 356.775 774.926 370.147 749.01 370.513C725.959 370.838 686.51 360.608 675.533 350.867C663.01 343.108 660.01 338.108 649.342 323.29C626.499 354.936 588.859 371.201 556.254 370.152C541.945 369.691 527.799 365.523 516.388 356.426C502.882 383.596 473.824 404.121 446.985 419.853C438.41 459.596 425.18 488.203 408.47 504.992C399.228 514.277 388.194 520.641 375.703 522.118C363.123 523.606 351.035 519.061 341.785 509.623C329.213 500.946 325.163 477.137 330.4 462.473C335.24 448.921 345.134 437.636 355.426 428.706C372.91 413.537 394.009 401.366 412.705 393.401C414.64 384.12 416.753 373.388 418.932 361.626C408.39 368.358 396.116 372.235 381.953 372.379C371.274 372.487 361.489 369.89 353.133 364.426C344.884 359.032 339.186 351.607 335.309 343.832C330.719 334.627 329.307 324.187 328.162 313.89C318.619 323.626 308.04 332.601 296.748 340.52C260.615 365.86 214.441 381.945 167.956 376.184C167.814 376.166 168.098 376.205 167.956 376.184C73.2094 362.267 -10.7784 282.917 1.49039 169.824C7.20675 117.132 29.7764 71.6585 65.2212 41.033C100.843 10.2544 146.365 -4.53072 199.541 2.56371L199.657 2.57951C243.535 8.70671 297.904 37.4458 321.302 103.383C339.213 153.857 329.972 207.47 302.39 246.934C274.621 286.665 227.87 312.421 172.008 305.562C115.678 299.216 85.3951 260.312 75.4777 221.579C59.1575 157.841 89.7135 115.054 116.355 93.4545C148.256 68.5071 194.615 65.3926 224.055 86.7661C238.833 97.4959 253.501 114.417 259.376 146.784C261.857 163.104 258.763 186.88 247.923 206.005C236.419 226.3 217.075 240.46 184.983 237.406C166.799 235.675 151.579 224.094 145.019 207.61C138.289 190.699 139.431 174.002 152.516 156.946C163.982 141.552 189.238 146.104 188.764 164.131C162.605 174.043 168.663 202.129 184.358 205.984C200.053 209.839 210.849 197.455 216.682 187.163C223.114 175.816 222.886 161.447 221.728 153.313C217.616 131.019 208.538 122.718 201.606 117.686C188.68 108.301 161.553 106.699 140.284 123.243C120.517 139.32 99.2121 168.046 110.493 212.102C117.061 237.754 138.185 263.333 176.582 267.627C217.013 272.622 250.527 254.44 271.072 225.045C291.821 195.357 298.938 154.611 285.293 116.161C267.609 66.3265 227.195 45.0229 194.429 40.4294C151.667 34.7395 115.209 46.6096 88.2019 69.9448ZM401.256 442.88C393.682 447.383 386.496 452.335 380.466 457.567C372.488 464.489 368.075 470.589 366.383 475.324C365.438 477.972 366.189 480.93 367.291 482.383C368.625 483.61 369.974 484.32 371.216 484.173C373.178 483.941 376.655 482.793 381.389 478.037C387.664 471.733 394.651 460.548 401.256 442.88ZM976.52 316.623C992.02 310.713 995.77 303.064 1001.17 297.393C1005.9 292.911 1008.46 285.039 1009.48 282.163C1010.32 279.799 1010.57 277.126 1009.05 273.158C1006.58 266.687 1001.41 263.969 996.77 263.804C992.132 263.64 986.868 266.074 982.574 270.789C969.668 284.964 969.179 304.128 976.52 316.623ZM653.474 239.581C658.93 226.22 662.386 206.34 665.334 192.786C668.338 169.789 666.421 154.641 662.309 140.7C659.601 147.707 657.865 157.917 655.522 169.01C650.499 192.786 652.675 215.538 653.474 239.581Z" fill="white" style="fill:white;fill-opacity:1;"/>
<path fill-rule="evenodd" clip-rule="evenodd" d="M746.51 284.614C758.696 284.614 765.01 277.583 765.01 267.114C765.01 254.121 756.205 246.614 746.51 246.614C741.126 246.614 737.239 248.619 734.435 251.66C731.451 254.894 729.01 260.141 729.01 267.114C729.01 273.875 731.276 277.871 733.514 280.109C735.752 282.348 739.748 284.614 746.51 284.614ZM746.51 317.614C776.057 317.614 796.52 294.07 797.01 267.114C797.637 241.827 777.057 215.614 747.51 215.614C717.963 215.614 697.01 237.567 697.01 267.114C697.01 296.661 716.963 317.614 746.51 317.614Z" fill="white" style="fill:white;fill-opacity:1;"/>
</svg>
