<svg width="5166" height="2129" viewBox="0 0 5166 2129" fill="none" xmlns="http://www.w3.org/2000/svg">
<path fill-rule="evenodd" clip-rule="evenodd" d="M4521.35 1.00146C4570.9 1.00146 4621.14 54.8519 4621.14 113.501V558.501C4621.14 697.001 4649.5 718.512 4766.5 718.512H5043C5171.66 718.512 5215.73 870.335 5092.5 936.001L4904.54 1059.1C4798.52 1128.57 4766.68 1132.17 4695.75 1184.82C4624.81 1237.47 4610.16 1271.55 4610.16 1329.16V1411.14C4609.29 1485.26 4580.24 1530.69 4550.21 1562.98L4336.34 1826.38C4302.24 1863.15 4249.89 1888.87 4223.7 1887C4165.48 1887.34 4138 1826.38 4138 1779V459.914C4138 363.192 4197.5 286.89 4220.71 265.153L4399.49 64.0689C4423.95 40.1112 4462.44 1.00146 4521.35 1.00146Z" fill="black" style="fill:black;fill-opacity:1;"/>
<path fill-rule="evenodd" clip-rule="evenodd" d="M3317 0.500777C3390.5 5.07612 3414 112.045 3414 171.001C3414 171.001 3414 434.143 3414 541.002C3414 647.86 3392.81 715.715 3508.49 715.715H3752.48C3920.48 715.715 4031.79 837.501 4031.79 993.501V1326.5C4031.79 1425.99 3998.98 1540.5 3930.48 1616L3683.98 1852C3623.26 1911.27 3507.56 1903 3507.56 1769.5V1540.5C3507.56 1472.5 3480.98 1453.5 3451.48 1453.5C3421.98 1453.5 3375.03 1517.27 3327.98 1570.5L3135.48 1801C3093.48 1852 3031.48 1876 2985.48 1865C2939.48 1854 2927 1811.5 2927 1747.5V411.001C2927 307.725 2975.76 221.741 3024.98 171.001L3127 88.5023C3205 22.5012 3243.5 -4.07458 3317 0.500777Z" fill="black" style="fill:black;fill-opacity:1;"/>
<path fill-rule="evenodd" clip-rule="evenodd" d="M486.022 128.501C486.022 41.1086 417.961 0.501465 341.5 0.501465C280.244 0.501465 145.404 146.863 121.875 172.667C56.5351 240.481 0 273.837 0 427.501V1557.09C0 1865.77 175.535 1884.66 291.576 1886C291.576 1886 447.856 1886 566.024 1886C684.191 1886 777.519 1831.17 856.072 1763.85L999.556 1602.1C1074.5 1527 1104.02 1429.95 1104.02 1236.3V1005.1C1104.02 813.375 962.655 713.381 816.219 713.381H622.518C504.192 713.461 486.022 604.086 486.022 482.772V128.501Z" fill="black" style="fill:black;fill-opacity:1;"/>
<path fill-rule="evenodd" clip-rule="evenodd" d="M486.022 128.501C486.022 41.1086 417.961 0.501465 341.5 0.501465C280.244 0.501465 145.404 146.863 121.875 172.667C56.5351 240.481 0 273.837 0 427.501V1557.09C0 1865.77 175.535 1884.66 291.576 1886C291.576 1886 447.856 1886 566.024 1886C684.191 1886 777.519 1831.17 856.072 1763.85L999.556 1602.1C1074.5 1527 1104.02 1429.95 1104.02 1236.3V1005.1C1104.02 813.375 962.655 713.381 816.219 713.381H622.518C504.192 713.461 486.022 604.086 486.022 482.772V128.501Z" fill="black" style="fill:black;fill-opacity:1;"/>
<path d="M1425.17 741C1275.35 741 1215 826.579 1215 931.774C1215 1036.97 1215 1173.01 1215 1173.01L1215 1641.28C1215 1759.8 1249.85 1886 1425.17 1886C1600.5 1886 1637 1760.64 1637 1641.28L1637 931.774C1637 813.998 1575 741 1425.17 741Z" fill="black" style="fill:black;fill-opacity:1;"/>
<path d="M1413.17 212C1529.7 212 1625 306.468 1625 423V433C1625 549.532 1530.53 644 1414 644C1297.47 644 1203 549.532 1203 433V421.346C1203 305.727 1297.55 212 1413.17 212Z" fill="black" style="fill:black;fill-opacity:1;"/>
<path fill-rule="evenodd" clip-rule="evenodd" d="M2821 1375.5V1164C2821 758.532 2576.22 716 2270.13 716C1999.08 716 1865.5 798 1784 937C1730 1029.1 1752.5 1420.5 1752.5 1420.5C1752.5 1589.5 1841.5 1820 2047.5 1820C2155 1820 2227.5 1861.5 2227.5 1903.5C2227.5 1945.5 2570.5 1879 2570.5 1879L2821 1375.5Z" fill="black" style="fill:black;fill-opacity:1;"/>
<path d="M2447.98 1479.79V1238.68L2821 1164V1375.5C2821 1574 2709 1746.43 2570.5 1879C2348.5 2091.5 2223 2103.5 2171 2120.5C2119 2137.5 2075.41 2127 2062 2086C2048.59 2045 2073.5 2013.58 2132 2001C2181.5 1990.35 2227.5 1945.5 2227.5 1903.5C2227.5 1861.5 2447.98 1479.79 2447.98 1479.79Z" fill="black" style="fill:black;fill-opacity:1;"/>
</svg>
