<svg width="7055" height="3476" viewBox="0 0 7055 3476" fill="none" xmlns="http://www.w3.org/2000/svg">
<path fill-rule="evenodd" clip-rule="evenodd" d="M6319.07 824.703C6312.21 768.034 6273.5 743.2 6248.53 740.575L6249.37 739.794L6201.93 734.808C6198.18 734.983 6193.22 734.763 6186.93 734.102C6129.54 728.07 6085.36 743.263 6056.55 760.698L6023.81 787.72L6023.64 787.928L6023.36 788.286L6023.33 788.118L5746.99 1016.23L5747.59 1016.33L5746.38 1017.3C5719.05 1039.35 5650.01 1095.04 5650.01 1205.36C5650.01 1214.04 5649.85 1221.77 5649.55 1228.6V2731.85C5650.15 2740.44 5650.47 2751.58 5650.47 2765.52C5650.47 2945.25 5780.82 2980.95 5849.41 2976.45C5888.74 2964.02 5932.55 2942.19 5976.73 2904.63C5979.98 2901.86 5983.02 2899.38 5985.84 2897.17L6225.08 2668.82L6225.01 2668.82C6225.94 2667.95 6226.88 2667.08 6227.83 2666.2C6227.96 2666.08 6228.08 2665.97 6228.2 2665.85L6248.45 2646.52C6281.76 2613.07 6318.05 2564.85 6319.07 2480.42V2360.8C6319.14 2358.77 6319.17 2356.65 6319.17 2354.43C6319.18 2264.72 6381.15 2247.63 6421.84 2248.67L6480.61 2254.84C6511.54 2256.32 6550.3 2250.46 6604.5 2208.62L6999.75 1855.46L6999.96 1855.7C7096.79 1761.85 7050.9 1637.19 6975.56 1623.81L6975.61 1623.78L6975.07 1623.73C6974.61 1623.65 6974.15 1623.57 6973.68 1623.5C6973.09 1623.41 6972.49 1623.33 6971.89 1623.25L6971.61 1623.36L6424.52 1565.69L6425.24 1565.09C6389.09 1561.82 6319.09 1537.39 6319.09 1445.63C6319.09 1445.31 6319.08 1444.99 6319.08 1444.68C6319.08 1444.2 6319.08 1443.74 6319.07 1443.27V824.703ZM4708.57 672.277C4708.57 606.622 4669.21 576.406 4641.69 570.82L4564.58 562.716C4519.06 559.93 4482.45 570.515 4455.94 584.106L4105.89 873.914C4078.91 900.311 4046.96 942.747 4039.88 1007.92V2663.05C4052.51 2767.26 4115.38 2812.28 4173.29 2827.94L4208.95 2831.69C4235.29 2833.06 4270.1 2823.92 4318.57 2776.92L4710.88 2364.81C4712.86 2362.82 4715.18 2360.41 4717.85 2357.53C4775.13 2295.85 4800.34 2347.82 4800.34 2377.39L4800.58 2376.86V2647.25C4801.01 2655.2 4801.23 2665.01 4801.23 2676.84C4801.23 2857.52 4936.85 2908.47 5002.08 2893.36C5040.6 2881.34 5083.82 2859.89 5127.98 2823.95L5392.73 2594.94C5432.11 2554.78 5473.12 2466.9 5473.12 2320.77C5473.12 2311.99 5473.24 2304.56 5473.46 2298.38V1645.02L5473.12 1645.5C5473.12 1587.15 5442.69 1463.64 5328.99 1451.69C5316.74 1450.4 5307.5 1448.99 5300.87 1447.49L5250.28 1442.17L4816.34 1396.56L4816.44 1396.48C4780.29 1393.21 4710.28 1368.77 4710.28 1277.01C4710.28 1270.7 4709.98 1265.15 4709.4 1260.3V686.99C4708.86 684.861 4708.57 680.109 4708.57 672.277ZM4977.66 2899.92C4985.22 2898.22 4993.02 2896.16 5001.03 2893.69L4977.66 2899.92ZM609.936 147.066C635.483 155.498 666.99 183.59 669.798 238.661V847.315C669.844 848.936 669.867 850.613 669.867 852.347C669.868 944.109 739.874 968.543 776.023 971.816L775.928 971.895L1210.68 1017.59L1279.15 1024.79C1282.58 1025.24 1286.33 1025.69 1290.42 1026.11C1394.4 1037.04 1428.74 1141.27 1433.86 1203.64V1927.7C1428.38 2052.46 1391.73 2129.79 1355.9 2167.56L1114.71 2378.25C1109.72 2381.68 1103.84 2386.25 1097 2392.06C986.512 2485.99 878.34 2481.6 836.679 2477.53L196.257 2410.22L201.576 2408.71C197.275 2409.09 192.7 2409.31 187.904 2409.35L144.872 2404.82C82.5868 2391.41 10.5673 2345.19 0.28125 2227.55V594.927C5.84252 495.884 68.0768 445.876 94.9605 424.274C95.8309 423.575 96.6642 422.905 97.4573 422.265L96.6763 422.125L373.166 191.798L373.229 192.222C373.623 191.728 374.037 191.224 374.471 190.71L403.926 166.173C428.354 150.813 464.606 136.742 511.231 136.692L609.936 147.066ZM2182.52 230.099C2267.64 239.045 2266.64 305.837 2265.85 358.488C2265.77 363.398 2265.7 368.185 2265.7 372.79L2266.64 370.878V656.119C2260.88 720.633 2234.2 763.153 2215.23 782.086L1907 982.544C1904.43 983.89 1901.75 985.398 1898.96 987.073C1840.23 1022.36 1797.42 1025.94 1769.5 1024.29L1689.12 1017L1692.04 1016.36C1654.17 1013.83 1611.68 989.024 1610.35 896.762V656.29C1610.98 653.454 1611.31 649.47 1611.31 644.23C1611.31 560.901 1681.31 487.904 1719.79 462.188L1717.92 461.416L2003.67 247.48C2028.99 230.356 2057.69 217.531 2099.58 221.381C2103.62 221.753 2106.71 221.917 2108.93 221.894L2168.39 228.143C2172.38 228.872 2177.08 229.526 2182.52 230.099ZM1076.09 2104.99L1168.89 2023.92C1185.64 2005.36 1206.02 1974.24 1209.65 1932.24C1209.91 1929.19 1210.26 1926.66 1210.68 1924.6V1507.44C1210.52 1504.15 1210.44 1500.33 1210.44 1495.93C1210.44 1468.6 1202.98 1457.91 1194.17 1452.54C1176.77 1441.92 1145.02 1468.26 1119.64 1490.11L1031.53 1571.53C1015.15 1588.02 989.304 1623.85 985.426 1668.7C985.115 1672.29 984.686 1675.08 984.151 1677.14V2073.76C984.305 2077.36 984.385 2081.7 984.385 2086.84C984.385 2113.59 994.924 2126.11 1012.78 2133.74C1031.65 2141.81 1046.61 2130.64 1065.25 2114.46C1066.12 2113.7 1067.01 2112.92 1067.91 2112.14L1069 2111.19L1070.15 2110.18L1071 2109.43L1072.32 2108.27C1073.56 2107.19 1074.82 2106.09 1076.09 2104.99ZM534.03 1213.06L431.319 1309.58L431.717 1309.53C402.793 1337.65 385.744 1355.44 396.38 1374.38C404.075 1388.08 407.289 1392 433.24 1394.34C441.121 1395.06 447.087 1395.86 451.369 1396.75L760.982 1429.29L762.475 1429.45L762.751 1429.47C816.034 1435.08 851.84 1409.14 865.791 1395.46L865.801 1395.56L1000.49 1271.09C1012.35 1257.94 1021.48 1243.91 1015.93 1233.31C1012.73 1227.19 1006.15 1221.47 990.451 1218.84L638.803 1181.88C637.517 1181.82 636.074 1181.71 634.467 1181.54C585.383 1176.38 546.913 1200.76 534.062 1213.36L534.03 1213.06ZM413.698 1008.87C427.926 990.76 442.633 964.381 446.627 930.665V519.464C446.241 493.83 431.698 481.564 424.074 476.912C408.995 467.712 376.355 489.469 351.863 510.549L351.915 510.387L274.234 575.098L275.425 575.252C260.197 588.208 228.09 627.226 223.731 677.635C223.646 678.615 223.553 679.536 223.45 680.398V1079.18C223.746 1083.03 223.902 1087.85 223.902 1093.73C223.902 1119.97 226.606 1132.49 241.41 1138.82C258.145 1149.03 284.546 1127.81 308.936 1106.82L308.715 1107.53L413.698 1008.87ZM3782.32 2449.78L3783.26 2449.88L3215.12 3020.34L3214.99 3019.91C3214.42 3020.7 3213.78 3021.53 3213.08 3022.38L3204.39 3031.1C3187.18 3045.86 3154.31 3062.75 3105.94 3060.95L2911.06 3040.47C2896.08 3038.44 2884.2 3035.04 2879.28 3025.57C2871.95 3011.45 2889.85 2993.7 2901.43 2982.21C2902.97 2980.68 2904.41 2979.26 2905.65 2977.97L2905.6 2977.98L3009.79 2877.74L3102.8 2786C3126.86 2757.92 3115.12 2716.73 3015.59 2706.26C3015.28 2706.23 3014.97 2706.2 3014.67 2706.17L3013.91 2706.08L3013.49 2706.04L2642.78 2667.07L2644.18 2666.7C2578.38 2662.37 2451.17 2634.68 2443.14 2466.92V1717.35L2443.21 1717.5C2442.64 1669.76 2460.68 1597.32 2532.66 1523.62L2789.96 1281.84C2794.07 1278.66 2799.42 1274.16 2806.14 1268.18C2876.01 1205.96 2972.28 1201.5 3051.27 1207.07L3654.54 1270.47V1270.45L3753.41 1280.84C3845.21 1298.89 3874.43 1370.63 3877.71 1424.77V2199.56C3871.39 2343.75 3812.56 2425.93 3782.32 2449.78ZM3558.42 2336.6L3619.53 2276.32C3634.84 2257.35 3651.13 2228.73 3654.34 2191.61L3654.39 2191.08L3654.43 2190.64C3654.44 2190.48 3654.46 2190.33 3654.48 2190.17L3654.5 2189.88L3654.54 2189.59V1762.33C3654.38 1735.66 3647.83 1723.65 3635.58 1718.96C3617.84 1712.15 3599.99 1728.8 3580.55 1746.93C3576.61 1750.61 3572.6 1754.34 3568.52 1757.95L3517.8 1807.82C3501.75 1826.23 3481.13 1858.85 3477.7 1898.52C3477.66 1898.98 3477.62 1899.42 3477.58 1899.86C3477.53 1900.3 3477.49 1900.72 3477.44 1901.14V2313.04C3477.55 2315.88 3477.61 2319.16 3477.61 2322.9C3477.61 2347.25 3485.69 2358.47 3498.58 2362.6C3519.33 2369.25 3537.18 2354.85 3558.42 2336.6ZM3453.86 1473.78C3463.07 1475.51 3469.06 1478.98 3474.17 1488.74C3480.38 1500.62 3469.91 1515.32 3456.83 1529.11L3322.39 1661.3C3304.86 1675.13 3272.48 1692.58 3227.82 1687.89C3223.79 1687.47 3220.68 1687.37 3218.4 1687.57L2814.56 1645.13C2801.51 1642.74 2795.64 1638.57 2791.67 1627.74C2784.01 1606.86 2803.5 1586.78 2822.81 1568.23L2945.37 1453.06C2960.8 1442 2987.9 1428.74 3021.21 1428.31L3453.86 1473.78ZM5195.6 2459.76L5195.46 2459.74C5212 2445.67 5245.16 2409.41 5249.89 2354.69C5250 2353.35 5250.14 2352.11 5250.28 2350.97V1871.69C5249.6 1848.15 5243.4 1841.8 5230.59 1836.89C5210.1 1829.03 5195.26 1843.73 5177.94 1860.89L5177.94 1860.9L5177.93 1860.9L5177.9 1860.93C5172.71 1866.07 5167.3 1871.43 5161.45 1876.46L5070.62 1970.98C5054.92 1988.38 5027.96 2022.84 5024.08 2067.8C5023.98 2068.93 5023.87 2069.97 5023.75 2070.94V2546.05C5024.62 2560.1 5027.83 2568.39 5038.43 2573.34C5053.68 2580.46 5073.56 2565.04 5093.71 2547.7L5093.62 2547.97L5195.6 2459.76ZM4464.87 899.721C4471.27 903.625 4482.54 912.892 4486.23 930.924V1361.64C4480.73 1393.07 4466.08 1417.58 4452.39 1434.3L4349.22 1531.25L4349.73 1529.63C4325.34 1550.62 4298.94 1571.84 4282.21 1561.63C4267.4 1555.3 4264.7 1542.78 4264.7 1516.54C4264.7 1505.13 4264.11 1497.73 4263.05 1493.64V1109.61C4263.68 1107.5 4264.18 1104.48 4264.53 1100.44C4268.01 1060.11 4289.26 1027.07 4305.42 1008.84L4427.16 908.051C4442.24 899.201 4456.36 894.527 4464.87 899.721ZM4278.48 2432.01C4269.3 2427.11 4264.09 2419.92 4263.05 2405.01V2101.8L4263.52 2102.01C4261.24 2075.33 4271.29 2023.29 4329.81 2028.52C4334.69 2028.96 4338.34 2029.09 4340.89 2028.95L4608.93 2057.12C4623.64 2059.85 4629.93 2065.42 4633.04 2071.35C4638.69 2082.17 4629.07 2096.55 4616.86 2109.94L4606.83 2120.3C4605.84 2121.28 4604.85 2122.25 4603.88 2123.2C4603.06 2123.99 4602.26 2124.76 4601.47 2125.53L4601.81 2125.49L4328.89 2407.39C4307.12 2428.76 4290.65 2439.51 4278.48 2432.01ZM1738.47 1355.38L1976.05 1153.09C2002.74 1132.21 2051.18 1102.53 2124.82 1109.08C2217.38 1122.17 2252.56 1210.87 2261.07 1272.47V1982.64C2258.75 2112.81 2223.32 2194.63 2187.29 2236.14L1909.01 2507.36C1907.3 2508.75 1905.46 2510.39 1903.48 2512.29C1843.57 2569.79 1805.33 2578.83 1776.66 2575.82L1776.72 2576.05L1771.93 2575.54C1711.77 2568.04 1611.29 2538.08 1611.29 2391.54C1611.29 2378.46 1610.96 2368.29 1610.35 2360.71V1604.02C1615.06 1544.78 1641.16 1441.31 1720.64 1373.01C1728.73 1366.06 1734.58 1360.23 1738.47 1355.38ZM1833.52 2174.59V1642.9C1833.85 1641.14 1834.13 1639.01 1834.35 1636.47C1838.71 1586.06 1870.81 1547.05 1886.04 1534.09L1885.31 1534L1941.12 1486.48L1940.99 1486.85C1967.9 1465.2 2001.53 1439.61 2020.15 1450.18C2028.28 1454.79 2036.89 1464.98 2037.9 1489.16V1994.54C2037.52 1996.52 2037.2 1998.9 2036.96 2001.74C2032.22 2056.46 1999.06 2092.72 1982.53 2106.78L1983.59 2106.92L1884.56 2199.16C1871.39 2207.67 1859.14 2212.01 1849.96 2206.4C1838.14 2201.35 1834.41 2192.15 1833.52 2174.59ZM6683.81 1749.81L6367.35 1722.04C6365.37 1722.15 6362.76 1722.04 6359.45 1721.69C6317.54 1717.28 6283.36 1734.41 6266.27 1747.36L6084.07 1903L6085.14 1902.87C6056.21 1930.99 6039.16 1948.78 6049.8 1967.72C6057.49 1981.42 6060.71 1985.34 6086.66 1987.69C6098.56 1988.76 6106.09 1990.05 6110.05 1991.5L6400.26 2022C6432.51 2022.65 6457.53 2011.84 6474.16 2000.93L6678.26 1818.55C6695.46 1801.91 6717.8 1779.6 6709.82 1764.37C6706.59 1758.19 6699.9 1752.4 6683.81 1749.81ZM6065.05 1600.68L5956.14 1703.02C5932.39 1723.35 5907.09 1742.98 5890.87 1733.08C5876.06 1726.75 5873.36 1714.24 5873.36 1688C5873.36 1680.98 5873.14 1675.49 5872.72 1671.34V1276.1C5872.9 1274.85 5873.06 1273.45 5873.19 1271.9C5877.55 1221.49 5909.65 1182.48 5924.88 1169.52L5924.49 1169.47L6025.52 1086.07C6044.25 1073.27 6063.1 1064.81 6073.53 1071.18C6080.74 1075.58 6094.13 1086.78 6095.9 1109.66V1526.43C6091.84 1557.94 6078.46 1582.95 6065.05 1600.68Z" fill="black" style="fill:black;fill-opacity:1;"/>
</svg>
