<svg width="7017" height="3351" viewBox="0 0 7017 3351" fill="none" xmlns="http://www.w3.org/2000/svg">
<path fill-rule="evenodd" clip-rule="evenodd" d="M1613.74 983.528L1836.9 999.827L1837.06 1000.25L1837.61 999.879L1839.32 1000L1839.29 998.759L2268.74 712.45L2271.13 712.659V200.671L2054.96 181.758V183.971L2052.05 180.375L1615.87 513.995L1613.74 513.809V983.528ZM671.605 143.453L448.059 123.895V126.911L446.908 125.572L0.222656 504.845L0.96202 505.705V2391.13L69.178 2397.1V2397.38L897.257 2469.83V2469.54L986.487 2477.35V2476.91L1436.01 2077.04L1436.95 2077.13V1017.79L1436.95 1017.79L1213.4 998.237L671.605 950.836V143.453ZM1213.4 1968.06L986.487 2169.91V1599.92L1213.4 1386.62V1968.06ZM576.06 1166.88L351.174 1381.77L762.942 1417.79L824.383 1423.17L1052.68 1208.57L576.06 1166.88ZM224.507 1185.54L448.059 971.924V425.481L224.507 615.295V1185.54ZM3884.91 2287.3L3883.73 2287.19L3885.35 2288.66L3174.81 3013.29V3014L2853.04 2985.85L3015.54 2826.96L3173.47 2668.69L2447.93 2605.21V1569L2446.86 1567.88L2447.93 1566.86V1565.21L2449.51 1565.35L2889.61 1144.81L2889.74 1144.94V1140.92L3661.36 1208.43V1208.41L3884.91 1227.96V2287.3ZM3661.36 2179.75L3483.97 2357.52V1788.56L3661.36 1611.34V2179.75ZM3513.97 1419.93L3294.41 1639.27L2753.68 1591.96L2982.38 1373.42L3513.97 1419.93ZM4718 497.467L4494.45 477.909V482.458L4049.02 858.38L4047.36 858.235V2745.14L4270.9 2764.7V2745.47L4809.34 2184.21V2811.81L5029.3 2831.05L5029.43 2831.19L5029.56 2831.07L5032.88 2831.36V2828.15L5483.86 2430.84L5483.34 2430.26V1371.81L5259.8 1352.25L4718 1304.85V497.467ZM5259.8 2322.54V1669.23L5226.01 1707.23L5032.88 1933.47V2522.45L5259.8 2322.54ZM4494.45 1285.29V782.578L4270.9 971.244V1539.55L4494.45 1325.94V1285.29ZM4270.9 1861.39L4742.08 1908.13L4270.9 2399.28V1861.39ZM2265.55 1085.56L2045.28 1066.29L2044.04 1064.86L2042.66 1066.06L2042.01 1066V1066.62L1615.74 1436.39L1613.74 1436.22V2532.23L1837.28 2551.78V1547.86L2042.01 1370.27V2108.73L2265.55 2128.29V1085.56ZM6106.83 618.974L6330.38 638.532V1445.91L7016.4 1505.93V1730.33L7015.91 1730.58L7016.42 1731.14L6563.25 2143.28V2149.65L6330.38 2129.28V2470.11L6330.58 2470.32L6330.38 2470.52V2470.72L6330.19 2470.71L5883.28 2904.35V2905.76L5659.74 2886.21V999.3L5661.52 999.455L5660.93 998.765L6106.83 623.525V618.974ZM5883.28 1680.62L6106.83 1467V1426.36V923.283L5883.28 1111.41V1680.62ZM5883.28 2584.74V2090.16L6106.83 2109.72V2367.83L5883.28 2584.74Z" fill="black" style="fill:black;fill-opacity:1;"/>
<path d="M1829.33 2555.85L1691.32 2348.83L2115.38 1954.74L2265.76 2126.58L1829.33 2555.85Z" fill="black" stroke="#FF0000" style="fill:black;fill-opacity:1;stroke:#FF0000;stroke:color(display-p3 1.0000 0.0000 0.0000);stroke-opacity:1;"/>
</svg>
