<svg width="6527" height="2724" viewBox="0 0 6527 2724" fill="none" xmlns="http://www.w3.org/2000/svg">
<path fill-rule="evenodd" clip-rule="evenodd" d="M636.724 142.5C636.724 45.2476 610.5 4.99163 528 4.99163H485.874C441.537 9.72327 396.229 36.6866 373 56.5L131.5 282.5C61 357.964 0 448.5 0 619.5V1956.65C0 2300.15 229.295 2315.94 354.5 2317.43C354.5 2317.43 639.5 2317.43 767 2317.43C894.5 2317.43 994.744 2256.41 1079.5 2181.5L1250.5 2001.5C1363.22 1884.35 1363.22 1809.92 1363.22 1594.42V1148.24C1363.22 934.892 1194.5 823.617 1036.5 823.617H737.58L737.671 823.528C703.296 823.885 636.66 791.455 636.659 699.693L636.724 142.5ZM1110.26 1835.19L1020.5 1935.5C990 1968 954 1946.5 954 1946.5C954 1946.5 931.584 1929.49 931.584 1890V1516.96C931.584 1472.12 961.06 1424.72 976.635 1406.59L1057 1324.51C1081.14 1300.12 1099 1284.62 1119.5 1288.62C1140 1292.62 1150 1304.18 1150 1331.51V1731.67C1150.55 1774.03 1126.19 1818.94 1110.26 1835.19ZM426.441 794.451C426.642 828.569 408.658 862.424 395.127 881.967L294.506 991.434C274.314 1012.88 248.208 1022.74 231.295 1022.21C214.381 1021.68 212.217 989.616 212.217 965.378L212.483 574.803C212.628 523.957 246.026 482.681 260.508 467.195L336.376 393.684L336.327 393.852C359.617 370.312 387.655 349.278 401.994 356.964C409.245 360.85 426.073 367.655 426.441 404.25V794.451ZM982.5 1064C977.575 1055 970 1042.44 927 1042.44H539.464C507.792 1046.22 482.024 1062.19 467.344 1074.81L354.5 1201.12C336.144 1221.61 328 1243.12 336.5 1259.12C345 1275.12 362.798 1284.91 385.5 1284.91H736.977C779.444 1285.12 821.099 1263.58 835.863 1248.19L979.709 1107.5C992.139 1092.4 987.425 1073 982.5 1064Z" fill="black" style="fill:black;fill-opacity:1;"/>
<path fill-rule="evenodd" clip-rule="evenodd" d="M4239.5 3.5C4289.98 6.68605 4358.68 51.1465 4358.68 116.801V659.5C4358.68 778.5 4401 824.97 4528 824.97H4805.5C4945.53 828.165 5086.9 933.5 5086.9 1110.83V1679.86C5086.9 1802.86 5061.51 1889.91 5004.47 1946.14L4657.6 2275.59C4568.79 2340.25 4449.39 2335.09 4445.39 2175.59V1844.52C4446.34 1814.94 4398.64 1757.03 4347.03 1820.42L3987.03 2228.98C3940.94 2279.85 3868.63 2311.23 3820 2297C3771.37 2282.77 3722.02 2256 3722.02 2139V504.954C3721.83 435.385 3754.01 394.55 3783.42 365.867L4101 59.5C4126.21 36.2466 4183.1 -0.0595484 4239.5 3.5ZM4820.89 1840.75L4821.02 1840.75L4724.04 1939.2C4704.88 1958.57 4690.56 1966.42 4672.06 1960.83C4654.38 1955.95 4658.19 1925.49 4657.6 1910.09V1469.18C4657.48 1424.3 4686.7 1385.21 4701.76 1365.06L4702.17 1364.52L4788.55 1262.88C4788.55 1262.88 4813.53 1230.5 4838.5 1230.5C4862.53 1230.5 4873.02 1244.5 4873.02 1274V1726.47C4872.34 1781.62 4836.61 1825.02 4820.89 1840.75ZM4146.46 395C4146.46 365.867 4133.8 358.318 4123.5 356.5C4109.57 354.041 4092.34 366.136 4078 380.5L3972.84 481.056C3957.37 497.945 3933.62 523.867 3934.24 584.242V968.267C3935.25 972.244 3934.24 956.856 3934.24 968.267C3935.5 1017.5 3947.5 1017.5 3958.5 1022.5C3969.5 1027.5 3992.99 1020.66 4016.18 997.223L4114.28 889.918C4137.5 865 4146.46 846 4146.46 813.853V395ZM3934.24 1840C3934.24 1875 3947.5 1890.03 3964 1890C3984.5 1889.96 4001 1867.5 4017.5 1849L4257.6 1565.16C4274 1544 4275.88 1532.75 4273.5 1521.5C4271.55 1513.88 4256 1497.44 4237.5 1497.44L3999.72 1496.44C3944.07 1497.09 3934.06 1537.55 3934.24 1582V1840Z" fill="black" style="fill:black;fill-opacity:1;"/>
<path fill-rule="evenodd" clip-rule="evenodd" d="M5748 0C5803.5 0 5855.31 31.2429 5855.31 98.1412L5855.32 716.056C5855.32 807.818 5921.21 825.89 5955.58 825.533L6391.69 823.056C6492.4 826.229 6584.11 937.385 6481.21 1057.84L6141.53 1462.1C6088.99 1509.38 6035.57 1519.33 5950.04 1520.79C5909.48 1523.44 5855.31 1564.24 5855.31 1642.24V1802.86C5854.34 1887.4 5821.8 1939.23 5788.15 1976.06L5524.65 2258.13C5486.46 2300.07 5409.97 2310.14 5386.23 2310.28C5321.01 2310.67 5237.32 2278.34 5237.32 2131.8L5236.45 559.956C5236.45 449.631 5303.11 362.598 5329.11 337.804L5607 76.5C5634.4 49.1729 5682 0 5748 0ZM6203 981.5L5915.48 986.114C5867.87 985.879 5821.35 1008.43 5805.1 1023.09L5649.67 1198.5C5622.71 1225.17 5620.74 1241.1 5626.85 1258.97C5631.17 1271.91 5654.83 1284.13 5674.5 1283.68H5953.45C5984.13 1283.09 6006.73 1272.25 6023.73 1256.19L6224.49 1051.22C6240.85 1032.86 6243.5 1014 6238.5 1002.5C6234.03 992.214 6224.49 981.5 6203 981.5ZM5631.56 896.312L5528 1009.59C5505.41 1032.31 5481.35 1047.48 5465.92 1041.21C5451.27 1033.35 5448.89 1020.87 5448.67 986.286L5449.11 572.8C5449.11 510.706 5497.89 465.215 5497.89 465.215L5593.97 371.678C5609.8 357.031 5627.37 351.821 5638.24 355.039C5645.63 356.881 5662.29 364.952 5660.89 388.199V818.97C5660.84 850.486 5644.31 877.237 5631.56 896.312Z" fill="black" style="fill:black;fill-opacity:1;"/>
<path fill-rule="evenodd" clip-rule="evenodd" d="M3504.86 1975.48C3533.62 1946.6 3588.67 1860.51 3594.67 1715.68V1161C3594.67 975.443 3479 826.165 3291.05 826.165H2808.79C2733.68 828.529 2635.45 864.263 2569 933.5L2337.5 1183.5C2269.05 1264.43 2236.51 1340 2236.51 1454.5V2014.5C2236.51 2164.41 2368.5 2314.94 2509 2314.94H2772.87C2888.5 2313.94 2826 2414.5 2784.43 2458.79L2784.49 2458.72L2784.48 2458.73L2784.43 2458.79C2744.02 2507.32 2690.42 2573.22 2654 2615.5C2605.33 2672 2637.23 2723.5 2698.5 2723.5H2788C2815.23 2723.74 2871 2697.5 2926.5 2638C2982 2578.5 3504.86 1975.48 3504.86 1975.48ZM3349.17 1818.36L3291.05 1884.78C3270.86 1905.16 3257.85 1916.5 3237.5 1916.5C3221.5 1916.5 3214.05 1903.84 3214.05 1879.5L3214.18 1471.15C3214.45 1431.13 3237.17 1395.1 3252.43 1375.07L3300.66 1320.11C3319.14 1300.04 3327.5 1284.5 3348 1284.5C3368.5 1284.5 3382.06 1297.35 3382.2 1324V1731C3382.15 1768.44 3363.73 1797.86 3349.17 1818.36ZM3214.5 1039.5C3204.06 1024.55 3180 1021.42 3157 1021.42H2785.21C2753.54 1025.2 2723.77 1041.18 2709.09 1057.8L2588.54 1194.27C2570.19 1214.76 2566.47 1236.59 2577 1251C2586.56 1264.09 2608.5 1274.89 2630 1274.89C2651.5 1274.89 2971.72 1274.89 2971.72 1274.89C3014.19 1275.1 3055.84 1253.56 3070.61 1238.17L3199.5 1093C3211.93 1077.9 3228.12 1059 3214.5 1039.5Z" fill="black" style="fill:black;fill-opacity:1;"/>
<path fill-rule="evenodd" clip-rule="evenodd" d="M1839.04 884.676L1613.12 1110.83C1537.53 1187.11 1495.77 1312.61 1491.29 1372.33L1492.18 2129.76C1492.18 2276.3 1567.99 2307.31 1632.5 2310.65C1697 2314 1721.32 2291.2 1778.29 2233.68L2040.5 1950.65C2081.76 1907.53 2107.87 1850.32 2110.07 1719.92V975.443C2101.98 914.698 2068.53 829.522 1980.51 825.733C1910.49 826.571 1864.43 861.114 1839.04 884.676ZM1703.51 1388.8V1893C1704.36 1910.47 1705 1929.85 1719 1938.5C1733 1947.15 1752.97 1934.33 1765.5 1924.5L1845.21 1837.72C1845.21 1837.72 1898.36 1775.12 1897.86 1719.92V1235C1896.9 1210.93 1887.23 1190.79 1874.5 1187C1856.79 1182.3 1832.41 1197.22 1805.83 1221.57L1752.76 1274.7C1738.28 1289.18 1702.65 1335.95 1703.51 1388.8Z" fill="black" style="fill:black;fill-opacity:1;"/>
<path d="M1992.06 5.125C2073 14.5248 2087.04 75.2705 2086.29 128V374.574C2086.52 452.064 2038.41 517.703 2008.93 547.315L1778.01 765.024C1706.05 819.242 1629.5 830.326 1586.23 816.394C1542.96 801.463 1509.59 761.855 1508.33 669.726L1507.33 468.764C1507.33 385.435 1572.12 306.825 1608.71 275.245L1846.57 55.9878C1870.64 36.3224 1917.66 -1.75748 1992.06 5.125Z" fill="black" style="fill:black;fill-opacity:1;"/>
</svg>
