<svg width="7005" height="3472" viewBox="0 0 7005 3472" fill="none" xmlns="http://www.w3.org/2000/svg">
<path fill-rule="evenodd" clip-rule="evenodd" d="M1833.58 664.718V756.353L2044.33 619.297V506.936L1833.58 664.718ZM1211.14 1988.35L984.609 2186.24V1604.88L1211.14 1401.38V1988.35ZM574.872 1176.05L350.363 1387.02L761.439 1430.23L811.492 1435.49L1045.25 1225.49L574.872 1176.05ZM223.908 1598.13L761.439 1654.63V2240.52L223.908 2184.02V1598.13ZM223.908 1188.59L447.085 978.868V432.425L223.908 618.341V1188.59ZM5250.74 2413.39L5024.21 2609.35V1878.26L5016.27 1877.43L4801.04 1854.81L4389.96 1811.6L4614.47 1600.63L5250.74 1667.51V2413.39ZM4486.69 860.547L4484.29 862.07L4263.51 1044.85V1613.17L4486.69 1403.45V1362.8V860.547ZM4263.51 2022.71L4665.96 2065.01L4263.51 2474.51V2022.71ZM3477.9 2417.41L3654.99 2242.73V1681.3L3477.9 1863.2V2417.41ZM3513.44 1480.93L3302.76 1697.33L2748.84 1639.11L2977.15 1424.56L3513.44 1480.93ZM2038.36 2061.77V1405.01L1833.98 1579.03V2260.04L2038.36 2061.77ZM6096.36 1572.63V1531.98V1028.91L5873.18 1213.14V1782.35L6096.36 1572.63ZM6224.14 1769.81L6680.62 1817.79L6445.73 2027.67L5999.64 1980.78L6224.14 1769.81ZM5873.18 2191.89L6096.36 2215.35V2473.46L5873.18 2686.47V2191.89ZM3246.67 1923.94L2674.82 1863.83V2438.83L3246.67 2498.94V1923.94Z" fill="url(#paint0_linear_1024_1180)" style=""/>
<path fill-rule="evenodd" clip-rule="evenodd" d="M1833.58 756.356V664.72L2044.33 506.938V619.299L1833.58 756.356ZM1833.58 1031.17V1034.22L1610.81 1010.8V541.084L1612.93 541.307L2044.33 218.328V215.996L2047.06 216.283L2048.38 215.293L2049.33 216.522L2267.1 239.411V751.399L2264.71 751.148L1833.75 1031.42L1833.58 1031.17ZM447.084 130.842L670.255 154.298V961.681L1211.14 1018.53L1434.31 1041.99L1434.31 1041.99V2101.32L1433.37 2101.22L984.608 2493.25V2493.69L895.528 2484.32V2484.61L68.8396 2397.72V2397.43L0.738122 2390.28V504.855L0 503.982L445.935 132.499L447.084 133.857V130.842ZM984.608 2186.25L1211.14 1988.35V1401.38L984.608 1604.89V2186.25ZM350.362 1387.02L574.871 1176.05L1045.25 1225.49L811.491 1435.49L761.439 1430.23L350.362 1387.02ZM761.439 1654.63L223.907 1598.13V2184.02L761.439 2240.52V1654.63ZM447.084 978.871L223.907 1188.59V618.343L447.084 432.427V978.871ZM4486.68 555.421L4709.85 578.877V1386.26L5250.74 1443.11L5473.91 1466.57V2525.01L5474.43 2525.6L5024.21 2915.05V2918.26L5020.89 2917.92L5020.76 2918.03L5020.64 2917.89L4801.04 2894.81V2272.22L4263.51 2819.17V2838.31L4040.34 2814.86V927.95L4042 928.124L4486.68 559.97V555.421ZM5024.21 2609.35L5250.74 2413.39V1667.51L4614.47 1600.63L4389.96 1811.6L4801.04 1854.81L5016.27 1877.43L5024.21 1878.26V2609.35ZM4486.68 860.09V1362.8V1403.45L4263.51 1613.17V1044.86L4486.68 860.09ZM4665.96 2065.01L4263.51 2022.71V2474.51L4665.96 2065.01ZM3878.16 1294.85L3654.99 1271.39V1271.41L2884.66 1190.45V1194.47L2884.53 1194.33L2445.18 1607.2L2443.59 1607.03V1608.68L2442.53 1609.68L2443.59 1610.83V2647.03L3167.92 2723.16L3010.25 2878.68L3010.25 2878.68L2848.03 3034.74L3169.26 3068.5V3067.78L3878.6 2355.55L3876.99 2354.05L3878.16 2354.18V1294.85ZM3654.99 2242.73L3477.9 2417.41V1863.2L3654.99 1681.3V2242.73ZM3302.76 1697.33L3513.44 1480.93L2977.15 1424.57L2748.84 1639.11L3302.76 1697.33ZM2041.63 1101.09L2261.53 1124.2V2161.19L2264.59 2164.39L1833.98 2582.14V2582.96L1610.81 2559.5V1463.49L1612.81 1463.7L2038.36 1101.36V1100.74L2039.01 1100.81L2040.38 1099.64L2041.63 1101.09ZM2038.36 1405.01V2061.77L1833.98 2260.04V1579.04L2038.36 1405.01ZM6096.36 724.605L6319.53 748.061V1555.44L7004.39 1627.43V1851.82L7003.62 1851.74L7004.42 1852.64L6552.01 2256.87V2263.24L6319.53 2238.81V2579.64L6319.73 2579.86L6319.53 2580.05V2580.25L6319.34 2580.23L5873.18 3006.08V3007.5L5650.01 2984.04V1097.13L5651.79 1097.32L5651.2 1096.62L6096.36 729.156V724.605ZM6096.36 1531.99V1572.63L5873.18 1782.35V1213.14L6096.36 1028.91V1531.99ZM6680.62 1817.79L6224.14 1769.82L5999.64 1980.79L6445.73 2027.67L6680.62 1817.79ZM6096.36 2215.35L5873.18 2191.89V2686.48L6096.36 2473.46V2215.35ZM2674.82 1863.83L3246.67 1923.94V2498.94L2674.82 2438.83V1863.83Z" fill="url(#paint1_linear_1024_1180)" style=""/>
<path fill-rule="evenodd" clip-rule="evenodd" d="M1826.62 768.883V664.932L2051.29 496.726V622.772L1826.62 768.883ZM1826.62 1021.56V1033.49L1610.81 1010.8V541.084L1612.93 541.307L2048.38 215.293L2051.29 218.94V216.728L2267.1 239.411V751.399L2264.71 751.148L1833.75 1031.42L1826.62 1021.56ZM447.084 130.842L670.255 154.298V961.681L1211.14 1018.53L1434.31 1041.99L1434.31 1041.99V2101.32L1433.37 2101.22L984.608 2493.25V2493.69L895.528 2484.32V2484.61L68.8396 2397.72V2397.43L0.738122 2390.28V504.855L0 503.982L445.935 132.499L447.084 133.857V130.842ZM984.608 2186.25L1211.14 1988.35V1406.92L984.608 1616.25V2186.25ZM350.362 1387.02L574.871 1176.05L1050.69 1226.06L822.777 1436.68L761.439 1430.23L350.362 1387.02ZM761.439 1654.63L223.907 1598.13V2184.02L761.439 2240.52V1654.63ZM447.084 978.871L223.907 1188.59V618.343L447.084 432.427V978.871ZM3876.99 2354.05L3878.16 2354.18V1294.85L3654.99 1271.39V1271.41L2884.66 1190.45V1194.47L2884.53 1194.33L2445.18 1607.2L2443.59 1607.03V1608.68L2442.53 1609.68L2443.59 1610.83V2647.03L3167.92 2723.16L3010.25 2878.68L2848.03 3034.74L3169.25 3068.5V3067.78L3878.6 2355.55L3876.99 2354.05ZM3288.66 1695.85L2748.84 1639.11L2977.15 1424.57L3507.84 1480.35L3288.66 1695.85ZM3477.9 2417.41V1848.45L3654.99 1674.33V2242.73L3477.9 2417.41ZM4486.68 555.421L4709.85 578.877V1386.26L5250.74 1443.11L5473.91 1466.57V2525.01L5474.43 2525.6L5024.21 2915.05V2918.26L5020.89 2917.92L5020.76 2918.03L5020.64 2917.89L4801.04 2894.81V2267.21L4263.51 2819.09V2838.31L4040.34 2814.86V927.95L4042 928.124L4486.68 559.97V555.421ZM5024.21 2609.35L5250.74 2413.39V1667.51L4614.47 1600.63L4389.96 1811.6L4801.04 1854.81L5016.27 1877.43L5024.21 1878.26V2609.35ZM4486.68 860.09V1362.8V1403.45L4263.51 1613.17V1044.86L4486.68 860.09ZM4661.27 2064.52L4263.51 2022.71V2472.89L4661.27 2064.52ZM2041.63 1101.09L2261.53 1124.2V2161.19L2264.59 2164.39L1833.98 2582.14V2582.96L1610.81 2559.5V1463.49L1612.81 1463.7L2038.36 1101.36V1100.74L2039.01 1100.81L2040.38 1099.64L2041.63 1101.09ZM2038.36 1405.01V2061.77L1833.98 2260.04V1579.04L2038.36 1405.01ZM6096.36 724.605L6319.53 748.061V1555.44L7004.39 1627.43V1851.82L7003.62 1851.74L7004.42 1852.64L6552.01 2256.87V2263.24L6319.53 2238.81V2579.64L6319.73 2579.86L6319.53 2580.05V2580.25L6319.34 2580.23L5873.18 3006.08V3007.5L5650.01 2984.04V1097.13L5651.79 1097.32L5651.2 1096.62L6096.36 729.156V724.605ZM6224.14 1769.82L5999.64 1980.79L6445.73 2027.67L6680.62 1817.79L6224.14 1769.82ZM5873.18 1782.35L6096.36 1572.63V1531.99V1028.91L5873.18 1213.14V1782.35ZM5873.18 2686.48V2191.89L6096.36 2215.35V2473.46L5873.18 2686.48ZM3246.67 1923.94L2674.82 1863.83V2438.83L3246.67 2498.94V1923.94Z" fill="url(#paint2_linear_1024_1180)" style=""/>
<defs>
<linearGradient id="paint0_linear_1024_1180" x1="6858.94" y1="1062.03" x2="990.05" y2="3898.22" gradientUnits="userSpaceOnUse">
<stop stop-color="#FA00FF" style="stop-color:#FA00FF;stop-color:color(display-p3 0.9800 0.0000 1.0000);stop-opacity:1;"/>
<stop offset="0.130208" stop-color="#001AFF" style="stop-color:#001AFF;stop-color:color(display-p3 0.0000 0.1000 1.0000);stop-opacity:1;"/>
<stop offset="0.255208" stop-color="#00F0FF" style="stop-color:#00F0FF;stop-color:color(display-p3 0.0000 0.9400 1.0000);stop-opacity:1;"/>
<stop offset="0.463542" stop-color="#00FF29" style="stop-color:#00FF29;stop-color:color(display-p3 0.0000 1.0000 0.1600);stop-opacity:1;"/>
<stop offset="0.692708" stop-color="#FFE600" style="stop-color:#FFE600;stop-color:color(display-p3 1.0000 0.9000 0.0000);stop-opacity:1;"/>
<stop offset="1" stop-color="#FF0000" style="stop-color:#FF0000;stop-color:color(display-p3 1.0000 0.0000 0.0000);stop-opacity:1;"/>
</linearGradient>
<linearGradient id="paint1_linear_1024_1180" x1="7004.42" y1="736.197" x2="185.788" y2="2969.03" gradientUnits="userSpaceOnUse">
<stop stop-color="#FA00FF" style="stop-color:#FA00FF;stop-color:color(display-p3 0.9800 0.0000 1.0000);stop-opacity:1;"/>
<stop offset="0.130208" stop-color="#001AFF" style="stop-color:#001AFF;stop-color:color(display-p3 0.0000 0.1000 1.0000);stop-opacity:1;"/>
<stop offset="0.255208" stop-color="#00F0FF" style="stop-color:#00F0FF;stop-color:color(display-p3 0.0000 0.9400 1.0000);stop-opacity:1;"/>
<stop offset="0.463542" stop-color="#00FF29" style="stop-color:#00FF29;stop-color:color(display-p3 0.0000 1.0000 0.1600);stop-opacity:1;"/>
<stop offset="0.692708" stop-color="#FFE600" style="stop-color:#FFE600;stop-color:color(display-p3 1.0000 0.9000 0.0000);stop-opacity:1;"/>
<stop offset="1" stop-color="#FF0000" style="stop-color:#FF0000;stop-color:color(display-p3 1.0000 0.0000 0.0000);stop-opacity:1;"/>
</linearGradient>
<linearGradient id="paint2_linear_1024_1180" x1="3502.21" y1="317.997" x2="3210.99" y2="3088.74" gradientUnits="userSpaceOnUse">
<stop stop-opacity="0.8" style="stop-color:black;stop-opacity:0.8;"/>
<stop offset="1" stop-opacity="0" style="stop-color:none;stop-opacity:0;"/>
</linearGradient>
</defs>
</svg>
