<svg width="6759" height="3196" viewBox="0 0 6759 3196" fill="none" xmlns="http://www.w3.org/2000/svg">
<path fill-rule="evenodd" clip-rule="evenodd" d="M5981.94 418.297C6037.31 422.169 6088.99 457.025 6088.99 523.923L6089 1141.84C6089 1233.6 6154.73 1256.27 6189.02 1258.31L6624.07 1286.25C6724.53 1296.45 6816.01 1414.01 6713.36 1527.28L6374.52 1907.84C6322.1 1951.46 6268.81 1957.68 6183.48 1953.18C6143.03 1953 6088.99 1990.02 6088.99 2068.02V2228.64C6088.02 2313.12 6055.56 2362.67 6021.99 2397.15L5759.14 2660.85C5721.04 2700.12 5644.74 2704.86 5621.05 2703.35C5555.99 2699.18 5472.51 2661.01 5472.51 2514.47L5471.64 942.569C5471.64 832.244 5538.14 749.861 5564.07 726.88L5841.29 484.961C5868.62 459.545 5916.1 413.693 5981.94 418.297ZM6435.83 1431.54L6149.01 1416.09C6101.52 1412.54 6055.11 1431.84 6038.9 1445.37L5883.85 1609.94C5856.95 1634.73 5854.99 1650.52 5861.09 1668.82C5865.4 1682.05 5889 1695.93 5908.62 1696.85L6186.89 1716.31C6217.5 1717.86 6240.04 1708.59 6257 1693.72L6457.28 1502.76C6473.59 1485.54 6476.23 1466.86 6471.25 1455.01C6466.79 1444.41 6457.28 1433.04 6435.83 1431.54ZM5865.79 1306.49L5762.48 1412.54C5739.95 1433.68 5715.94 1447.17 5700.55 1439.83C5685.93 1430.95 5683.56 1418.3 5683.34 1383.7L5683.78 970.248C5683.78 908.154 5732.45 866.066 5732.45 866.066L5828.28 779.23C5844.08 765.688 5861.6 761.703 5872.45 765.68C5879.82 768.037 5896.44 777.271 5895.05 800.42V1231.19C5895 1262.7 5878.5 1288.3 5865.79 1306.49Z" fill="url(#paint0_angular_1873_54)" style=""/>
<path d="M6149.01 1416.09L6435.83 1431.54C6457.28 1433.04 6466.79 1444.41 6471.25 1455.01C6476.23 1466.86 6473.59 1485.54 6457.28 1502.76L6257 1693.72C6240.04 1708.59 6217.5 1717.86 6186.89 1716.31L5908.62 1696.85C5889 1695.93 5865.4 1682.05 5861.09 1668.82C5854.99 1650.52 5856.95 1634.73 5883.85 1609.94L6038.9 1445.37C6055.11 1431.84 6101.52 1412.54 6149.01 1416.09Z" fill="url(#paint1_angular_1873_54)" style=""/>
<path d="M5762.48 1412.54L5865.79 1306.49C5878.5 1288.3 5895 1262.7 5895.05 1231.19V800.42C5896.44 777.271 5879.82 768.037 5872.45 765.68C5861.6 761.703 5844.08 765.688 5828.28 779.23L5732.45 866.066C5732.45 866.066 5683.78 908.154 5683.78 970.248L5683.34 1383.7C5683.56 1418.3 5685.93 1430.95 5700.55 1439.83C5715.94 1447.17 5739.95 1433.68 5762.48 1412.54Z" fill="url(#paint2_angular_1873_54)" style=""/>
<path fill-rule="evenodd" clip-rule="evenodd" d="M4428.67 312.927C4479.02 319.634 4547.55 368.887 4547.55 434.541V977.24C4547.55 1096.24 4589.77 1145.66 4716.46 1154.52L4993.29 1173.88C5132.98 1186.84 5274 1302.04 5274 1479.36V2048.4C5274 2171.4 5248.68 2256.67 5191.78 2308.93L4845.75 2614.18C4757.16 2672.64 4638.04 2659.16 4634.05 2499.38V2168.31C4635 2138.79 4587.42 2077.56 4535.94 2137.35L4176.82 2520.79C4130.83 2568.45 4058.7 2594.79 4010.19 2577.16C3961.67 2559.54 3912.45 2529.33 3912.45 2412.33V778.283C3912.26 708.701 3944.36 670.111 3973.7 643.479L4290.5 359.266C4315.66 337.771 4372.41 305.433 4428.67 312.927ZM5008.64 2190.73L5008.77 2190.74L4912.03 2282.43C4892.92 2300.46 4878.63 2307.31 4860.17 2300.43C4842.54 2294.31 4846.34 2264.13 4845.75 2248.68V1807.78C4845.63 1762.88 4874.78 1725.83 4889.8 1706.74L4890.21 1706.22L4976.38 1610.61C4976.38 1610.61 5001.3 1579.97 5026.21 1581.71C5050.18 1583.39 5060.64 1598.12 5060.64 1627.62V2080.09C5059.96 2135.19 5024.32 2176.1 5008.64 2190.73ZM4335.85 697.937C4335.85 668.803 4323.23 660.372 4312.95 657.835C4299.05 654.404 4281.87 665.298 4267.56 678.661L4162.66 771.882C4147.22 787.691 4123.53 811.957 4124.15 872.375V1256.4C4125.16 1260.45 4124.15 1244.99 4124.15 1256.4C4125.41 1305.72 4137.38 1306.56 4148.35 1312.33C4159.32 1318.09 4182.75 1312.9 4205.89 1291.07L4303.76 1190.61C4326.92 1167.31 4335.85 1148.94 4335.85 1116.79V697.937ZM4124.15 2128.13C4124.15 2163.13 4137.38 2179.09 4153.84 2180.21C4174.29 2181.6 4190.75 2160.29 4207.21 2142.94L4446.73 1875.85C4463.08 1855.83 4464.96 1844.71 4462.58 1833.3C4460.64 1825.54 4445.13 1808.02 4426.67 1806.73L4189.47 1789.15C4133.96 1785.91 4123.97 1825.67 4124.15 1870.13V2128.13Z" fill="url(#paint3_angular_1873_54)" style=""/>
<path d="M4153.84 2180.21C4137.38 2179.09 4124.15 2163.13 4124.15 2128.13V1870.13C4123.97 1825.67 4133.96 1785.91 4189.47 1789.15L4426.67 1806.73C4445.13 1808.02 4460.64 1825.54 4462.58 1833.3C4464.96 1844.71 4463.08 1855.83 4446.73 1875.85L4207.21 2142.94C4190.75 2160.29 4174.29 2181.6 4153.84 2180.21Z" fill="url(#paint4_angular_1873_54)" style=""/>
<path d="M4312.95 657.835C4323.23 660.372 4335.85 668.803 4335.85 697.937V1116.79C4335.85 1148.94 4326.92 1167.31 4303.76 1190.61L4205.89 1291.07C4182.75 1312.9 4159.32 1318.09 4148.35 1312.33C4137.38 1306.56 4125.41 1305.72 4124.15 1256.4V872.375C4123.53 811.957 4147.22 787.691 4162.66 771.882L4267.56 678.661C4281.87 665.298 4299.05 654.404 4312.95 657.835Z" fill="url(#paint5_angular_1873_54)" style=""/>
<path d="M5008.77 2190.74L5008.64 2190.73C5024.32 2176.1 5059.96 2135.19 5060.64 2080.09V1627.62C5060.64 1598.12 5050.18 1583.39 5026.21 1581.71C5001.3 1579.97 4976.38 1610.61 4976.38 1610.61L4890.21 1706.22L4889.8 1706.74C4874.78 1725.83 4845.63 1762.88 4845.75 1807.78V2248.68C4846.34 2264.13 4842.54 2294.31 4860.17 2300.43C4878.63 2307.31 4892.92 2300.46 4912.03 2282.43L5008.77 2190.74Z" fill="url(#paint6_angular_1873_54)" style=""/>
<path fill-rule="evenodd" clip-rule="evenodd" d="M3632.48 2229.32C3661.17 2202.45 3716.08 2120.2 3722.08 1975.79V1421.11C3722.08 1235.55 3606.68 1078.2 3419.19 1065.09L2938.11 1031.45C2863.18 1028.58 2765.18 1057.46 2698.9 1122.06L2467.97 1355.91C2399.69 1432.07 2367.22 1505.37 2367.22 1619.87V2179.87C2367.22 2329.77 2498.89 2489.51 2639.05 2499.31L2902.27 2517.72C3017.62 2524.78 2955.28 2620.99 2913.81 2662.38L2913.87 2662.31L2913.86 2662.32L2913.81 2662.38C2873.49 2708.09 2820.03 2770.25 2783.69 2809.99C2735.14 2863.09 2766.96 2916.82 2828.09 2921.09L2917.37 2927.34C2944.53 2929.48 3000.17 2907.13 3055.53 2851.5C3110.9 2795.87 3632.48 2229.32 3632.48 2229.32ZM3477.17 2061.34L3419.19 2123.71C3399.05 2142.68 3386.07 2153.11 3365.77 2151.69C3349.81 2150.58 3342.38 2137.4 3342.38 2113.06L3342.51 1704.71C3342.77 1664.71 3365.44 1630.27 3380.67 1611.31L3428.78 1559.71C3447.22 1540.92 3455.55 1525.97 3476 1527.4C3496.45 1528.83 3509.98 1542.63 3510.12 1569.29V1976.29C3510.07 2013.72 3491.69 2041.86 3477.17 2061.34ZM3342.83 1273.09C3332.41 1257.41 3308.41 1252.6 3285.47 1251L2914.58 1225.06C2882.99 1226.63 2853.29 1240.53 2838.65 1256.13L2718.4 1384.2C2700.09 1403.4 2696.38 1424.97 2706.88 1440.12C2716.42 1453.87 2738.31 1466.21 2759.75 1467.71C2781.2 1469.21 3100.64 1491.54 3100.64 1491.54C3143.01 1494.72 3184.56 1476.08 3199.29 1461.72L3327.87 1325.54C3328.12 1325.25 3328.37 1324.96 3328.62 1324.67C3340.91 1310.59 3356.14 1293.12 3342.83 1273.09Z" fill="url(#paint7_angular_1873_54)" style=""/>
<path d="M3419.19 2123.71L3477.17 2061.34C3491.69 2041.86 3510.07 2013.72 3510.12 1976.29V1569.29C3509.98 1542.63 3496.45 1528.83 3476 1527.4C3455.55 1525.97 3447.22 1540.92 3428.78 1559.71L3380.67 1611.31C3365.44 1630.27 3342.77 1664.71 3342.51 1704.71L3342.38 2113.06C3342.38 2137.4 3349.81 2150.58 3365.77 2151.69C3386.07 2153.11 3399.05 2142.68 3419.19 2123.71Z" fill="url(#paint8_angular_1873_54)" style=""/>
<path d="M3285.47 1251C3308.41 1252.6 3332.41 1257.41 3342.83 1273.09C3356.14 1293.12 3340.91 1310.59 3328.62 1324.67L3327.87 1325.54L3199.29 1461.72C3184.56 1476.08 3143.01 1494.72 3100.64 1491.54L2759.75 1467.71C2738.31 1466.21 2716.42 1453.87 2706.88 1440.12C2696.38 1424.97 2700.09 1403.4 2718.4 1384.2L2838.65 1256.13C2853.29 1240.53 2882.99 1226.63 2914.58 1225.06L3285.47 1251Z" fill="url(#paint9_angular_1873_54)" style=""/>
<path fill-rule="evenodd" clip-rule="evenodd" d="M1904.11 1018.09L1678.73 1228.48C1603.33 1299.49 1561.67 1422.08 1557.2 1481.48L1558.09 2238.98C1558.09 2385.52 1633.71 2421.82 1698.06 2429.66C1762.41 2437.51 1786.67 2416.41 1843.5 2362.86L2105.07 2098.12C2146.23 2057.88 2172.27 2002.49 2174.47 1872.24V1127.76C2166.4 1066.46 2133.03 978.946 2045.23 969.017C1975.38 964.971 1929.43 996.3 1904.11 1018.09ZM1768.9 1512.76V2016.96C1768.92 2017.34 1768.94 2017.71 1768.95 2018.09C1769.78 2035.32 1770.69 2054.12 1784.35 2063.54C1798.32 2073.17 1818.24 2061.74 1830.74 2052.79L1910.25 1971.57C1910.25 1971.57 1963.28 1912.67 1962.78 1857.44V1372.52C1961.82 1348.38 1952.17 1327.57 1939.47 1322.89C1921.81 1316.95 1897.49 1330.17 1870.97 1352.67L1818.03 1402.09C1803.58 1415.57 1768.05 1459.85 1768.9 1512.76Z" fill="url(#paint10_angular_1873_54)" style=""/>
<path d="M1768.9 2016.96V1512.76C1768.05 1459.85 1803.58 1415.57 1818.03 1402.09L1870.97 1352.67C1897.49 1330.17 1921.81 1316.95 1939.47 1322.89C1952.17 1327.57 1961.82 1348.38 1962.78 1372.52V1857.44C1963.28 1912.67 1910.25 1971.57 1910.25 1971.57L1830.74 2052.79C1818.24 2061.74 1798.32 2073.17 1784.35 2063.54C1770.69 2054.12 1769.78 2035.32 1768.95 2018.09L1768.9 2016.96Z" fill="url(#paint11_angular_1873_54)" style=""/>
<path d="M2040.75 146.525C2121.5 161.571 2135.5 223.296 2134.75 275.973V522.547C2134.98 600.053 2086.99 662.336 2057.58 689.892L1827.22 891.493C1755.44 940.691 1679.07 946.434 1635.91 929.485C1592.75 911.536 1559.45 869.599 1558.2 777.383L1557.2 576.351C1557.2 493.022 1621.83 418.932 1658.33 389.904L1895.62 187.239C1919.63 169.253 1966.53 134.453 2040.75 146.525Z" fill="url(#paint12_angular_1873_54)" style=""/>
<path fill-rule="evenodd" clip-rule="evenodd" d="M635.173 186.916C635.173 89.6638 609.013 47.5785 526.714 41.8236L484.69 38.885C440.461 40.5239 395.264 64.3267 372.091 82.5197L131.18 291.674C60.8514 362.22 0 448.501 0 619.501V1956.65C0 2300.15 228.736 2331.93 353.636 2342.16C353.636 2342.16 637.942 2362.04 765.132 2370.93C892.321 2379.83 992.32 2325.8 1076.87 2256.8L1247.45 2088.73C1359.9 1979.44 1359.9 1905.02 1359.9 1689.52V1243.34C1359.9 1029.99 1191.59 906.941 1033.98 895.92L735.783 875.068L735.874 874.986C701.583 872.945 635.109 835.867 635.108 744.105L635.173 186.916ZM1107.55 1912.64L1018.01 2006.69C987.588 2037.06 951.676 2013.05 951.676 2013.05C951.676 2013.05 929.315 1994.48 929.315 1954.98V1581.94C929.315 1537.11 958.719 1491.76 974.256 1474.72L1054.43 1398.24C1078.5 1375.53 1096.32 1361.28 1116.77 1366.71C1137.22 1372.14 1147.2 1384.4 1147.2 1411.73V1811.89C1147.74 1854.29 1123.44 1897.5 1107.55 1912.64ZM425.402 824.199C425.603 858.33 407.662 890.931 394.165 909.531L293.789 1011.98C273.645 1032.01 247.604 1040.05 230.731 1038.34C213.859 1036.64 211.7 1004.42 211.7 980.182L211.966 589.625C212.11 538.789 245.427 499.843 259.873 485.368L335.557 417.149L335.508 417.313C358.741 395.398 386.711 376.32 401.015 385.006C408.248 389.398 425.035 397.377 425.402 433.998V824.199ZM980.107 1132.54C975.193 1123.19 967.637 1110.1 924.742 1107.1L538.15 1080.07C506.555 1081.64 480.85 1095.82 466.206 1107.41L353.636 1225.85C335.326 1245.06 327.201 1266 335.68 1282.59C344.16 1299.19 361.914 1310.22 384.561 1311.8L735.182 1336.32C777.545 1339.49 819.099 1320.85 833.827 1306.49L977.323 1175.84C989.722 1161.61 985.02 1141.88 980.107 1132.54Z" fill="url(#paint13_angular_1873_54)" style=""/>
<path fill-rule="evenodd" clip-rule="evenodd" d="M635.173 186.916C635.173 89.6638 609.013 47.5785 526.714 41.8236L484.69 38.885C440.461 40.5239 395.264 64.3267 372.091 82.5197L131.18 291.674C60.8514 362.22 0 448.501 0 619.501V1956.65C0 2300.15 228.736 2331.93 353.636 2342.16C353.636 2342.16 637.942 2362.04 765.132 2370.93C892.321 2379.83 992.32 2325.8 1076.87 2256.8L1247.45 2088.73C1359.9 1979.44 1359.9 1905.02 1359.9 1689.52V1243.34C1359.9 1029.99 1191.59 906.941 1033.98 895.92L735.783 875.068L735.874 874.986C701.583 872.945 635.109 835.867 635.108 744.105L635.173 186.916ZM1107.55 1912.64L1018.01 2006.69C987.588 2037.06 951.676 2013.05 951.676 2013.05C951.676 2013.05 929.315 1994.48 929.315 1954.98V1581.94C929.315 1537.11 958.719 1491.76 974.256 1474.72L1054.43 1398.24C1078.5 1375.53 1096.32 1361.28 1116.77 1366.71C1137.22 1372.14 1147.2 1384.4 1147.2 1411.73V1811.89C1147.74 1854.29 1123.44 1897.5 1107.55 1912.64ZM425.402 824.199C425.603 858.33 407.662 890.931 394.165 909.531L293.789 1011.98C273.645 1032.01 247.604 1040.05 230.731 1038.34C213.859 1036.64 211.7 1004.42 211.7 980.182L211.966 589.625C212.11 538.789 245.427 499.843 259.873 485.368L335.557 417.149L335.508 417.313C358.741 395.398 386.711 376.32 401.015 385.006C408.248 389.398 425.035 397.377 425.402 433.998V824.199ZM980.107 1132.54C975.193 1123.19 967.637 1110.1 924.742 1107.1L538.15 1080.07C506.555 1081.64 480.85 1095.82 466.206 1107.41L353.636 1225.85C335.326 1245.06 327.201 1266 335.68 1282.59C344.16 1299.19 361.914 1310.22 384.561 1311.8L735.182 1336.32C777.545 1339.49 819.099 1320.85 833.827 1306.49L977.323 1175.84C989.722 1161.61 985.02 1141.88 980.107 1132.54Z" fill="url(#paint14_angular_1873_54)" style=""/>
<path d="M1018.01 2006.69L1107.55 1912.64C1123.44 1897.5 1147.74 1854.29 1147.2 1811.89V1411.73C1147.2 1384.4 1137.22 1372.14 1116.77 1366.71C1096.32 1361.28 1078.5 1375.53 1054.43 1398.24L974.256 1474.72C958.719 1491.76 929.315 1537.11 929.315 1581.94V1954.98C929.315 1994.48 951.676 2013.05 951.676 2013.05C951.676 2013.05 987.588 2037.06 1018.01 2006.69Z" fill="url(#paint15_angular_1873_54)" style=""/>
<path d="M924.742 1107.1C967.637 1110.1 975.193 1123.19 980.107 1132.54C985.02 1141.88 989.722 1161.61 977.323 1175.84L833.827 1306.49C819.099 1320.85 777.545 1339.49 735.182 1336.32L384.561 1311.8C361.914 1310.22 344.16 1299.19 335.68 1282.59C327.201 1266 335.326 1245.06 353.636 1225.85L466.206 1107.41C480.85 1095.82 506.555 1081.64 538.15 1080.07L924.742 1107.1Z" fill="url(#paint16_angular_1873_54)" style=""/>
<path d="M394.165 909.531C407.662 890.931 425.603 858.33 425.402 824.199V433.998C425.035 397.377 408.248 389.398 401.015 385.006C386.711 376.32 358.741 395.398 335.508 417.313L335.557 417.149L259.873 485.368C245.427 499.843 212.11 538.789 211.966 589.625L211.7 980.182C211.7 1004.42 213.859 1036.64 230.731 1038.34C247.604 1040.05 273.645 1032.01 293.789 1011.98L394.165 909.531Z" fill="url(#paint17_angular_1873_54)" style=""/>
<defs>
<radialGradient id="paint0_angular_1873_54" cx="0" cy="0" r="1" gradientUnits="userSpaceOnUse" gradientTransform="translate(5993.91 1616.63) rotate(-176.263) scale(1410.56 1341.12)">
<stop stop-color="#FFDF01" style="stop-color:#FFDF01;stop-color:color(display-p3 1.0000 0.8745 0.0039);stop-opacity:1;"/>
<stop offset="1" stop-color="#FF7701" style="stop-color:#FF7701;stop-color:color(display-p3 1.0000 0.4667 0.0039);stop-opacity:1;"/>
</radialGradient>
<radialGradient id="paint1_angular_1873_54" cx="0" cy="0" r="1" gradientUnits="userSpaceOnUse" gradientTransform="translate(5993.91 1616.63) rotate(-176.263) scale(1410.56 1341.12)">
<stop stop-color="#FFDF01" style="stop-color:#FFDF01;stop-color:color(display-p3 1.0000 0.8745 0.0039);stop-opacity:1;"/>
<stop offset="1" stop-color="#FF7701" style="stop-color:#FF7701;stop-color:color(display-p3 1.0000 0.4667 0.0039);stop-opacity:1;"/>
</radialGradient>
<radialGradient id="paint2_angular_1873_54" cx="0" cy="0" r="1" gradientUnits="userSpaceOnUse" gradientTransform="translate(5993.91 1616.63) rotate(-176.263) scale(1410.56 1341.12)">
<stop stop-color="#FFDF01" style="stop-color:#FFDF01;stop-color:color(display-p3 1.0000 0.8745 0.0039);stop-opacity:1;"/>
<stop offset="1" stop-color="#FF7701" style="stop-color:#FF7701;stop-color:color(display-p3 1.0000 0.4667 0.0039);stop-opacity:1;"/>
</radialGradient>
<radialGradient id="paint3_angular_1873_54" cx="0" cy="0" r="1" gradientUnits="userSpaceOnUse" gradientTransform="translate(4628.18 1701.38) rotate(89.4088) scale(1353.55 1771.55)">
<stop stop-color="#FF7701" style="stop-color:#FF7701;stop-color:color(display-p3 1.0000 0.4667 0.0039);stop-opacity:1;"/>
<stop offset="1" stop-color="#FFDF01" style="stop-color:#FFDF01;stop-color:color(display-p3 1.0000 0.8745 0.0039);stop-opacity:1;"/>
</radialGradient>
<radialGradient id="paint4_angular_1873_54" cx="0" cy="0" r="1" gradientUnits="userSpaceOnUse" gradientTransform="translate(4628.18 1701.38) rotate(89.4088) scale(1353.55 1771.55)">
<stop stop-color="#FF7701" style="stop-color:#FF7701;stop-color:color(display-p3 1.0000 0.4667 0.0039);stop-opacity:1;"/>
<stop offset="1" stop-color="#FFDF01" style="stop-color:#FFDF01;stop-color:color(display-p3 1.0000 0.8745 0.0039);stop-opacity:1;"/>
</radialGradient>
<radialGradient id="paint5_angular_1873_54" cx="0" cy="0" r="1" gradientUnits="userSpaceOnUse" gradientTransform="translate(4628.18 1701.38) rotate(89.4088) scale(1353.55 1771.55)">
<stop stop-color="#FF7701" style="stop-color:#FF7701;stop-color:color(display-p3 1.0000 0.4667 0.0039);stop-opacity:1;"/>
<stop offset="1" stop-color="#FFDF01" style="stop-color:#FFDF01;stop-color:color(display-p3 1.0000 0.8745 0.0039);stop-opacity:1;"/>
</radialGradient>
<radialGradient id="paint6_angular_1873_54" cx="0" cy="0" r="1" gradientUnits="userSpaceOnUse" gradientTransform="translate(4628.18 1701.38) rotate(89.4088) scale(1353.55 1771.55)">
<stop stop-color="#FF7701" style="stop-color:#FF7701;stop-color:color(display-p3 1.0000 0.4667 0.0039);stop-opacity:1;"/>
<stop offset="1" stop-color="#FFDF01" style="stop-color:#FFDF01;stop-color:color(display-p3 1.0000 0.8745 0.0039);stop-opacity:1;"/>
</radialGradient>
<radialGradient id="paint7_angular_1873_54" cx="0" cy="0" r="1" gradientUnits="userSpaceOnUse" gradientTransform="translate(3045.06 1866.77) rotate(132.695) scale(1096 1513.46)">
<stop stop-color="#FFDF01" style="stop-color:#FFDF01;stop-color:color(display-p3 1.0000 0.8745 0.0039);stop-opacity:1;"/>
<stop offset="1" stop-color="#FF7701" style="stop-color:#FF7701;stop-color:color(display-p3 1.0000 0.4667 0.0039);stop-opacity:1;"/>
</radialGradient>
<radialGradient id="paint8_angular_1873_54" cx="0" cy="0" r="1" gradientUnits="userSpaceOnUse" gradientTransform="translate(3045.06 1866.77) rotate(132.695) scale(1096 1513.46)">
<stop stop-color="#FFDF01" style="stop-color:#FFDF01;stop-color:color(display-p3 1.0000 0.8745 0.0039);stop-opacity:1;"/>
<stop offset="1" stop-color="#FF7701" style="stop-color:#FF7701;stop-color:color(display-p3 1.0000 0.4667 0.0039);stop-opacity:1;"/>
</radialGradient>
<radialGradient id="paint9_angular_1873_54" cx="0" cy="0" r="1" gradientUnits="userSpaceOnUse" gradientTransform="translate(3045.06 1866.77) rotate(132.695) scale(1096 1513.46)">
<stop stop-color="#FFDF01" style="stop-color:#FFDF01;stop-color:color(display-p3 1.0000 0.8745 0.0039);stop-opacity:1;"/>
<stop offset="1" stop-color="#FF7701" style="stop-color:#FF7701;stop-color:color(display-p3 1.0000 0.4667 0.0039);stop-opacity:1;"/>
</radialGradient>
<radialGradient id="paint10_angular_1873_54" cx="0" cy="0" r="1" gradientUnits="userSpaceOnUse" gradientTransform="translate(1866.16 1775.26) rotate(-90) scale(1018.5 657.59)">
<stop stop-color="#FFDF01" style="stop-color:#FFDF01;stop-color:color(display-p3 1.0000 0.8745 0.0039);stop-opacity:1;"/>
<stop offset="1" stop-color="#FF7701" style="stop-color:#FF7701;stop-color:color(display-p3 1.0000 0.4667 0.0039);stop-opacity:1;"/>
</radialGradient>
<radialGradient id="paint11_angular_1873_54" cx="0" cy="0" r="1" gradientUnits="userSpaceOnUse" gradientTransform="translate(1866.16 1775.26) rotate(-90) scale(1018.5 657.59)">
<stop stop-color="#FFDF01" style="stop-color:#FFDF01;stop-color:color(display-p3 1.0000 0.8745 0.0039);stop-opacity:1;"/>
<stop offset="1" stop-color="#FF7701" style="stop-color:#FF7701;stop-color:color(display-p3 1.0000 0.4667 0.0039);stop-opacity:1;"/>
</radialGradient>
<radialGradient id="paint12_angular_1873_54" cx="0" cy="0" r="1" gradientUnits="userSpaceOnUse" gradientTransform="translate(1846.17 540.793) rotate(-39.6318) scale(591.291 410.207)">
<stop stop-color="#FF7701" style="stop-color:#FF7701;stop-color:color(display-p3 1.0000 0.4667 0.0039);stop-opacity:1;"/>
<stop offset="1" stop-color="#FFDF01" style="stop-color:#FFDF01;stop-color:color(display-p3 1.0000 0.8745 0.0039);stop-opacity:1;"/>
</radialGradient>
<radialGradient id="paint13_angular_1873_54" cx="0" cy="0" r="1" gradientUnits="userSpaceOnUse" gradientTransform="translate(640.935 1641.82) rotate(-90.2443) scale(1638 1633.04)">
<stop stop-color="#FF7701" style="stop-color:#FF7701;stop-color:color(display-p3 1.0000 0.4667 0.0039);stop-opacity:1;"/>
<stop offset="1" stop-color="#FFDF01" style="stop-color:#FFDF01;stop-color:color(display-p3 1.0000 0.8745 0.0039);stop-opacity:1;"/>
</radialGradient>
<radialGradient id="paint14_angular_1873_54" cx="0" cy="0" r="1" gradientUnits="userSpaceOnUse" gradientTransform="translate(640.935 1641.82) rotate(-90.2443) scale(1638 1633.04)">
<stop stop-color="#FF7701" style="stop-color:#FF7701;stop-color:color(display-p3 1.0000 0.4667 0.0039);stop-opacity:1;"/>
<stop offset="1" stop-color="#FFDF01" style="stop-color:#FFDF01;stop-color:color(display-p3 1.0000 0.8745 0.0039);stop-opacity:1;"/>
</radialGradient>
<radialGradient id="paint15_angular_1873_54" cx="0" cy="0" r="1" gradientUnits="userSpaceOnUse" gradientTransform="translate(640.935 1641.82) rotate(-90.2443) scale(1638 1633.04)">
<stop stop-color="#FF7701" style="stop-color:#FF7701;stop-color:color(display-p3 1.0000 0.4667 0.0039);stop-opacity:1;"/>
<stop offset="1" stop-color="#FFDF01" style="stop-color:#FFDF01;stop-color:color(display-p3 1.0000 0.8745 0.0039);stop-opacity:1;"/>
</radialGradient>
<radialGradient id="paint16_angular_1873_54" cx="0" cy="0" r="1" gradientUnits="userSpaceOnUse" gradientTransform="translate(640.935 1641.82) rotate(-90.2443) scale(1638 1633.04)">
<stop stop-color="#FF7701" style="stop-color:#FF7701;stop-color:color(display-p3 1.0000 0.4667 0.0039);stop-opacity:1;"/>
<stop offset="1" stop-color="#FFDF01" style="stop-color:#FFDF01;stop-color:color(display-p3 1.0000 0.8745 0.0039);stop-opacity:1;"/>
</radialGradient>
<radialGradient id="paint17_angular_1873_54" cx="0" cy="0" r="1" gradientUnits="userSpaceOnUse" gradientTransform="translate(640.935 1641.82) rotate(-90.2443) scale(1638 1633.04)">
<stop stop-color="#FF7701" style="stop-color:#FF7701;stop-color:color(display-p3 1.0000 0.4667 0.0039);stop-opacity:1;"/>
<stop offset="1" stop-color="#FFDF01" style="stop-color:#FFDF01;stop-color:color(display-p3 1.0000 0.8745 0.0039);stop-opacity:1;"/>
</radialGradient>
</defs>
</svg>
