<svg width="7055" height="2908" viewBox="0 0 7055 2908" fill="none" xmlns="http://www.w3.org/2000/svg">
<path fill-rule="evenodd" clip-rule="evenodd" d="M6248.53 604.575C6273.5 607.2 6312.21 632.034 6319.07 688.703V1307.27C6319.08 1307.74 6319.08 1308.2 6319.08 1308.68L6319.08 1309.29L6319.08 1309.63C6319.09 1401.39 6389.09 1425.82 6425.24 1429.09L6424.52 1429.69L6971.61 1487.36L6971.89 1487.25C6972.49 1487.33 6973.09 1487.41 6973.68 1487.5C6973.98 1487.55 6974.27 1487.59 6974.57 1487.64L6975.07 1487.73L6975.61 1487.78L6975.56 1487.81C7050.9 1501.19 7096.79 1625.85 6999.96 1719.7L6999.75 1719.46L6604.5 2072.62C6550.3 2114.46 6511.54 2120.32 6480.61 2118.84L6421.84 2112.67C6381.15 2111.63 6319.18 2128.72 6319.17 2218.43C6319.17 2219.6 6319.16 2220.74 6319.15 2221.85C6319.13 2222.85 6319.1 2223.83 6319.07 2224.8V2344.42C6318.05 2428.85 6281.75 2477.07 6248.45 2510.52L6228.2 2529.85L6227.83 2530.2L6226.29 2531.63L6225.01 2532.82L6225.08 2532.82L5985.84 2761.17C5983.02 2763.38 5979.98 2765.86 5976.73 2768.63C5932.55 2806.19 5888.74 2828.02 5849.41 2840.45C5780.82 2844.95 5650.47 2809.25 5650.47 2629.52C5650.47 2615.58 5650.15 2604.44 5649.55 2595.85V1092.6C5649.85 1085.77 5650.01 1078.04 5650.01 1069.36C5650.01 959.036 5719.05 903.349 5746.38 881.299L5747.58 880.329L5746.99 880.229L6023.33 652.118L6023.36 652.286L6023.64 651.928L6023.81 651.72L6056.55 624.698C6085.36 607.263 6129.54 592.07 6186.93 598.102C6193.22 598.763 6198.18 598.983 6201.93 598.808L6249.37 603.794L6248.53 604.575ZM4708.57 536.277C4708.57 470.622 4669.21 440.406 4641.69 434.82L4564.58 426.716C4519.06 423.93 4482.45 434.515 4455.94 448.106L4105.89 737.914C4078.91 764.311 4046.96 806.747 4039.88 871.916V2527.05C4052.51 2631.26 4115.38 2676.28 4173.29 2691.94L4208.95 2695.69C4235.29 2697.06 4270.1 2687.92 4318.57 2640.92L4710.88 2228.81C4712.86 2226.82 4715.18 2224.41 4717.85 2221.53C4775.13 2159.85 4800.34 2211.82 4800.34 2241.39L4800.58 2240.86V2511.25C4801.01 2519.2 4801.23 2529.01 4801.23 2540.84C4801.23 2721.52 4936.85 2772.47 5002.08 2757.36C5040.6 2745.34 5083.82 2723.89 5127.98 2687.95L5392.73 2458.94C5432.11 2418.78 5473.12 2330.9 5473.12 2184.77C5473.12 2175.99 5473.24 2168.56 5473.46 2162.38V1509.02L5473.12 1509.5C5473.12 1451.15 5442.69 1327.64 5328.99 1315.69C5316.74 1314.4 5307.5 1312.99 5300.87 1311.49L5250.28 1306.17L4816.34 1260.56L4816.44 1260.48C4780.29 1257.21 4710.28 1232.77 4710.28 1141.01C4710.28 1134.7 4709.98 1129.15 4709.4 1124.3V550.99C4708.86 548.861 4708.57 544.109 4708.57 536.277ZM5001.03 2757.69L4977.66 2763.92C4985.22 2762.22 4993.02 2760.16 5001.03 2757.69ZM609.936 11.0661C635.483 19.4983 666.99 47.59 669.798 102.661V711.315C669.844 712.936 669.867 714.613 669.867 716.347C669.868 808.109 739.874 832.543 776.023 835.816L775.928 835.895L1210.68 881.59L1279.15 888.786C1282.58 889.242 1286.33 889.685 1290.42 890.115C1394.4 901.044 1428.74 1005.27 1433.85 1067.64V1791.7C1428.38 1916.46 1391.73 1993.79 1355.9 2031.56L1114.71 2242.25C1109.72 2245.68 1103.84 2250.25 1097 2256.06C986.512 2349.99 878.34 2345.6 836.679 2341.53L196.257 2274.22L201.576 2272.71C197.275 2273.09 192.7 2273.31 187.904 2273.35L144.872 2268.82C82.5868 2255.41 10.5673 2209.19 0.28125 2091.55V458.927C5.84252 359.884 68.0768 309.876 94.9605 288.274L94.972 288.265C95.8382 287.569 96.6677 286.902 97.4573 286.265L96.6763 286.125L373.166 55.7979L373.229 56.2223C373.623 55.7279 374.037 55.2236 374.471 54.7102L403.926 30.1734C428.354 14.8127 464.606 0.741659 511.231 0.69181L609.936 11.0661ZM2182.52 94.0987C2267.64 103.045 2266.64 169.837 2265.85 222.488L2265.85 222.517C2265.77 227.417 2265.7 232.194 2265.7 236.79L2266.64 234.878V520.119C2260.88 584.633 2234.2 627.153 2215.23 646.086L1907 846.544C1904.43 847.891 1901.75 849.398 1898.96 851.073C1840.23 886.364 1797.42 889.94 1769.5 888.286L1689.12 881.001L1692.04 880.358C1654.17 877.834 1611.68 853.024 1610.35 760.762V520.29C1610.98 517.454 1611.31 513.47 1611.31 508.23C1611.31 424.901 1681.31 351.904 1719.79 326.188L1717.92 325.417L2003.67 111.48C2028.99 94.3562 2057.69 81.5307 2099.58 85.3811C2103.62 85.7529 2106.71 85.9174 2108.93 85.8942L2168.39 92.1432C2172.38 92.8719 2177.08 93.5263 2182.52 94.0987ZM1076.09 1968.99L1168.89 1887.92C1185.64 1869.36 1206.02 1838.24 1209.65 1796.24C1209.91 1793.19 1210.26 1790.66 1210.68 1788.6V1371.44C1210.52 1368.15 1210.44 1364.33 1210.44 1359.93C1210.44 1332.6 1202.98 1321.91 1194.17 1316.54C1176.77 1305.92 1145.02 1332.26 1119.64 1354.11L1031.53 1435.53C1015.15 1452.02 989.304 1487.85 985.426 1532.7C985.115 1536.29 984.686 1539.08 984.151 1541.14V1937.76C984.305 1941.36 984.385 1945.7 984.385 1950.84C984.385 1977.59 994.924 1990.11 1012.78 1997.74C1031.65 2005.81 1046.61 1994.64 1065.25 1978.46C1065.81 1977.98 1066.37 1977.48 1066.94 1976.99C1067.26 1976.71 1067.58 1976.42 1067.91 1976.14L1069 1975.19L1070.15 1974.18L1071 1973.43L1072.32 1972.27C1073 1971.68 1073.69 1971.08 1074.38 1970.47C1074.95 1969.98 1075.52 1969.48 1076.09 1968.99ZM534.03 1077.06L431.319 1173.58L431.717 1173.53C402.793 1201.65 385.744 1219.44 396.38 1238.38C404.075 1252.08 407.289 1256 433.24 1258.34C441.121 1259.06 447.087 1259.86 451.369 1260.75L760.982 1293.29L762.475 1293.45L762.751 1293.47C816.034 1299.08 851.84 1273.14 865.791 1259.46L865.801 1259.56L1000.49 1135.09C1012.35 1121.94 1021.48 1107.91 1015.93 1097.31C1012.73 1091.19 1006.15 1085.47 990.451 1082.84L638.803 1045.88C637.517 1045.82 636.074 1045.71 634.467 1045.54C585.383 1040.38 546.913 1064.76 534.062 1077.36L534.03 1077.06ZM413.698 872.874C427.926 854.76 442.633 828.381 446.627 794.665V383.464C446.241 357.83 431.698 345.564 424.074 340.912C408.995 331.712 376.355 353.469 351.863 374.549L351.915 374.387L274.234 439.098L275.425 439.252C260.197 452.208 228.09 491.226 223.731 541.635C223.646 542.615 223.553 543.536 223.45 544.398V943.182C223.746 947.029 223.902 951.846 223.902 957.73C223.902 983.968 226.606 996.487 241.41 1002.82C258.145 1013.03 284.546 991.815 308.936 970.822L308.715 971.526L413.698 872.874ZM3782.32 2313.78L3783.26 2313.88L3278.25 2820.94L3278.1 2820.64C3263.79 2828.94 3252.64 2838.47 3241.38 2848.11C3202.8 2881.11 3162.82 2915.31 2989.29 2905.51C2874.35 2899.01 2973.61 2780.31 3065.3 2687L3102.8 2650C3126.86 2621.92 3115.12 2580.73 3015.59 2570.26C3015.28 2570.23 3014.97 2570.2 3014.67 2570.17L3013.91 2570.08L3013.49 2570.04L2642.78 2531.07L2644.18 2530.71C2578.38 2526.37 2451.18 2498.68 2443.14 2330.93V1581.35L2443.21 1581.5C2442.64 1533.76 2460.68 1461.32 2532.66 1387.62L2789.96 1145.84C2794.07 1142.66 2799.42 1138.16 2806.14 1132.18C2876.01 1069.96 2972.28 1065.5 3051.27 1071.07L3654.54 1134.47V1134.45L3753.41 1144.84C3845.21 1162.89 3874.43 1234.63 3877.71 1288.77V2063.56C3871.39 2207.75 3812.56 2289.93 3782.32 2313.78ZM3558.42 2200.6L3619.53 2140.32C3634.84 2121.35 3651.13 2092.73 3654.34 2055.61L3654.39 2055.08L3654.43 2054.64L3654.43 2054.58C3654.45 2054.44 3654.46 2054.31 3654.48 2054.17L3654.5 2053.88L3654.54 2053.59V1626.33C3654.38 1599.66 3647.83 1587.65 3635.58 1582.96C3617.84 1576.15 3599.99 1592.8 3580.55 1610.93C3576.61 1614.61 3572.6 1618.34 3568.52 1621.95L3517.8 1671.82C3501.75 1690.23 3481.13 1722.85 3477.7 1762.52C3477.68 1762.78 3477.66 1763.03 3477.64 1763.28C3477.62 1763.47 3477.6 1763.67 3477.58 1763.86C3477.53 1764.3 3477.49 1764.72 3477.44 1765.14V2177.04C3477.55 2179.88 3477.61 2183.16 3477.61 2186.9C3477.61 2211.25 3485.69 2222.47 3498.58 2226.6C3519.33 2233.25 3537.18 2218.85 3558.42 2200.6ZM3453.86 1337.78C3463.07 1339.52 3469.06 1342.98 3474.17 1352.74C3480.38 1364.62 3469.91 1379.32 3456.83 1393.11L3322.39 1525.3C3304.86 1539.13 3272.48 1556.58 3227.82 1551.89C3223.79 1551.47 3220.68 1551.37 3218.4 1551.57L2814.56 1509.13C2801.51 1506.74 2795.64 1502.57 2791.67 1491.74C2784.01 1470.86 2803.5 1450.78 2822.81 1432.23L2945.37 1317.06C2960.8 1306 2987.9 1292.74 3021.21 1292.31L3453.86 1337.78ZM5195.6 2323.76L5195.46 2323.74C5212 2309.67 5245.16 2273.41 5249.89 2218.69C5250 2217.35 5250.14 2216.11 5250.28 2214.97V1735.69C5249.6 1712.15 5243.4 1705.8 5230.59 1700.89C5210.1 1693.03 5195.26 1707.73 5177.94 1724.89L5177.94 1724.9L5177.93 1724.9L5177.9 1724.93C5172.71 1730.07 5167.3 1735.43 5161.45 1740.46L5070.62 1834.98C5054.92 1852.38 5027.96 1886.84 5024.08 1931.8C5023.98 1932.93 5023.87 1933.97 5023.75 1934.94V2410.05C5024.62 2424.1 5027.83 2432.39 5038.43 2437.34C5053.68 2444.46 5073.56 2429.04 5093.71 2411.7L5093.62 2411.97L5195.6 2323.76ZM4464.87 763.721C4471.27 767.625 4482.54 776.892 4486.23 794.924V1225.64C4480.73 1257.07 4466.08 1281.58 4452.39 1298.3L4349.22 1395.25L4349.73 1393.63C4325.34 1414.62 4298.94 1435.84 4282.21 1425.63C4267.4 1419.3 4264.7 1406.78 4264.7 1380.54C4264.7 1369.13 4264.11 1361.73 4263.05 1357.64V973.613C4263.68 971.5 4264.18 968.48 4264.53 964.444C4268.01 924.113 4289.26 891.073 4305.42 872.839L4427.16 772.051C4442.24 763.201 4456.36 758.527 4464.87 763.721ZM4278.48 2296.01C4269.3 2291.11 4264.09 2283.92 4263.05 2269.01V1965.8L4263.52 1966.01C4261.24 1939.33 4271.29 1887.29 4329.81 1892.52C4334.69 1892.96 4338.34 1893.09 4340.89 1892.95L4608.93 1921.12C4623.64 1923.85 4629.93 1929.42 4633.04 1935.35C4638.69 1946.17 4629.07 1960.55 4616.86 1973.94L4606.83 1984.3C4605.84 1985.28 4604.85 1986.25 4603.88 1987.2C4603.06 1987.99 4602.26 1988.76 4601.47 1989.53L4601.81 1989.49L4328.89 2271.39C4307.12 2292.76 4290.65 2303.51 4278.48 2296.01ZM1738.47 1219.38L1976.05 1017.09C2002.74 996.206 2051.18 966.526 2124.82 973.082C2217.38 986.165 2252.56 1074.87 2261.07 1136.47V1846.64C2258.75 1976.81 2223.32 2058.63 2187.29 2100.14L1909.01 2371.36C1907.3 2372.75 1905.46 2374.39 1903.48 2376.29C1843.57 2433.79 1805.33 2442.83 1776.66 2439.82L1776.72 2440.05L1771.93 2439.54C1711.77 2432.04 1611.29 2402.08 1611.29 2255.54C1611.29 2242.46 1610.96 2232.29 1610.35 2224.71V1468.02C1615.06 1408.78 1641.16 1305.31 1720.64 1237.01C1728.73 1230.06 1734.58 1224.23 1738.47 1219.38ZM1833.52 2038.59V1506.9C1833.85 1505.14 1834.13 1503.01 1834.35 1500.47C1838.71 1450.06 1870.81 1411.05 1886.04 1398.09L1885.31 1398L1941.12 1350.48L1940.99 1350.85C1967.9 1329.2 2001.53 1303.61 2020.15 1314.18C2028.28 1318.79 2036.89 1328.98 2037.9 1353.16V1858.54C2037.52 1860.52 2037.2 1862.9 2036.96 1865.74C2032.22 1920.46 1999.06 1956.72 1982.53 1970.78L1983.59 1970.92L1884.56 2063.16C1871.39 2071.67 1859.14 2076.01 1849.96 2070.4C1838.14 2065.35 1834.41 2056.15 1833.52 2038.59ZM6683.81 1613.81L6367.35 1586.04C6365.37 1586.15 6362.76 1586.04 6359.45 1585.69C6317.54 1581.28 6283.36 1598.41 6266.27 1611.36L6084.07 1767L6085.14 1766.87C6056.21 1794.99 6039.16 1812.78 6049.8 1831.72C6057.49 1845.42 6060.71 1849.34 6086.66 1851.69C6098.56 1852.76 6106.09 1854.05 6110.05 1855.5L6400.26 1886C6432.51 1886.65 6457.53 1875.84 6474.16 1864.93L6678.26 1682.55C6695.46 1665.91 6717.8 1643.6 6709.82 1628.37C6706.59 1622.19 6699.9 1616.4 6683.81 1613.81ZM6065.05 1464.68L5956.15 1567.02C5932.39 1587.35 5907.09 1606.98 5890.87 1597.08C5876.06 1590.75 5873.36 1578.24 5873.36 1552C5873.36 1544.98 5873.14 1539.49 5872.72 1535.34V1140.1C5872.9 1138.85 5873.06 1137.45 5873.19 1135.9C5877.55 1085.49 5909.65 1046.48 5924.88 1033.52L5924.49 1033.47L6025.52 950.07C6044.25 937.271 6063.1 928.813 6073.53 935.18C6080.74 939.578 6094.13 950.782 6095.9 973.658V1390.43C6091.84 1421.94 6078.46 1446.95 6065.05 1464.68Z" fill="black" style="fill:black;fill-opacity:1;"/>
</svg>
