<svg width="6491" height="2961" viewBox="0 0 6491 2961" fill="none" xmlns="http://www.w3.org/2000/svg">
<path fill-rule="evenodd" clip-rule="evenodd" d="M633.236 154.056C633.236 56.8034 607.156 13.8063 525.108 5.18266L483.212 0.779264C439.118 0.876441 394.059 23.1039 370.957 40.4891L130.78 241.245C60.6658 309.34 0 393.5 0 564.5V1901.65C0 2245.15 228.039 2284.9 352.558 2299.48C352.558 2299.48 635.997 2329.27 762.798 2342.6C889.6 2355.93 989.294 2305.39 1073.59 2239.34L1243.65 2077.21C1355.75 1971.84 1355.75 1897.42 1355.75 1681.92V1235.74C1355.75 1022.39 1187.96 893.476 1030.82 876.96L733.539 845.715L733.63 845.635C699.443 842.399 633.172 803.004 633.171 711.242L633.236 154.056ZM1104.17 1896.24L1014.91 1987.17C984.577 2016.48 948.774 1991.22 948.774 1991.22C948.774 1991.22 926.481 1971.87 926.481 1932.38V1559.33C926.481 1514.5 955.795 1470.18 971.285 1453.68L1051.21 1380C1075.21 1358.13 1092.98 1344.5 1113.37 1350.64C1133.75 1356.78 1143.7 1369.39 1143.7 1396.72V1796.88C1144.24 1839.29 1120.02 1881.66 1104.17 1896.24ZM424.105 784.027C424.305 818.165 406.419 850.141 392.963 868.269L292.893 967.219C272.811 986.55 246.849 993.684 230.028 991.386C213.207 989.089 211.054 956.799 211.054 932.561L211.319 542.013C211.464 491.182 244.679 453.398 259.081 439.426L334.534 373.845L334.485 374.007C357.647 352.902 385.531 334.799 399.792 343.984C407.003 348.628 423.739 357.192 424.105 393.826V784.027ZM977.118 1111.7C972.219 1102.18 964.686 1088.83 921.922 1084.34L536.509 1043.83C505.01 1044.3 479.383 1057.58 464.784 1068.66L352.558 1183.18C334.303 1201.74 326.203 1222.41 334.657 1239.29C343.11 1256.18 360.81 1267.83 383.388 1270.2L732.94 1306.94C775.174 1311.59 816.601 1294.4 831.284 1280.56L974.342 1154.91C986.704 1141.11 982.016 1121.21 977.118 1111.7Z" fill="white" style="fill:white;fill-opacity:1;"/>
<path fill-rule="evenodd" clip-rule="evenodd" d="M633.236 154.056C633.236 56.8034 607.156 13.8063 525.108 5.18266L483.212 0.779264C439.118 0.876441 394.059 23.1039 370.957 40.4891L130.78 241.245C60.6658 309.34 0 393.5 0 564.5V1901.65C0 2245.15 228.039 2284.9 352.558 2299.48C352.558 2299.48 635.997 2329.27 762.798 2342.6C889.6 2355.93 989.294 2305.39 1073.59 2239.34L1243.65 2077.21C1355.75 1971.84 1355.75 1897.42 1355.75 1681.92V1235.74C1355.75 1022.39 1187.96 893.476 1030.82 876.96L733.539 845.715L733.63 845.635C699.443 842.399 633.172 803.004 633.171 711.242L633.236 154.056ZM1104.17 1896.24L1014.91 1987.17C984.577 2016.48 948.774 1991.22 948.774 1991.22C948.774 1991.22 926.481 1971.87 926.481 1932.38V1559.33C926.481 1514.5 955.795 1470.18 971.285 1453.68L1051.21 1380C1075.21 1358.13 1092.98 1344.5 1113.37 1350.64C1133.75 1356.78 1143.7 1369.39 1143.7 1396.72V1796.88C1144.24 1839.29 1120.02 1881.66 1104.17 1896.24ZM424.105 784.027C424.305 818.165 406.419 850.141 392.963 868.269L292.893 967.219C272.811 986.55 246.849 993.684 230.028 991.386C213.207 989.089 211.054 956.799 211.054 932.561L211.319 542.013C211.464 491.182 244.679 453.398 259.081 439.426L334.534 373.845L334.485 374.007C357.647 352.902 385.531 334.799 399.792 343.984C407.003 348.628 423.739 357.192 424.105 393.826V784.027ZM977.118 1111.7C972.219 1102.18 964.686 1088.83 921.922 1084.34L536.509 1043.83C505.01 1044.3 479.383 1057.58 464.784 1068.66L352.558 1183.18C334.303 1201.74 326.203 1222.41 334.657 1239.29C343.11 1256.18 360.81 1267.83 383.388 1270.2L732.94 1306.94C775.174 1311.59 816.601 1294.4 831.284 1280.56L974.342 1154.91C986.704 1141.11 982.016 1121.21 977.118 1111.7Z" fill="black" style="fill:black;fill-opacity:1;"/>
<path fill-rule="evenodd" clip-rule="evenodd" d="M633.236 154.056C633.236 56.8034 607.156 13.8063 525.108 5.18266L483.212 0.779264C439.118 0.876441 394.059 23.1039 370.957 40.4891L130.78 241.245C60.6658 309.34 0 393.5 0 564.5V1901.65C0 2245.15 228.039 2284.9 352.558 2299.48C352.558 2299.48 635.997 2329.27 762.798 2342.6C889.6 2355.93 989.294 2305.39 1073.59 2239.34L1243.65 2077.21C1355.75 1971.84 1355.75 1897.42 1355.75 1681.92V1235.74C1355.75 1022.39 1187.96 893.476 1030.82 876.96L733.539 845.715L733.63 845.635C699.443 842.399 633.172 803.004 633.171 711.242L633.236 154.056ZM1104.17 1896.24L1014.91 1987.17C984.577 2016.48 948.774 1991.22 948.774 1991.22C948.774 1991.22 926.481 1971.87 926.481 1932.38V1559.33C926.481 1514.5 955.795 1470.18 971.285 1453.68L1051.21 1380C1075.21 1358.13 1092.98 1344.5 1113.37 1350.64C1133.75 1356.78 1143.7 1369.39 1143.7 1396.72V1796.88C1144.24 1839.29 1120.02 1881.66 1104.17 1896.24ZM424.105 784.027C424.305 818.165 406.419 850.141 392.963 868.269L292.893 967.219C272.811 986.55 246.849 993.684 230.028 991.386C213.207 989.089 211.054 956.799 211.054 932.561L211.319 542.013C211.464 491.182 244.679 453.398 259.081 439.426L334.534 373.845L334.485 374.007C357.647 352.902 385.531 334.799 399.792 343.984C407.003 348.628 423.739 357.192 424.105 393.826V784.027ZM977.118 1111.7C972.219 1102.18 964.686 1088.83 921.922 1084.34L536.509 1043.83C505.01 1044.3 479.383 1057.58 464.784 1068.66L352.558 1183.18C334.303 1201.74 326.203 1222.41 334.657 1239.29C343.11 1256.18 360.81 1267.83 383.388 1270.2L732.94 1306.94C775.174 1311.59 816.601 1294.4 831.284 1280.56L974.342 1154.91C986.704 1141.11 982.016 1121.21 977.118 1111.7Z" fill="url(#paint0_linear_1695_2)" style=""/>
<path fill-rule="evenodd" clip-rule="evenodd" d="M4216.28 391.648C4266.48 400.111 4334.8 451.752 4334.8 517.407V1060.11C4334.8 1179.11 4376.89 1230 4503.19 1243.27L4779.17 1272.28C4918.44 1290.11 5059.03 1410.23 5059.03 1587.55V2156.59C5059.03 2279.58 5033.79 2363.98 4977.06 2414.25L4632.09 2707.44C4543.76 2762.81 4425.01 2745.18 4421.03 2585.26V2254.19C4421.98 2224.71 4374.54 2161.81 4323.22 2219.81L3965.19 2590.73C3919.35 2636.79 3847.44 2660.61 3799.07 2641.3C3750.71 2621.98 3701.63 2590.06 3701.63 2473.06V839.011C3701.44 769.422 3733.44 731.951 3762.7 706.342L4078.53 433.171C4103.61 412.553 4160.19 382.194 4216.28 391.648ZM4794.48 2289.67L4794.61 2289.68L4698.16 2378C4679.11 2395.37 4664.87 2401.71 4646.46 2394.19C4628.89 2387.46 4632.67 2357.41 4632.09 2341.94V1901.04C4631.97 1856.14 4661.03 1820.1 4676.01 1801.53L4676.41 1801.03L4762.31 1708.42C4762.31 1708.42 4787.16 1678.65 4811.99 1681.26C4835.89 1683.77 4846.32 1698.87 4846.32 1728.37V2180.84C4845.65 2235.91 4810.11 2275.58 4794.48 2289.67ZM4123.74 773.423C4123.74 744.29 4111.16 735.418 4100.91 732.523C4087.05 728.607 4069.92 738.902 4055.66 751.767L3951.08 841.331C3935.69 856.602 3912.07 880.042 3912.68 940.482V1324.51C3913.69 1328.59 3912.68 1313.1 3912.68 1324.51C3913.94 1373.87 3925.88 1375.13 3936.81 1381.28C3947.75 1387.43 3971.11 1383.05 3994.18 1362.03L4091.75 1264.98C4114.83 1242.49 4123.74 1224.42 4123.74 1192.28V773.423ZM3912.68 2196.24C3912.68 2231.24 3925.88 2247.65 3942.28 2249.35C3962.67 2251.46 3979.08 2230.72 3995.49 2213.94L4234.28 1955.2C4250.59 1935.75 4252.46 1924.7 4250.09 1913.2C4248.15 1905.38 4232.69 1887.32 4214.29 1885.38L3977.81 1859.53C3922.46 1854.36 3912.51 1893.78 3912.68 1938.24V2196.24Z" fill="white" style="fill:white;fill-opacity:1;"/>
<path fill-rule="evenodd" clip-rule="evenodd" d="M4216.28 391.648C4266.48 400.111 4334.8 451.752 4334.8 517.407V1060.11C4334.8 1179.11 4376.89 1230 4503.19 1243.27L4779.17 1272.28C4918.44 1290.11 5059.03 1410.23 5059.03 1587.55V2156.59C5059.03 2279.58 5033.79 2363.98 4977.06 2414.25L4632.09 2707.44C4543.76 2762.81 4425.01 2745.18 4421.03 2585.26V2254.19C4421.98 2224.71 4374.54 2161.81 4323.22 2219.81L3965.19 2590.73C3919.35 2636.79 3847.44 2660.61 3799.07 2641.3C3750.71 2621.98 3701.63 2590.06 3701.63 2473.06V839.011C3701.44 769.422 3733.44 731.951 3762.7 706.342L4078.53 433.171C4103.61 412.553 4160.19 382.194 4216.28 391.648ZM4794.48 2289.67L4794.61 2289.68L4698.16 2378C4679.11 2395.37 4664.87 2401.71 4646.46 2394.19C4628.89 2387.46 4632.67 2357.41 4632.09 2341.94V1901.04C4631.97 1856.14 4661.03 1820.1 4676.01 1801.53L4676.41 1801.03L4762.31 1708.42C4762.31 1708.42 4787.16 1678.65 4811.99 1681.26C4835.89 1683.77 4846.32 1698.87 4846.32 1728.37V2180.84C4845.65 2235.91 4810.11 2275.58 4794.48 2289.67ZM4123.74 773.423C4123.74 744.29 4111.16 735.418 4100.91 732.523C4087.05 728.607 4069.92 738.902 4055.66 751.767L3951.08 841.331C3935.69 856.602 3912.07 880.042 3912.68 940.482V1324.51C3913.69 1328.59 3912.68 1313.1 3912.68 1324.51C3913.94 1373.87 3925.88 1375.13 3936.81 1381.28C3947.75 1387.43 3971.11 1383.05 3994.18 1362.03L4091.75 1264.98C4114.83 1242.49 4123.74 1224.42 4123.74 1192.28V773.423ZM3912.68 2196.24C3912.68 2231.24 3925.88 2247.65 3942.28 2249.35C3962.67 2251.46 3979.08 2230.72 3995.49 2213.94L4234.28 1955.2C4250.59 1935.75 4252.46 1924.7 4250.09 1913.2C4248.15 1905.38 4232.69 1887.32 4214.29 1885.38L3977.81 1859.53C3922.46 1854.36 3912.51 1893.78 3912.68 1938.24V2196.24Z" fill="black" style="fill:black;fill-opacity:1;"/>
<path fill-rule="evenodd" clip-rule="evenodd" d="M4216.28 391.648C4266.48 400.111 4334.8 451.752 4334.8 517.407V1060.11C4334.8 1179.11 4376.89 1230 4503.19 1243.27L4779.17 1272.28C4918.44 1290.11 5059.03 1410.23 5059.03 1587.55V2156.59C5059.03 2279.58 5033.79 2363.98 4977.06 2414.25L4632.09 2707.44C4543.76 2762.81 4425.01 2745.18 4421.03 2585.26V2254.19C4421.98 2224.71 4374.54 2161.81 4323.22 2219.81L3965.19 2590.73C3919.35 2636.79 3847.44 2660.61 3799.07 2641.3C3750.71 2621.98 3701.63 2590.06 3701.63 2473.06V839.011C3701.44 769.422 3733.44 731.951 3762.7 706.342L4078.53 433.171C4103.61 412.553 4160.19 382.194 4216.28 391.648ZM4794.48 2289.67L4794.61 2289.68L4698.16 2378C4679.11 2395.37 4664.87 2401.71 4646.46 2394.19C4628.89 2387.46 4632.67 2357.41 4632.09 2341.94V1901.04C4631.97 1856.14 4661.03 1820.1 4676.01 1801.53L4676.41 1801.03L4762.31 1708.42C4762.31 1708.42 4787.16 1678.65 4811.99 1681.26C4835.89 1683.77 4846.32 1698.87 4846.32 1728.37V2180.84C4845.65 2235.91 4810.11 2275.58 4794.48 2289.67ZM4123.74 773.423C4123.74 744.29 4111.16 735.418 4100.91 732.523C4087.05 728.607 4069.92 738.902 4055.66 751.767L3951.08 841.331C3935.69 856.602 3912.07 880.042 3912.68 940.482V1324.51C3913.69 1328.59 3912.68 1313.1 3912.68 1324.51C3913.94 1373.87 3925.88 1375.13 3936.81 1381.28C3947.75 1387.43 3971.11 1383.05 3994.18 1362.03L4091.75 1264.98C4114.83 1242.49 4123.74 1224.42 4123.74 1192.28V773.423ZM3912.68 2196.24C3912.68 2231.24 3925.88 2247.65 3942.28 2249.35C3962.67 2251.46 3979.08 2230.72 3995.49 2213.94L4234.28 1955.2C4250.59 1935.75 4252.46 1924.7 4250.09 1913.2C4248.15 1905.38 4232.69 1887.32 4214.29 1885.38L3977.81 1859.53C3922.46 1854.36 3912.51 1893.78 3912.68 1938.24V2196.24Z" fill="url(#paint1_linear_1695_2)" style=""/>
<path fill-rule="evenodd" clip-rule="evenodd" d="M5716.51 545.83C5771.71 551.631 5823.23 588.289 5823.23 655.187L5823.24 1273.1C5823.24 1364.87 5888.77 1389.82 5922.96 1393.06L6356.68 1436.17C6456.83 1449.87 6548.04 1570.61 6445.7 1680.31L6107.89 2049.06C6055.63 2090.85 6002.51 2095.22 5917.44 2087.74C5877.11 2086.15 5823.23 2121.29 5823.23 2199.29V2359.91C5822.27 2444.35 5789.9 2492.77 5756.44 2526.08L5494.39 2780.61C5456.41 2818.56 5380.33 2820.64 5356.72 2818.3C5291.86 2811.87 5208.63 2770.79 5208.63 2624.24L5207.77 1052.31C5207.77 941.989 5274.06 861.924 5299.91 839.847L5576.28 607.591C5603.53 583.128 5650.87 538.931 5716.51 545.83ZM6169.02 1574.89L5883.07 1549.45C5835.73 1544.24 5789.46 1561.92 5773.3 1574.89L5618.72 1734.06C5591.9 1757.91 5589.95 1773.63 5596.03 1792.14C5600.32 1805.52 5623.85 1820.22 5643.41 1821.83L5920.84 1850.99C5951.35 1853.6 5973.82 1845.12 5990.73 1830.84L6190.4 1646.86C6206.66 1630.21 6209.3 1611.62 6204.32 1599.6C6199.88 1588.85 6190.4 1577.14 6169.02 1574.89ZM5600.71 1429.97L5497.71 1532.42C5475.25 1552.78 5451.32 1565.43 5435.98 1557.55C5421.41 1548.16 5419.04 1535.44 5418.82 1500.83L5419.26 1087.39C5419.26 1025.29 5467.78 984.902 5467.78 984.902L5563.32 901.407C5579.07 888.415 5596.54 885.041 5607.35 889.396C5614.7 892.01 5631.27 901.823 5629.88 924.923V1355.69C5629.83 1387.21 5613.39 1412.23 5600.71 1429.97Z" fill="white" style="fill:white;fill-opacity:1;"/>
<path fill-rule="evenodd" clip-rule="evenodd" d="M5716.51 545.83C5771.71 551.631 5823.23 588.289 5823.23 655.187L5823.24 1273.1C5823.24 1364.87 5888.77 1389.82 5922.96 1393.06L6356.68 1436.17C6456.83 1449.87 6548.04 1570.61 6445.7 1680.31L6107.89 2049.06C6055.63 2090.85 6002.51 2095.22 5917.44 2087.74C5877.11 2086.15 5823.23 2121.29 5823.23 2199.29V2359.91C5822.27 2444.35 5789.9 2492.77 5756.44 2526.08L5494.39 2780.61C5456.41 2818.56 5380.33 2820.64 5356.72 2818.3C5291.86 2811.87 5208.63 2770.79 5208.63 2624.24L5207.77 1052.31C5207.77 941.989 5274.06 861.924 5299.91 839.847L5576.28 607.591C5603.53 583.128 5650.87 538.931 5716.51 545.83ZM6169.02 1574.89L5883.07 1549.45C5835.73 1544.24 5789.46 1561.92 5773.3 1574.89L5618.72 1734.06C5591.9 1757.91 5589.95 1773.63 5596.03 1792.14C5600.32 1805.52 5623.85 1820.22 5643.41 1821.83L5920.84 1850.99C5951.35 1853.6 5973.82 1845.12 5990.73 1830.84L6190.4 1646.86C6206.66 1630.21 6209.3 1611.62 6204.32 1599.6C6199.88 1588.85 6190.4 1577.14 6169.02 1574.89ZM5600.71 1429.97L5497.71 1532.42C5475.25 1552.78 5451.32 1565.43 5435.98 1557.55C5421.41 1548.16 5419.04 1535.44 5418.82 1500.83L5419.26 1087.39C5419.26 1025.29 5467.78 984.902 5467.78 984.902L5563.32 901.407C5579.07 888.415 5596.54 885.041 5607.35 889.396C5614.7 892.01 5631.27 901.823 5629.88 924.923V1355.69C5629.83 1387.21 5613.39 1412.23 5600.71 1429.97Z" fill="black" style="fill:black;fill-opacity:1;"/>
<path fill-rule="evenodd" clip-rule="evenodd" d="M5716.51 545.83C5771.71 551.631 5823.23 588.289 5823.23 655.187L5823.24 1273.1C5823.24 1364.87 5888.77 1389.82 5922.96 1393.06L6356.68 1436.17C6456.83 1449.87 6548.04 1570.61 6445.7 1680.31L6107.89 2049.06C6055.63 2090.85 6002.51 2095.22 5917.44 2087.74C5877.11 2086.15 5823.23 2121.29 5823.23 2199.29V2359.91C5822.27 2444.35 5789.9 2492.77 5756.44 2526.08L5494.39 2780.61C5456.41 2818.56 5380.33 2820.64 5356.72 2818.3C5291.86 2811.87 5208.63 2770.79 5208.63 2624.24L5207.77 1052.31C5207.77 941.989 5274.06 861.924 5299.91 839.847L5576.28 607.591C5603.53 583.128 5650.87 538.931 5716.51 545.83ZM6169.02 1574.89L5883.07 1549.45C5835.73 1544.24 5789.46 1561.92 5773.3 1574.89L5618.72 1734.06C5591.9 1757.91 5589.95 1773.63 5596.03 1792.14C5600.32 1805.52 5623.85 1820.22 5643.41 1821.83L5920.84 1850.99C5951.35 1853.6 5973.82 1845.12 5990.73 1830.84L6190.4 1646.86C6206.66 1630.21 6209.3 1611.62 6204.32 1599.6C6199.88 1588.85 6190.4 1577.14 6169.02 1574.89ZM5600.71 1429.97L5497.71 1532.42C5475.25 1552.78 5451.32 1565.43 5435.98 1557.55C5421.41 1548.16 5419.04 1535.44 5418.82 1500.83L5419.26 1087.39C5419.26 1025.29 5467.78 984.902 5467.78 984.902L5563.32 901.407C5579.07 888.415 5596.54 885.041 5607.35 889.396C5614.7 892.01 5631.27 901.823 5629.88 924.923V1355.69C5629.83 1387.21 5613.39 1412.23 5600.71 1429.97Z" fill="url(#paint2_linear_1695_2)" style=""/>
<path fill-rule="evenodd" clip-rule="evenodd" d="M3485.66 2286.84C3514.26 2260.96 3569.01 2180.63 3574.98 2036.42V1481.75C3574.98 1296.19 3459.94 1134.82 3273.02 1115.17L2793.41 1064.76C2718.71 1059.28 2621.01 1084.74 2554.93 1147.03L2324.69 1372.84C2256.62 1446.61 2224.26 1518.78 2224.26 1633.28V2193.28C2224.26 2343.19 2355.53 2507.51 2495.26 2522.2L2757.68 2549.78C2872.68 2560.87 2810.52 2654.9 2769.18 2694.84L2769.24 2694.78L2769.23 2694.79L2769.18 2694.84C2728.99 2739.15 2675.68 2799.45 2639.46 2837.92C2591.05 2889.33 2622.78 2944.17 2683.72 2950.57L2772.73 2959.93C2799.8 2963.01 2855.27 2942.6 2910.47 2888.9C2965.66 2835.2 3485.66 2286.84 3485.66 2286.84ZM3330.82 2113.45L3273.02 2173.79C3252.94 2192.06 3240 2202.04 3219.76 2199.91C3203.85 2198.24 3196.44 2184.8 3196.44 2160.46L3196.58 1752.12C3196.84 1712.13 3219.44 1678.47 3234.61 1660.05L3282.58 1610.13C3300.96 1591.98 3309.27 1577.32 3329.66 1579.46C3350.05 1581.6 3363.53 1595.87 3363.67 1622.54V2029.54C3363.62 2066.97 3345.3 2094.47 3330.82 2113.45ZM3196.89 1320.51C3186.51 1304.46 3162.58 1298.82 3139.71 1296.42L2769.95 1257.56C2738.45 1258.02 2708.85 1270.89 2694.25 1285.97L2574.36 1409.85C2556.11 1428.42 2552.41 1449.86 2562.88 1465.37C2572.39 1479.46 2594.21 1492.55 2615.59 1494.8C2636.97 1497.05 2955.44 1530.52 2955.44 1530.52C2997.68 1535.17 3039.1 1517.98 3053.79 1504.14L3181.97 1372.44C3194.33 1358.64 3210.43 1341.43 3196.89 1320.51Z" fill="white" style="fill:white;fill-opacity:1;"/>
<path fill-rule="evenodd" clip-rule="evenodd" d="M3485.66 2286.84C3514.26 2260.96 3569.01 2180.63 3574.98 2036.42V1481.75C3574.98 1296.19 3459.94 1134.82 3273.02 1115.17L2793.41 1064.76C2718.71 1059.28 2621.01 1084.74 2554.93 1147.03L2324.69 1372.84C2256.62 1446.61 2224.26 1518.78 2224.26 1633.28V2193.28C2224.26 2343.19 2355.53 2507.51 2495.26 2522.2L2757.68 2549.78C2872.68 2560.87 2810.52 2654.9 2769.18 2694.84L2769.24 2694.78L2769.23 2694.79L2769.18 2694.84C2728.99 2739.15 2675.68 2799.45 2639.46 2837.92C2591.05 2889.33 2622.78 2944.17 2683.72 2950.57L2772.73 2959.93C2799.8 2963.01 2855.27 2942.6 2910.47 2888.9C2965.66 2835.2 3485.66 2286.84 3485.66 2286.84ZM3330.82 2113.45L3273.02 2173.79C3252.94 2192.06 3240 2202.04 3219.76 2199.91C3203.85 2198.24 3196.44 2184.8 3196.44 2160.46L3196.58 1752.12C3196.84 1712.13 3219.44 1678.47 3234.61 1660.05L3282.58 1610.13C3300.96 1591.98 3309.27 1577.32 3329.66 1579.46C3350.05 1581.6 3363.53 1595.87 3363.67 1622.54V2029.54C3363.62 2066.97 3345.3 2094.47 3330.82 2113.45ZM3196.89 1320.51C3186.51 1304.46 3162.58 1298.82 3139.71 1296.42L2769.95 1257.56C2738.45 1258.02 2708.85 1270.89 2694.25 1285.97L2574.36 1409.85C2556.11 1428.42 2552.41 1449.86 2562.88 1465.37C2572.39 1479.46 2594.21 1492.55 2615.59 1494.8C2636.97 1497.05 2955.44 1530.52 2955.44 1530.52C2997.68 1535.17 3039.1 1517.98 3053.79 1504.14L3181.97 1372.44C3194.33 1358.64 3210.43 1341.43 3196.89 1320.51Z" fill="black" style="fill:black;fill-opacity:1;"/>
<path fill-rule="evenodd" clip-rule="evenodd" d="M3485.66 2286.84C3514.26 2260.96 3569.01 2180.63 3574.98 2036.42V1481.75C3574.98 1296.19 3459.94 1134.82 3273.02 1115.17L2793.41 1064.76C2718.71 1059.28 2621.01 1084.74 2554.93 1147.03L2324.69 1372.84C2256.62 1446.61 2224.26 1518.78 2224.26 1633.28V2193.28C2224.26 2343.19 2355.53 2507.51 2495.26 2522.2L2757.68 2549.78C2872.68 2560.87 2810.52 2654.9 2769.18 2694.84L2769.24 2694.78L2769.23 2694.79L2769.18 2694.84C2728.99 2739.15 2675.68 2799.45 2639.46 2837.92C2591.05 2889.33 2622.78 2944.17 2683.72 2950.57L2772.73 2959.93C2799.8 2963.01 2855.27 2942.6 2910.47 2888.9C2965.66 2835.2 3485.66 2286.84 3485.66 2286.84ZM3330.82 2113.45L3273.02 2173.79C3252.94 2192.06 3240 2202.04 3219.76 2199.91C3203.85 2198.24 3196.44 2184.8 3196.44 2160.46L3196.58 1752.12C3196.84 1712.13 3219.44 1678.47 3234.61 1660.05L3282.58 1610.13C3300.96 1591.98 3309.27 1577.32 3329.66 1579.46C3350.05 1581.6 3363.53 1595.87 3363.67 1622.54V2029.54C3363.62 2066.97 3345.3 2094.47 3330.82 2113.45ZM3196.89 1320.51C3186.51 1304.46 3162.58 1298.82 3139.71 1296.42L2769.95 1257.56C2738.45 1258.02 2708.85 1270.89 2694.25 1285.97L2574.36 1409.85C2556.11 1428.42 2552.41 1449.86 2562.88 1465.37C2572.39 1479.46 2594.21 1492.55 2615.59 1494.8C2636.97 1497.05 2955.44 1530.52 2955.44 1530.52C2997.68 1535.17 3039.1 1517.98 3053.79 1504.14L3181.97 1372.44C3194.33 1358.64 3210.43 1341.43 3196.89 1320.51Z" fill="url(#paint3_linear_1695_2)" style=""/>
<path fill-rule="evenodd" clip-rule="evenodd" d="M1828.97 1021.91L1604.28 1224.44C1529.11 1292.82 1487.58 1413.96 1483.12 1473.21L1484.01 2230.73C1484.01 2377.28 1559.4 2416.21 1623.55 2426.3C1687.7 2436.38 1711.89 2416.13 1768.55 2364.56L2029.32 2108.94C2070.36 2070.13 2096.32 2015.65 2098.51 1885.48V1141.01C2090.46 1079.41 2057.2 990.742 1969.66 977.753C1900.02 971.272 1854.21 1001 1828.97 1021.91ZM1694.18 1511.86V2016.07C1695.02 2033.62 1695.66 2053.07 1709.58 2063.18C1723.51 2073.3 1743.37 2062.57 1755.83 2054.05L1835.1 1975.6C1835.1 1975.6 1887.96 1918.55 1887.46 1863.3V1378.38C1886.51 1354.2 1876.89 1333.06 1864.23 1327.94C1846.62 1321.39 1822.38 1333.76 1795.93 1355.33L1743.16 1402.91C1728.75 1415.88 1693.33 1458.93 1694.18 1511.86Z" fill="white" style="fill:white;fill-opacity:1;"/>
<path fill-rule="evenodd" clip-rule="evenodd" d="M1828.97 1021.91L1604.28 1224.44C1529.11 1292.82 1487.58 1413.96 1483.12 1473.21L1484.01 2230.73C1484.01 2377.28 1559.4 2416.21 1623.55 2426.3C1687.7 2436.38 1711.89 2416.13 1768.55 2364.56L2029.32 2108.94C2070.36 2070.13 2096.32 2015.65 2098.51 1885.48V1141.01C2090.46 1079.41 2057.2 990.742 1969.66 977.753C1900.02 971.272 1854.21 1001 1828.97 1021.91ZM1694.18 1511.86V2016.07C1695.02 2033.62 1695.66 2053.07 1709.58 2063.18C1723.51 2073.3 1743.37 2062.57 1755.83 2054.05L1835.1 1975.6C1835.1 1975.6 1887.96 1918.55 1887.46 1863.3V1378.38C1886.51 1354.2 1876.89 1333.06 1864.23 1327.94C1846.62 1321.39 1822.38 1333.76 1795.93 1355.33L1743.16 1402.91C1728.75 1415.88 1693.33 1458.93 1694.18 1511.86Z" fill="black" style="fill:black;fill-opacity:1;"/>
<path fill-rule="evenodd" clip-rule="evenodd" d="M1828.97 1021.91L1604.28 1224.44C1529.11 1292.82 1487.58 1413.96 1483.12 1473.21L1484.01 2230.73C1484.01 2377.28 1559.4 2416.21 1623.55 2426.3C1687.7 2436.38 1711.89 2416.13 1768.55 2364.56L2029.32 2108.94C2070.36 2070.13 2096.32 2015.65 2098.51 1885.48V1141.01C2090.46 1079.41 2057.2 990.742 1969.66 977.753C1900.02 971.272 1854.21 1001 1828.97 1021.91ZM1694.18 1511.86V2016.07C1695.02 2033.62 1695.66 2053.07 1709.58 2063.18C1723.51 2073.3 1743.37 2062.57 1755.83 2054.05L1835.1 1975.6C1835.1 1975.6 1887.96 1918.55 1887.46 1863.3V1378.38C1886.51 1354.2 1876.89 1333.06 1864.23 1327.94C1846.62 1321.39 1822.38 1333.76 1795.93 1355.33L1743.16 1402.91C1728.75 1415.88 1693.33 1458.93 1694.18 1511.86Z" fill="url(#paint4_linear_1695_2)" style=""/>
<path d="M1981.15 158.352C2061.65 176.212 2075.61 238.426 2074.86 291.077V537.651C2075.09 615.165 2027.24 675.775 1997.93 702.306L1768.27 895.877C1696.7 942.573 1620.57 945.655 1577.54 927.201C1534.51 907.747 1501.32 864.649 1500.06 772.389L1499.07 571.322C1499.07 487.994 1563.5 416.156 1599.89 388.401L1836.45 194.007C1860.39 176.858 1907.16 143.693 1981.15 158.352Z" fill="white" style="fill:white;fill-opacity:1;"/>
<path d="M1981.15 158.352C2061.65 176.212 2075.61 238.426 2074.86 291.077V537.651C2075.09 615.165 2027.24 675.775 1997.93 702.306L1768.27 895.877C1696.7 942.573 1620.57 945.655 1577.54 927.201C1534.51 907.747 1501.32 864.649 1500.06 772.389L1499.07 571.322C1499.07 487.994 1563.5 416.156 1599.89 388.401L1836.45 194.007C1860.39 176.858 1907.16 143.693 1981.15 158.352Z" fill="black" style="fill:black;fill-opacity:1;"/>
<path d="M1981.15 158.352C2061.65 176.212 2075.61 238.426 2074.86 291.077V537.651C2075.09 615.165 2027.24 675.775 1997.93 702.306L1768.27 895.877C1696.7 942.573 1620.57 945.655 1577.54 927.201C1534.51 907.747 1501.32 864.649 1500.06 772.389L1499.07 571.322C1499.07 487.994 1563.5 416.156 1599.89 388.401L1836.45 194.007C1860.39 176.858 1907.16 143.693 1981.15 158.352Z" fill="url(#paint5_linear_1695_2)" style=""/>
<path fill-rule="evenodd" clip-rule="evenodd" d="M633.236 154.056C633.236 56.8034 607.156 13.8063 525.108 5.18266L483.212 0.779264C439.118 0.876441 394.059 23.1039 370.957 40.4891L130.78 241.245C60.6658 309.34 0 393.5 0 564.5V1901.65C0 2245.15 228.039 2284.9 352.558 2299.48C352.558 2299.48 635.997 2329.27 762.798 2342.6C889.6 2355.93 989.294 2305.39 1073.59 2239.34L1243.65 2077.21C1355.75 1971.84 1355.75 1897.42 1355.75 1681.92V1235.74C1355.75 1022.39 1187.96 893.476 1030.82 876.96L733.539 845.715L733.63 845.635C699.443 842.399 633.172 803.004 633.171 711.242L633.236 154.056ZM1104.17 1896.24L1014.91 1987.17C984.577 2016.48 948.774 1991.22 948.774 1991.22C948.774 1991.22 926.481 1971.87 926.481 1932.38V1559.33C926.481 1514.5 955.795 1470.18 971.285 1453.68L1051.21 1380C1075.21 1358.13 1092.98 1344.5 1113.37 1350.64C1133.75 1356.78 1143.7 1369.39 1143.7 1396.72V1796.88C1144.24 1839.29 1120.02 1881.66 1104.17 1896.24ZM424.105 784.027C424.305 818.165 406.419 850.141 392.963 868.269L292.893 967.219C272.811 986.55 246.849 993.684 230.028 991.386C213.207 989.089 211.054 956.799 211.054 932.561L211.319 542.013C211.464 491.182 244.679 453.398 259.081 439.426L334.534 373.845L334.485 374.007C357.647 352.902 385.531 334.799 399.792 343.984C407.003 348.628 423.739 357.192 424.105 393.826V784.027ZM977.118 1111.7C972.219 1102.18 964.686 1088.83 921.922 1084.34L536.509 1043.83C505.01 1044.3 479.383 1057.58 464.784 1068.66L352.558 1183.18C334.303 1201.74 326.203 1222.41 334.657 1239.29C343.11 1256.18 360.81 1267.83 383.388 1270.2L732.94 1306.94C775.174 1311.59 816.601 1294.4 831.284 1280.56L974.342 1154.91C986.704 1141.11 982.016 1121.21 977.118 1111.7Z" fill="white" style="fill:white;fill-opacity:1;"/>
<path fill-rule="evenodd" clip-rule="evenodd" d="M633.236 154.056C633.236 56.8034 607.156 13.8063 525.108 5.18266L483.212 0.779264C439.118 0.876441 394.059 23.1039 370.957 40.4891L130.78 241.245C60.6658 309.34 0 393.5 0 564.5V1901.65C0 2245.15 228.039 2284.9 352.558 2299.48C352.558 2299.48 635.997 2329.27 762.798 2342.6C889.6 2355.93 989.294 2305.39 1073.59 2239.34L1243.65 2077.21C1355.75 1971.84 1355.75 1897.42 1355.75 1681.92V1235.74C1355.75 1022.39 1187.96 893.476 1030.82 876.96L733.539 845.715L733.63 845.635C699.443 842.399 633.172 803.004 633.171 711.242L633.236 154.056ZM1104.17 1896.24L1014.91 1987.17C984.577 2016.48 948.774 1991.22 948.774 1991.22C948.774 1991.22 926.481 1971.87 926.481 1932.38V1559.33C926.481 1514.5 955.795 1470.18 971.285 1453.68L1051.21 1380C1075.21 1358.13 1092.98 1344.5 1113.37 1350.64C1133.75 1356.78 1143.7 1369.39 1143.7 1396.72V1796.88C1144.24 1839.29 1120.02 1881.66 1104.17 1896.24ZM424.105 784.027C424.305 818.165 406.419 850.141 392.963 868.269L292.893 967.219C272.811 986.55 246.849 993.684 230.028 991.386C213.207 989.089 211.054 956.799 211.054 932.561L211.319 542.013C211.464 491.182 244.679 453.398 259.081 439.426L334.534 373.845L334.485 374.007C357.647 352.902 385.531 334.799 399.792 343.984C407.003 348.628 423.739 357.192 424.105 393.826V784.027ZM977.118 1111.7C972.219 1102.18 964.686 1088.83 921.922 1084.34L536.509 1043.83C505.01 1044.3 479.383 1057.58 464.784 1068.66L352.558 1183.18C334.303 1201.74 326.203 1222.41 334.657 1239.29C343.11 1256.18 360.81 1267.83 383.388 1270.2L732.94 1306.94C775.174 1311.59 816.601 1294.4 831.284 1280.56L974.342 1154.91C986.704 1141.11 982.016 1121.21 977.118 1111.7Z" fill="black" style="fill:black;fill-opacity:1;"/>
<path fill-rule="evenodd" clip-rule="evenodd" d="M633.236 154.056C633.236 56.8034 607.156 13.8063 525.108 5.18266L483.212 0.779264C439.118 0.876441 394.059 23.1039 370.957 40.4891L130.78 241.245C60.6658 309.34 0 393.5 0 564.5V1901.65C0 2245.15 228.039 2284.9 352.558 2299.48C352.558 2299.48 635.997 2329.27 762.798 2342.6C889.6 2355.93 989.294 2305.39 1073.59 2239.34L1243.65 2077.21C1355.75 1971.84 1355.75 1897.42 1355.75 1681.92V1235.74C1355.75 1022.39 1187.96 893.476 1030.82 876.96L733.539 845.715L733.63 845.635C699.443 842.399 633.172 803.004 633.171 711.242L633.236 154.056ZM1104.17 1896.24L1014.91 1987.17C984.577 2016.48 948.774 1991.22 948.774 1991.22C948.774 1991.22 926.481 1971.87 926.481 1932.38V1559.33C926.481 1514.5 955.795 1470.18 971.285 1453.68L1051.21 1380C1075.21 1358.13 1092.98 1344.5 1113.37 1350.64C1133.75 1356.78 1143.7 1369.39 1143.7 1396.72V1796.88C1144.24 1839.29 1120.02 1881.66 1104.17 1896.24ZM424.105 784.027C424.305 818.165 406.419 850.141 392.963 868.269L292.893 967.219C272.811 986.55 246.849 993.684 230.028 991.386C213.207 989.089 211.054 956.799 211.054 932.561L211.319 542.013C211.464 491.182 244.679 453.398 259.081 439.426L334.534 373.845L334.485 374.007C357.647 352.902 385.531 334.799 399.792 343.984C407.003 348.628 423.739 357.192 424.105 393.826V784.027ZM977.118 1111.7C972.219 1102.18 964.686 1088.83 921.922 1084.34L536.509 1043.83C505.01 1044.3 479.383 1057.58 464.784 1068.66L352.558 1183.18C334.303 1201.74 326.203 1222.41 334.657 1239.29C343.11 1256.18 360.81 1267.83 383.388 1270.2L732.94 1306.94C775.174 1311.59 816.601 1294.4 831.284 1280.56L974.342 1154.91C986.704 1141.11 982.016 1121.21 977.118 1111.7Z" fill="url(#paint6_linear_1695_2)" style=""/>
<defs>
<linearGradient id="paint0_linear_1695_2" x1="5747.45" y1="3497.21" x2="3932.01" y2="-489.893" gradientUnits="userSpaceOnUse">
<stop stop-color="#FFD900" style="stop-color:#FFD900;stop-color:color(display-p3 1.0000 0.8500 0.0000);stop-opacity:1;"/>
<stop offset="1" stop-color="#FF8D01" style="stop-color:#FF8D01;stop-color:color(display-p3 1.0000 0.5518 0.0039);stop-opacity:1;"/>
</linearGradient>
<linearGradient id="paint1_linear_1695_2" x1="5747.45" y1="3497.21" x2="3932.01" y2="-489.893" gradientUnits="userSpaceOnUse">
<stop stop-color="#FFD900" style="stop-color:#FFD900;stop-color:color(display-p3 1.0000 0.8500 0.0000);stop-opacity:1;"/>
<stop offset="1" stop-color="#FF8D01" style="stop-color:#FF8D01;stop-color:color(display-p3 1.0000 0.5518 0.0039);stop-opacity:1;"/>
</linearGradient>
<linearGradient id="paint2_linear_1695_2" x1="5747.45" y1="3497.21" x2="3932.01" y2="-489.893" gradientUnits="userSpaceOnUse">
<stop stop-color="#FFD900" style="stop-color:#FFD900;stop-color:color(display-p3 1.0000 0.8500 0.0000);stop-opacity:1;"/>
<stop offset="1" stop-color="#FF8D01" style="stop-color:#FF8D01;stop-color:color(display-p3 1.0000 0.5518 0.0039);stop-opacity:1;"/>
</linearGradient>
<linearGradient id="paint3_linear_1695_2" x1="5747.45" y1="3497.21" x2="3932.01" y2="-489.893" gradientUnits="userSpaceOnUse">
<stop stop-color="#FFD900" style="stop-color:#FFD900;stop-color:color(display-p3 1.0000 0.8500 0.0000);stop-opacity:1;"/>
<stop offset="1" stop-color="#FF8D01" style="stop-color:#FF8D01;stop-color:color(display-p3 1.0000 0.5518 0.0039);stop-opacity:1;"/>
</linearGradient>
<linearGradient id="paint4_linear_1695_2" x1="5747.45" y1="3497.21" x2="3932.01" y2="-489.893" gradientUnits="userSpaceOnUse">
<stop stop-color="#FFD900" style="stop-color:#FFD900;stop-color:color(display-p3 1.0000 0.8500 0.0000);stop-opacity:1;"/>
<stop offset="1" stop-color="#FF8D01" style="stop-color:#FF8D01;stop-color:color(display-p3 1.0000 0.5518 0.0039);stop-opacity:1;"/>
</linearGradient>
<linearGradient id="paint5_linear_1695_2" x1="5747.45" y1="3497.21" x2="3932.01" y2="-489.893" gradientUnits="userSpaceOnUse">
<stop stop-color="#FFD900" style="stop-color:#FFD900;stop-color:color(display-p3 1.0000 0.8500 0.0000);stop-opacity:1;"/>
<stop offset="1" stop-color="#FF8D01" style="stop-color:#FF8D01;stop-color:color(display-p3 1.0000 0.5518 0.0039);stop-opacity:1;"/>
</linearGradient>
<linearGradient id="paint6_linear_1695_2" x1="5747.45" y1="3497.21" x2="3932.01" y2="-489.893" gradientUnits="userSpaceOnUse">
<stop stop-color="#FFD900" style="stop-color:#FFD900;stop-color:color(display-p3 1.0000 0.8500 0.0000);stop-opacity:1;"/>
<stop offset="1" stop-color="#FF8D01" style="stop-color:#FF8D01;stop-color:color(display-p3 1.0000 0.5518 0.0039);stop-opacity:1;"/>
</linearGradient>
</defs>
</svg>
