<svg width="6776" height="2724" viewBox="0 0 6776 2724" fill="none" xmlns="http://www.w3.org/2000/svg">
<path fill-rule="evenodd" clip-rule="evenodd" d="M5996.89 0.496094C6052.4 0.496094 6104.2 31.739 6104.2 98.6372L6104.21 716.552C6104.21 808.314 6170.1 826.386 6204.48 826.029L6640.58 823.552C6741.29 826.725 6833 937.881 6730.1 1058.33L6390.42 1462.59C6337.88 1509.88 6284.46 1519.82 6198.93 1521.29C6158.37 1523.93 6104.2 1564.74 6104.2 1642.74V1803.35C6103.23 1887.9 6070.69 1939.72 6037.04 1976.55L5773.54 2258.63C5735.35 2300.57 5658.86 2310.64 5635.12 2310.78C5569.9 2311.17 5486.21 2278.83 5486.21 2132.29L5485.34 560.452C5485.34 450.127 5552 363.094 5578 338.3L5855.89 76.9961C5883.29 49.669 5930.89 0.496094 5996.89 0.496094Z" fill="url(#paint0_angular_1878_97)" style=""/>
<path fill-rule="evenodd" clip-rule="evenodd" d="M4439.83 3.7394C4490.3 6.92545 4559 51.3858 4559 117.04V659.739C4559 778.739 4601.33 825.209 4728.33 825.209H5005.83C5145.86 828.405 5287.22 933.74 5287.22 1111.07V1680.1C5287.22 1803.1 5261.84 1890.15 5204.8 1946.38L4857.93 2275.83C4769.12 2340.49 4649.71 2335.33 4645.71 2175.83V1844.76C4646.67 1815.18 4598.96 1757.27 4547.36 1820.66L4187.36 2229.22C4141.26 2280.09 4068.96 2311.47 4020.33 2297.24C3971.69 2283.01 3922.34 2256.24 3922.34 2139.24V505.193C3922.16 435.624 3954.33 394.79 3983.75 366.106L4301.33 59.7393C4326.54 36.4859 4383.43 0.179847 4439.83 3.7394Z" fill="url(#paint1_angular_1878_97)" style=""/>
<path fill-rule="evenodd" clip-rule="evenodd" d="M3641.7 1975.81C3670.45 1946.93 3725.5 1860.84 3731.51 1716.01V1161.33C3731.51 975.773 3615.84 826.496 3427.89 826.496H2945.63C2870.52 828.86 2772.28 864.594 2705.84 933.831L2474.34 1183.83C2405.89 1264.76 2373.34 1340.33 2373.34 1454.83V2014.83C2373.34 2164.74 2505.34 2315.27 2645.84 2315.27H2909.7C3025.34 2314.27 2962.84 2414.83 2921.27 2459.12L2921.33 2459.05L2921.32 2459.06L2921.27 2459.12C2880.85 2507.65 2827.26 2573.55 2790.84 2615.83C2742.16 2672.33 2774.06 2723.83 2835.34 2723.83H2924.84C2952.06 2724.07 3007.84 2697.83 3063.34 2638.33C3118.84 2578.83 3641.7 1975.81 3641.7 1975.81Z" fill="url(#paint2_angular_1878_97)" style=""/>
<path fill-rule="evenodd" clip-rule="evenodd" d="M1909.1 885.439L1683.17 1111.59C1607.59 1187.87 1565.82 1313.38 1561.34 1373.09L1562.24 2130.52C1562.24 2277.06 1638.05 2308.07 1702.55 2311.42C1767.05 2314.76 1791.38 2291.97 1848.34 2234.45L2110.55 1951.42C2151.81 1908.29 2177.92 1851.08 2180.13 1720.68V976.206C2172.03 915.461 2138.58 830.286 2050.57 826.496C1980.54 827.335 1934.48 861.877 1909.1 885.439Z" fill="url(#paint3_angular_1878_97)" style=""/>
<path d="M2046.08 4.31723C2127.02 13.717 2141.06 74.4627 2140.31 127.192V373.766C2140.53 451.257 2092.43 516.895 2062.95 546.508L1832.03 764.216C1760.06 818.434 1683.52 829.518 1640.25 815.586C1596.98 800.655 1563.6 761.047 1562.34 668.918L1561.34 467.956C1561.34 384.627 1626.13 306.018 1662.72 274.437L1900.59 55.1801C1924.66 35.5146 1971.68 -2.56526 2046.08 4.31723Z" fill="url(#paint4_angular_1878_97)" style=""/>
<path fill-rule="evenodd" clip-rule="evenodd" d="M637.068 142.997C637.068 45.7444 610.844 5.48828 528.344 5.48828H486.218C441.881 10.2199 396.574 37.1832 373.344 56.9966L131.844 282.997C61.3438 358.46 0.34375 448.996 0.34375 619.996V1957.15C0.34375 2300.65 229.638 2316.43 354.844 2317.92C354.844 2317.92 639.843 2317.92 767.343 2317.92C894.843 2317.92 995.087 2256.9 1079.84 2182L1250.84 2002C1363.56 1884.84 1363.56 1810.42 1363.56 1594.92V1148.74C1363.56 935.388 1194.84 824.113 1036.84 824.113H737.923L738.014 824.024C703.639 824.381 637.003 791.951 637.002 700.189L637.068 142.997Z" fill="url(#paint5_angular_1878_97)" style=""/>
<path fill-rule="evenodd" clip-rule="evenodd" d="M637.068 142.997C637.068 45.7444 610.844 5.48828 528.344 5.48828H486.218C441.881 10.2199 396.574 37.1832 373.344 56.9966L131.844 282.997C61.3438 358.46 0.34375 448.996 0.34375 619.996V1957.15C0.34375 2300.65 229.638 2316.43 354.844 2317.92C354.844 2317.92 639.843 2317.92 767.343 2317.92C894.843 2317.92 995.087 2256.9 1079.84 2182L1250.84 2002C1363.56 1884.84 1363.56 1810.42 1363.56 1594.92V1148.74C1363.56 935.388 1194.84 824.113 1036.84 824.113H737.923L738.014 824.024C703.639 824.381 637.003 791.951 637.002 700.189L637.068 142.997Z" fill="url(#paint6_angular_1878_97)" style=""/>
<defs>
<radialGradient id="paint0_angular_1878_97" cx="0" cy="0" r="1" gradientUnits="userSpaceOnUse" gradientTransform="translate(6008.89 1198) rotate(179.736) scale(1411.01 1430.82)">
<stop stop-color="#FFE100" style="stop-color:#FFE100;stop-color:color(display-p3 1.0000 0.8824 0.0000);stop-opacity:1;"/>
<stop offset="1" stop-color="#FF6F00" style="stop-color:#FF6F00;stop-color:color(display-p3 1.0000 0.4353 0.0000);stop-opacity:1;"/>
</radialGradient>
<radialGradient id="paint1_angular_1878_97" cx="0" cy="0" r="1" gradientUnits="userSpaceOnUse" gradientTransform="translate(4639.83 1378.23) rotate(89.7858) scale(1058.54 1257.34)">
<stop stop-color="#FF6F00" style="stop-color:#FF6F00;stop-color:color(display-p3 1.0000 0.4353 0.0000);stop-opacity:1;"/>
<stop offset="1" stop-color="#FFE100" style="stop-color:#FFE100;stop-color:color(display-p3 1.0000 0.8824 0.0000);stop-opacity:1;"/>
</radialGradient>
<radialGradient id="paint2_angular_1878_97" cx="0" cy="0" r="1" gradientUnits="userSpaceOnUse" gradientTransform="translate(3052.84 1654.33) rotate(130.984) scale(1135.93 1511.8)">
<stop stop-color="#FFE100" style="stop-color:#FFE100;stop-color:color(display-p3 1.0000 0.8824 0.0000);stop-opacity:1;"/>
<stop offset="1" stop-color="#FF6F00" style="stop-color:#FF6F00;stop-color:color(display-p3 1.0000 0.4353 0.0000);stop-opacity:1;"/>
</radialGradient>
<radialGradient id="paint3_angular_1878_97" cx="0" cy="0" r="1" gradientUnits="userSpaceOnUse" gradientTransform="translate(1871.05 1645.26) rotate(-90) scale(1018.5 710.89)">
<stop stop-color="#FFE100" style="stop-color:#FFE100;stop-color:color(display-p3 1.0000 0.8824 0.0000);stop-opacity:1;"/>
<stop offset="1" stop-color="#FF6F00" style="stop-color:#FF6F00;stop-color:color(display-p3 1.0000 0.4353 0.0000);stop-opacity:1;"/>
</radialGradient>
<radialGradient id="paint4_angular_1878_97" cx="0" cy="0" r="1" gradientUnits="userSpaceOnUse" gradientTransform="translate(1840.28 420.143) rotate(-41.745) scale(626.227 560.891)">
<stop stop-color="#FF6F00" style="stop-color:#FF6F00;stop-color:color(display-p3 1.0000 0.4353 0.0000);stop-opacity:1;"/>
<stop offset="1" stop-color="#FFE100" style="stop-color:#FFE100;stop-color:color(display-p3 1.0000 0.8824 0.0000);stop-opacity:1;"/>
</radialGradient>
<radialGradient id="paint5_angular_1878_97" cx="0" cy="0" r="1" gradientUnits="userSpaceOnUse" gradientTransform="translate(642.852 1597.5) rotate(-90.2599) scale(1659.21 1799.64)">
<stop stop-color="#FF6F00" style="stop-color:#FF6F00;stop-color:color(display-p3 1.0000 0.4353 0.0000);stop-opacity:1;"/>
<stop offset="1" stop-color="#FFE100" style="stop-color:#FFE100;stop-color:color(display-p3 1.0000 0.8824 0.0000);stop-opacity:1;"/>
</radialGradient>
<radialGradient id="paint6_angular_1878_97" cx="0" cy="0" r="1" gradientUnits="userSpaceOnUse" gradientTransform="translate(642.852 1597.5) rotate(-90.2599) scale(1659.21 1799.64)">
<stop stop-color="#FF6F00" style="stop-color:#FF6F00;stop-color:color(display-p3 1.0000 0.4353 0.0000);stop-opacity:1;"/>
<stop offset="1" stop-color="#FFE100" style="stop-color:#FFE100;stop-color:color(display-p3 1.0000 0.8824 0.0000);stop-opacity:1;"/>
</radialGradient>
</defs>
</svg>
