<svg width="664" height="664" viewBox="0 0 664 664" fill="none" xmlns="http://www.w3.org/2000/svg">
<rect width="664" height="664" rx="332" fill="black" style="fill:black;fill-opacity:1;"/>
<path d="M488.624 462.696C448.286 493.806 419.042 506.551 373.224 517.126C298.121 534.46 182.283 491.745 155.296 383.098C127.167 269.852 181.841 174.215 286.271 150.112C327.514 140.593 399.367 143.868 444.255 196.259C524.197 289.565 475.988 418.952 366.257 441.328C321.82 451.584 266.738 428.053 248.876 397.102C215.22 338.783 231.34 291.819 252.476 265.348C273.613 238.877 314.412 224.756 341.624 232.204C355.58 236.024 375.59 245.051 390.423 271.166C405.666 293.344 404.227 364.911 349.758 361.102C332.694 359.909 313.864 344.632 315.648 319.128" stroke="white" style="stroke:white;stroke-opacity:1;" stroke-width="35" stroke-linecap="round" stroke-linejoin="round"/>
</svg>
