<svg width="405" height="433" viewBox="0 0 405 433" fill="none" xmlns="http://www.w3.org/2000/svg">
<path d="M381.939 335.579C341.391 380.139 294.468 398.179 240.562 407.681C164.655 421.061 49.472 384.371 27.1853 262.716C4.89873 141.061 69.466 44.2513 175.014 25.6469C216.699 18.2992 286.881 27.1488 330.728 84.03C415.42 193.898 337.476 310.132 226.724 326.734C181.811 334.651 138.197 307.091 121.98 275.248C89.7834 212.031 115.539 166.743 138.032 141.415C160.526 116.086 198.525 105.746 225.31 114.608C239.047 119.153 257.823 126.139 271.269 152.995C277.435 165.309 281.059 190.679 266.31 208.501" stroke="white" style="stroke:white;stroke-opacity:1;" stroke-width="45" stroke-linecap="round" stroke-linejoin="round"/>
</svg>
