<svg width="411" height="433" viewBox="0 0 411 433" fill="none" xmlns="http://www.w3.org/2000/svg">
<path d="M365.514 317.052C339.935 345.588 313.483 364.52 272.888 376.928C206.346 397.268 91.9488 377.601 58.5958 271.049C27.1306 170.528 71.98 75.6798 164.505 47.398C201.047 36.2284 261.429 31.962 306.974 78.1041C389.377 161.587 351.38 278.455 253.972 305.515C214.6 317.55 163.515 299.828 145.481 273.08C111.5 222.681 123.059 179.373 140.426 154.204C157.794 129.034 193.645 113.749 218.62 118.742C231.428 121.303 250.017 128.173 265.019 150.756C277.717 171.146 281.508 239.81 232.256 241.53C210.153 242.302 195.182 229.274 194.284 203.562" stroke="white" style="stroke:white;stroke-opacity:1;" stroke-width="30" stroke-linecap="round" stroke-linejoin="round"/>
<path d="M365.514 317.052C339.935 345.588 313.483 364.52 272.888 376.928C206.346 397.268 91.9488 377.601 58.5958 271.049C27.1306 170.528 71.98 75.6798 164.505 47.398C201.047 36.2284 261.429 31.962 306.974 78.1041C389.377 161.587 351.38 278.455 253.972 305.515C214.6 317.55 163.515 299.828 145.481 273.08C111.5 222.681 123.059 179.373 140.426 154.204C157.794 129.034 193.645 113.749 218.62 118.742C231.428 121.303 250.017 128.173 265.019 150.756C277.717 171.146 281.508 239.81 232.256 241.53C210.153 242.302 195.182 229.274 194.284 203.562" stroke="black" style="stroke:black;stroke-opacity:1;" stroke-width="30" stroke-linecap="round" stroke-linejoin="round"/>
<path d="M365.514 317.052C339.935 345.588 313.483 364.52 272.888 376.928C206.346 397.268 91.9488 377.601 58.5958 271.049C27.1306 170.528 71.98 75.6798 164.505 47.398C201.047 36.2284 261.429 31.962 306.974 78.1041C389.377 161.587 351.38 278.455 253.972 305.515C214.6 317.55 163.515 299.828 145.481 273.08C111.5 222.681 123.059 179.373 140.426 154.204C157.794 129.034 193.645 113.749 218.62 118.742C231.428 121.303 250.017 128.173 265.019 150.756C277.717 171.146 281.508 239.81 232.256 241.53C210.153 242.302 195.182 229.274 194.284 203.562" stroke="black" style="stroke:black;stroke-opacity:1;" stroke-width="30" stroke-linecap="round" stroke-linejoin="round"/>
</svg>
