<svg width="431" height="457" viewBox="0 0 431 457" fill="none" xmlns="http://www.w3.org/2000/svg">
<path d="M383.624 355.696C343.286 386.806 314.042 399.551 268.224 410.126C193.121 427.46 77.2829 384.745 50.296 276.098C22.1667 162.852 76.841 67.2147 181.271 43.1118C222.514 33.5925 294.367 36.8678 339.255 89.259C419.197 182.565 370.988 311.952 261.257 334.328C216.82 344.584 161.738 321.053 143.876 290.102C110.22 231.783 126.34 184.819 147.476 158.348C168.613 131.877 209.412 117.756 236.624 125.204C250.58 129.024 270.59 138.051 285.423 164.166C300.666 186.344 299.227 257.911 244.758 254.102C227.694 252.909 208.864 237.632 210.648 212.128" stroke="#001EFF" style="stroke:#001EFF;stroke:color(display-p3 0.0000 0.1176 1.0000);stroke-opacity:1;" stroke-width="35" stroke-linecap="round" stroke-linejoin="round"/>
</svg>
