<svg width="664" height="664" viewBox="0 0 664 664" fill="none" xmlns="http://www.w3.org/2000/svg">
<rect width="664" height="664" rx="332" fill="black" style="fill:black;fill-opacity:1;"/>
<path d="M501.939 450.579C461.391 495.139 414.468 513.179 360.562 522.681C284.655 536.061 169.472 499.371 147.185 377.716C124.899 256.061 189.466 159.251 295.014 140.647C336.699 133.299 406.881 142.149 450.728 199.03C535.42 308.898 457.476 425.132 346.724 441.734C301.811 449.651 258.197 422.091 241.98 390.248C209.783 327.031 235.539 281.743 258.032 256.415C280.526 231.086 318.525 220.746 345.31 229.608C359.047 234.153 377.823 241.139 391.269 267.995C397.435 280.309 401.059 305.679 386.31 323.501" stroke="white" style="stroke:white;stroke-opacity:1;" stroke-width="35" stroke-linecap="round" stroke-linejoin="round"/>
</svg>
