<svg width="7005" height="3473" viewBox="0 0 7005 3473" fill="none" xmlns="http://www.w3.org/2000/svg">
<path fill-rule="evenodd" clip-rule="evenodd" d="M1833.66 665.661V757.297L2044.4 620.24V507.879L1833.66 665.661ZM1211.22 1989.29L984.685 2187.19V1605.83L1211.22 1402.32V1989.29ZM574.948 1176.99L350.44 1387.96L761.516 1431.17L811.568 1436.43L1045.33 1226.43L574.948 1176.99ZM223.984 1599.07L761.516 1655.57V2241.46L223.984 2184.96V1599.07ZM223.984 1189.53L447.161 979.811V433.368L223.984 619.284V1189.53ZM5250.82 2414.34L5024.28 2610.29V1879.21L5016.34 1878.37L4801.12 1855.75L4390.04 1812.54L4614.55 1601.57L5250.82 1668.45V2414.34ZM4486.76 861.49L4484.37 863.013L4263.58 1045.8V1614.11L4486.76 1404.39V1363.74V861.49ZM4263.58 2023.65L4666.04 2065.95L4263.58 2475.45V2023.65ZM3477.97 2418.35L3655.07 2243.68V1682.24L3477.97 1864.14V2418.35ZM3513.52 1481.87L3302.83 1698.27L2748.91 1640.05L2977.23 1425.51L3513.52 1481.87ZM2038.44 2062.71V1405.95L1834.05 1579.98V2260.98L2038.44 2062.71ZM6096.43 1573.57V1532.93V1029.85L5873.26 1214.08V1783.29L6096.43 1573.57ZM6224.22 1770.76L6680.7 1818.74L6445.81 2028.61L5999.71 1981.73L6224.22 1770.76ZM5873.26 2192.83L6096.43 2216.29V2474.4L5873.26 2687.42V2192.83ZM3246.75 1924.88L2674.9 1864.77V2439.77L3246.75 2499.88V1924.88Z" fill="url(#paint0_linear_1024_1180)" style=""/>
<path fill-rule="evenodd" clip-rule="evenodd" d="M1833.66 757.299V665.664L2044.4 507.882V620.243L1833.66 757.299ZM1833.66 1032.12V1035.16L1610.88 1011.75V542.027L1613.01 542.25L2044.4 219.271V216.94L2047.13 217.227L2048.45 216.237L2049.41 217.466L2267.17 240.354V752.342L2264.78 752.091L1833.83 1032.36L1833.66 1032.12ZM447.16 131.785L670.331 155.242V962.624L1211.22 1019.47L1434.39 1042.93L1434.39 1042.93V2102.26L1433.45 2102.16L984.684 2494.19V2494.63L895.604 2485.27V2485.56L68.9157 2398.67V2398.38L0.814294 2391.22V505.798L0.0761719 504.925L446.012 133.442L447.16 134.801V131.785ZM984.684 2187.19L1211.22 1989.3V1402.32L984.684 1605.83V2187.19ZM350.439 1387.97L574.947 1177L1045.33 1226.44L811.567 1436.43L761.515 1431.17L350.439 1387.97ZM761.515 1655.57L223.983 1599.07V2184.97L761.515 2241.46V1655.57ZM447.16 979.814L223.983 1189.53V619.287L447.16 433.371V979.814ZM4486.76 556.364L4709.93 579.821V1387.2L5250.82 1444.05L5473.99 1467.51V2525.96L5474.5 2526.55L5024.28 2915.99V2919.21L5020.97 2918.86L5020.84 2918.98L5020.71 2918.83L4801.11 2895.75V2273.17L4263.58 2820.11V2839.26L4040.41 2815.8V928.893L4042.08 929.068L4486.76 560.913V556.364ZM5024.28 2610.29L5250.82 2414.34V1668.45L4614.55 1601.58L4390.04 1812.55L4801.11 1855.75L5016.34 1878.37L5024.28 1879.21V2610.29ZM4486.76 861.033V1363.75V1404.39L4263.58 1614.11V1045.8L4486.76 861.033ZM4666.03 2065.95L4263.58 2023.65V2475.45L4666.03 2065.95ZM3878.24 1295.79L3655.07 1272.33V1272.36L2884.74 1191.39V1195.41L2884.61 1195.28L2445.25 1608.14L2443.67 1607.97V1609.63L2442.61 1610.63L2443.67 1611.77V2647.97L3168 2724.1L3010.33 2879.62L3010.33 2879.63L2848.11 3035.68L3169.33 3069.44V3068.73L3878.67 2356.49L3877.07 2355L3878.24 2355.12V1295.79ZM3655.07 2243.68L3477.97 2418.36V1864.14L3655.07 1682.24V2243.68ZM3302.83 1698.28L3513.52 1481.88L2977.23 1425.51L2748.91 1640.06L3302.83 1698.28ZM2041.7 1102.03L2261.6 1125.14V2162.13L2264.67 2165.33L1834.05 2583.08V2583.9L1610.88 2560.45V1464.44L1612.88 1464.65L2038.43 1102.31V1101.69L2039.08 1101.76L2040.46 1100.58L2041.7 1102.03ZM2038.43 1405.96V2062.71L1834.05 2260.99V1579.98L2038.43 1405.96ZM6096.43 725.548L6319.6 749.004V1556.39L7004.47 1628.37V1852.77L7003.69 1852.69L7004.49 1853.58L6552.09 2257.81V2264.19L6319.6 2239.75V2580.58L6319.81 2580.8L6319.6 2580.99V2581.2L6319.41 2581.18L5873.26 3007.02V3008.44L5650.09 2984.98V1098.08L5651.86 1098.26L5651.28 1097.56L6096.43 730.099V725.548ZM6096.43 1532.93V1573.58L5873.26 1783.3V1214.08L6096.43 1029.86V1532.93ZM6680.7 1818.74L6224.22 1770.76L5999.71 1981.73L6445.81 2028.62L6680.7 1818.74ZM6096.43 2216.29L5873.26 2192.84V2687.42L6096.43 2474.4V2216.29ZM2674.9 1864.78L3246.75 1924.88V2499.88L2674.9 2439.78V1864.78Z" fill="url(#paint1_linear_1024_1180)" style=""/>
<path fill-rule="evenodd" clip-rule="evenodd" d="M1826.69 769.827V665.876L2051.36 497.67V623.715L1826.69 769.827ZM1826.69 1022.5V1034.43L1610.88 1011.75V542.027L1613.01 542.25L2048.45 216.237L2051.36 219.884V217.671L2267.17 240.354V752.342L2264.78 752.091L1833.83 1032.36L1826.69 1022.5ZM447.16 131.785L670.331 155.242V962.624L1211.22 1019.47L1434.39 1042.93L1434.39 1042.93V2102.26L1433.45 2102.16L984.684 2494.19V2494.63L895.604 2485.27V2485.56L68.9157 2398.67V2398.38L0.814294 2391.22V505.798L0.0761719 504.925L446.012 133.442L447.16 134.801V131.785ZM984.684 2187.19L1211.22 1989.3V1407.86L984.684 1617.2V2187.19ZM350.439 1387.97L574.947 1177L1050.77 1227.01L822.853 1437.62L761.515 1431.17L350.439 1387.97ZM761.515 1655.57L223.983 1599.07V2184.97L761.515 2241.46V1655.57ZM447.16 979.814L223.983 1189.53V619.287L447.16 433.371V979.814ZM3877.07 2355L3878.24 2355.12V1295.79L3655.07 1272.33V1272.36L2884.74 1191.39V1195.41L2884.61 1195.28L2445.25 1608.14L2443.67 1607.97V1609.63L2442.61 1610.63L2443.67 1611.77V2647.97L3168 2724.1L3010.33 2879.62L2848.11 3035.68L3169.33 3069.44V3068.73L3878.67 2356.49L3877.07 2355ZM3288.73 1696.79L2748.91 1640.06L2977.23 1425.51L3507.92 1481.29L3288.73 1696.79ZM3477.97 2418.36V1849.39L3655.07 1675.27V2243.68L3477.97 2418.36ZM4486.76 556.364L4709.93 579.821V1387.2L5250.82 1444.05L5473.99 1467.51V2525.96L5474.5 2526.55L5024.28 2915.99V2919.21L5020.97 2918.86L5020.84 2918.98L5020.71 2918.83L4801.11 2895.75V2268.16L4263.58 2820.03V2839.26L4040.41 2815.8V928.893L4042.08 929.068L4486.76 560.913V556.364ZM5024.28 2610.29L5250.82 2414.34V1668.45L4614.55 1601.58L4390.04 1812.55L4801.11 1855.75L5016.34 1878.37L5024.28 1879.21V2610.29ZM4486.76 861.033V1363.75V1404.39L4263.58 1614.11V1045.8L4486.76 861.033ZM4661.35 2065.46L4263.58 2023.65V2473.84L4661.35 2065.46ZM2041.7 1102.03L2261.6 1125.14V2162.13L2264.67 2165.33L1834.05 2583.08V2583.9L1610.88 2560.45V1464.44L1612.88 1464.65L2038.43 1102.31V1101.69L2039.08 1101.76L2040.46 1100.58L2041.7 1102.03ZM2038.43 1405.96V2062.71L1834.05 2260.99V1579.98L2038.43 1405.96ZM6096.43 725.548L6319.6 749.004V1556.39L7004.47 1628.37V1852.77L7003.69 1852.69L7004.49 1853.58L6552.09 2257.81V2264.19L6319.6 2239.75V2580.58L6319.81 2580.8L6319.6 2580.99V2581.2L6319.41 2581.18L5873.26 3007.02V3008.44L5650.09 2984.98V1098.08L5651.86 1098.26L5651.28 1097.56L6096.43 730.099V725.548ZM6224.22 1770.76L5999.71 1981.73L6445.81 2028.62L6680.7 1818.74L6224.22 1770.76ZM5873.26 1783.3L6096.43 1573.58V1532.93V1029.86L5873.26 1214.08V1783.3ZM5873.26 2687.42V2192.84L6096.43 2216.29V2474.4L5873.26 2687.42ZM3246.75 1924.88L2674.9 1864.78V2439.78L3246.75 2499.88V1924.88Z" fill="url(#paint2_linear_1024_1180)" style=""/>
<defs>
<linearGradient id="paint0_linear_1024_1180" x1="6859.02" y1="1062.97" x2="990.126" y2="3899.16" gradientUnits="userSpaceOnUse">
<stop stop-color="#FA00FF" style="stop-color:#FA00FF;stop-color:color(display-p3 0.9800 0.0000 1.0000);stop-opacity:1;"/>
<stop offset="0.130208" stop-color="#001AFF" style="stop-color:#001AFF;stop-color:color(display-p3 0.0000 0.1000 1.0000);stop-opacity:1;"/>
<stop offset="0.255208" stop-color="#00F0FF" style="stop-color:#00F0FF;stop-color:color(display-p3 0.0000 0.9400 1.0000);stop-opacity:1;"/>
<stop offset="0.463542" stop-color="#00FF29" style="stop-color:#00FF29;stop-color:color(display-p3 0.0000 1.0000 0.1600);stop-opacity:1;"/>
<stop offset="0.692708" stop-color="#FFE600" style="stop-color:#FFE600;stop-color:color(display-p3 1.0000 0.9000 0.0000);stop-opacity:1;"/>
<stop offset="1" stop-color="#FF0000" style="stop-color:#FF0000;stop-color:color(display-p3 1.0000 0.0000 0.0000);stop-opacity:1;"/>
</linearGradient>
<linearGradient id="paint1_linear_1024_1180" x1="7004.49" y1="737.14" x2="185.864" y2="2969.98" gradientUnits="userSpaceOnUse">
<stop stop-color="#FA00FF" style="stop-color:#FA00FF;stop-color:color(display-p3 0.9800 0.0000 1.0000);stop-opacity:1;"/>
<stop offset="0.130208" stop-color="#001AFF" style="stop-color:#001AFF;stop-color:color(display-p3 0.0000 0.1000 1.0000);stop-opacity:1;"/>
<stop offset="0.255208" stop-color="#00F0FF" style="stop-color:#00F0FF;stop-color:color(display-p3 0.0000 0.9400 1.0000);stop-opacity:1;"/>
<stop offset="0.463542" stop-color="#00FF29" style="stop-color:#00FF29;stop-color:color(display-p3 0.0000 1.0000 0.1600);stop-opacity:1;"/>
<stop offset="0.692708" stop-color="#FFE600" style="stop-color:#FFE600;stop-color:color(display-p3 1.0000 0.9000 0.0000);stop-opacity:1;"/>
<stop offset="1" stop-color="#FF0000" style="stop-color:#FF0000;stop-color:color(display-p3 1.0000 0.0000 0.0000);stop-opacity:1;"/>
</linearGradient>
<linearGradient id="paint2_linear_1024_1180" x1="3502.28" y1="318.94" x2="3211.07" y2="3089.68" gradientUnits="userSpaceOnUse">
<stop stop-opacity="0.8" style="stop-color:black;stop-opacity:0.8;"/>
<stop offset="1" stop-opacity="0" style="stop-color:none;stop-opacity:0;"/>
</linearGradient>
</defs>
</svg>
