<svg width="6776" height="2724" viewBox="0 0 6776 2724" fill="none" xmlns="http://www.w3.org/2000/svg">
<path fill-rule="evenodd" clip-rule="evenodd" d="M5997.44 0.5C6052.95 0.5 6104.75 31.7429 6104.75 98.6411L6104.76 716.556C6104.76 808.318 6170.65 826.39 6205.03 826.033L6641.13 823.556C6741.84 826.729 6833.55 937.885 6730.65 1058.34L6390.98 1462.6C6338.43 1509.88 6285.01 1519.83 6199.48 1521.29C6158.92 1523.94 6104.75 1564.74 6104.75 1642.74V1803.36C6103.78 1887.9 6071.24 1939.73 6037.59 1976.56L5774.09 2258.63C5735.9 2300.57 5659.41 2310.64 5635.67 2310.78C5570.45 2311.17 5486.76 2278.84 5486.76 2132.3L5485.89 560.456C5485.89 450.131 5552.56 363.098 5578.55 338.303L5856.44 77C5883.84 49.6729 5931.44 0.5 5997.44 0.5Z" fill="url(#paint0_angular_1878_52)" style=""/>
<path fill-rule="evenodd" clip-rule="evenodd" d="M4440.38 3.7433C4490.86 6.92935 4559.55 51.3897 4559.55 117.044V659.743C4559.55 778.743 4601.88 825.213 4728.88 825.213H5006.38C5146.41 828.409 5287.78 933.743 5287.78 1111.07V1680.11C5287.78 1803.1 5262.39 1890.15 5205.35 1946.38L4858.48 2275.83C4769.67 2340.49 4650.26 2335.34 4646.26 2175.84V1844.76C4647.22 1815.18 4599.51 1757.27 4547.91 1820.66L4187.91 2229.22C4141.81 2280.09 4069.51 2311.47 4020.88 2297.24C3972.24 2283.01 3922.9 2256.24 3922.9 2139.24V505.197C3922.71 435.628 3954.88 394.794 3984.3 366.11L4301.88 59.7432C4327.09 36.4898 4383.98 0.183753 4440.38 3.7433Z" fill="url(#paint1_angular_1878_52)" style=""/>
<path fill-rule="evenodd" clip-rule="evenodd" d="M3642.25 1975.82C3671 1946.93 3726.05 1860.84 3732.06 1716.01V1161.33C3732.06 975.777 3616.39 826.5 3428.44 826.5H2946.18C2871.07 828.864 2772.83 864.598 2706.39 933.835L2474.89 1183.83C2406.44 1264.76 2373.89 1340.33 2373.89 1454.83V2014.83C2373.89 2164.74 2505.89 2315.27 2646.39 2315.27H2910.25C3025.89 2314.27 2963.39 2414.83 2921.82 2459.13L2921.88 2459.06L2921.87 2459.07L2921.82 2459.13C2881.4 2507.65 2827.81 2573.56 2791.39 2615.83C2742.71 2672.33 2774.61 2723.83 2835.89 2723.83H2925.39C2952.61 2724.08 3008.39 2697.83 3063.89 2638.33C3119.39 2578.83 3642.25 1975.82 3642.25 1975.82Z" fill="url(#paint2_angular_1878_52)" style=""/>
<path fill-rule="evenodd" clip-rule="evenodd" d="M1909.65 885.443L1683.72 1111.59C1608.14 1187.87 1566.38 1313.38 1561.89 1373.09L1562.79 2130.53C1562.79 2277.07 1638.6 2308.07 1703.1 2311.42C1767.6 2314.77 1791.93 2291.97 1848.89 2234.45L2111.1 1951.42C2152.36 1908.3 2178.47 1851.09 2180.68 1720.69V976.21C2172.58 915.465 2139.13 830.29 2051.12 826.5C1981.09 827.339 1935.03 861.881 1909.65 885.443Z" fill="url(#paint3_angular_1878_52)" style=""/>
<path d="M2046.63 4.32114C2127.57 13.7209 2141.61 74.4666 2140.86 127.196V373.77C2141.08 451.261 2092.98 516.899 2063.5 546.512L1832.58 764.22C1760.62 818.438 1684.07 829.522 1640.8 815.59C1597.53 800.659 1564.15 761.051 1562.89 668.922L1561.89 467.96C1561.89 384.631 1626.68 306.022 1663.27 274.441L1901.14 55.184C1925.21 35.5185 1972.23 -2.56135 2046.63 4.32114Z" fill="url(#paint4_angular_1878_52)" style=""/>
<path fill-rule="evenodd" clip-rule="evenodd" d="M637.619 143.001C637.619 45.7484 611.395 5.49219 528.895 5.49219H486.769C442.432 10.2238 397.125 37.1871 373.895 57.0005L132.395 283C61.8945 358.464 0.894531 449 0.894531 620V1957.15C0.894531 2300.65 230.189 2316.44 355.395 2317.93C355.395 2317.93 640.394 2317.93 767.894 2317.93C895.394 2317.93 995.638 2256.91 1080.39 2182L1251.39 2002C1364.11 1884.85 1364.11 1810.42 1364.11 1594.92V1148.74C1364.11 935.392 1195.39 824.117 1037.39 824.117H738.474L738.565 824.028C704.19 824.385 637.554 791.955 637.553 700.193L637.619 143.001Z" fill="url(#paint5_angular_1878_52)" style=""/>
<path fill-rule="evenodd" clip-rule="evenodd" d="M637.619 143.001C637.619 45.7484 611.395 5.49219 528.895 5.49219H486.769C442.432 10.2238 397.125 37.1871 373.895 57.0005L132.395 283C61.8945 358.464 0.894531 449 0.894531 620V1957.15C0.894531 2300.65 230.189 2316.44 355.395 2317.93C355.395 2317.93 640.394 2317.93 767.894 2317.93C895.394 2317.93 995.638 2256.91 1080.39 2182L1251.39 2002C1364.11 1884.85 1364.11 1810.42 1364.11 1594.92V1148.74C1364.11 935.392 1195.39 824.117 1037.39 824.117H738.474L738.565 824.028C704.19 824.385 637.554 791.955 637.553 700.193L637.619 143.001Z" fill="url(#paint6_angular_1878_52)" style=""/>
<defs>
<radialGradient id="paint0_angular_1878_52" cx="0" cy="0" r="1" gradientUnits="userSpaceOnUse" gradientTransform="translate(6009.44 1198) rotate(179.736) scale(1411.01 1430.82)">
<stop stop-opacity="0.1" style="stop-color:black;stop-opacity:0.1;"/>
<stop offset="1" style="stop-color:black;stop-opacity:1;"/>
</radialGradient>
<radialGradient id="paint1_angular_1878_52" cx="0" cy="0" r="1" gradientUnits="userSpaceOnUse" gradientTransform="translate(4640.38 1378.24) rotate(89.7858) scale(1058.54 1257.34)">
<stop style="stop-color:black;stop-opacity:1;"/>
<stop offset="1" stop-opacity="0.1" style="stop-color:black;stop-opacity:0.1;"/>
</radialGradient>
<radialGradient id="paint2_angular_1878_52" cx="0" cy="0" r="1" gradientUnits="userSpaceOnUse" gradientTransform="translate(3053.39 1654.33) rotate(130.984) scale(1135.93 1511.8)">
<stop stop-opacity="0.1" style="stop-color:black;stop-opacity:0.1;"/>
<stop offset="1" style="stop-color:black;stop-opacity:1;"/>
</radialGradient>
<radialGradient id="paint3_angular_1878_52" cx="0" cy="0" r="1" gradientUnits="userSpaceOnUse" gradientTransform="translate(1871.61 1645.27) rotate(-90) scale(1018.5 710.89)">
<stop stop-opacity="0.1" style="stop-color:black;stop-opacity:0.1;"/>
<stop offset="1" style="stop-color:black;stop-opacity:1;"/>
</radialGradient>
<radialGradient id="paint4_angular_1878_52" cx="0" cy="0" r="1" gradientUnits="userSpaceOnUse" gradientTransform="translate(1840.83 420.147) rotate(-41.745) scale(626.227 560.891)">
<stop style="stop-color:black;stop-opacity:1;"/>
<stop offset="1" stop-opacity="0.1" style="stop-color:black;stop-opacity:0.1;"/>
</radialGradient>
<radialGradient id="paint5_angular_1878_52" cx="0" cy="0" r="1" gradientUnits="userSpaceOnUse" gradientTransform="translate(643.403 1597.51) rotate(-90.2599) scale(1659.21 1799.64)">
<stop style="stop-color:black;stop-opacity:1;"/>
<stop offset="1" stop-opacity="0.05" style="stop-color:black;stop-opacity:0.05;"/>
</radialGradient>
<radialGradient id="paint6_angular_1878_52" cx="0" cy="0" r="1" gradientUnits="userSpaceOnUse" gradientTransform="translate(643.403 1597.51) rotate(-90.2599) scale(1659.21 1799.64)">
<stop style="stop-color:black;stop-opacity:1;"/>
<stop offset="1" stop-opacity="0.05" style="stop-color:black;stop-opacity:0.05;"/>
</radialGradient>
</defs>
</svg>
