<svg width="5063" height="2969" viewBox="0 0 5063 2969" fill="none" xmlns="http://www.w3.org/2000/svg">
<path d="M746.238 757.108C779.572 757.108 817.92 761.093 861.284 769.062C905.865 775.704 933.489 779.024 944.156 779.024C990.822 779.024 1017.69 758.436 1024.75 717.26L1068.4 713.275L1157.37 1181.49L1114.41 1193.44C1066.85 1076.55 1007.62 986.233 936.706 922.476C865.795 858.72 789.673 826.842 708.339 826.842C597.673 826.842 516.321 879.972 464.284 986.233C413.581 1092.49 396.654 1241.92 413.504 1434.52C434.654 1676.26 483.156 1864.88 559.009 2000.36C634.746 2134.51 729.948 2201.59 844.614 2201.59C931.281 2201.59 997.507 2173.7 1043.29 2117.91C1090.3 2060.79 1109.73 1985.75 1101.6 1892.77L1091.31 1775.22C1084.22 1694.2 1071.26 1645.05 1052.41 1627.78C1034.79 1609.19 985.682 1596.57 905.101 1589.93L901.789 1552.07H1347.79L1351.1 1589.93C1307.45 1593.91 1282.38 1604.54 1275.89 1621.8C1270.62 1637.74 1271.76 1688.88 1279.31 1775.22L1320.97 2251.4H1280.97C1249.83 2184.99 1204.26 2151.78 1144.26 2151.78C1122.92 2151.78 1102.17 2158.42 1082 2171.7C1063.05 2183.66 1045.6 2197.61 1029.66 2213.54C1013.61 2228.16 984.767 2241.44 943.146 2253.39C902.975 2266.68 854.223 2273.32 796.889 2273.32C631.556 2273.32 498.269 2212.88 397.027 2092.01C295.669 1969.81 235.229 1797.14 215.706 1573.99C194.324 1329.59 232.4 1132.34 329.936 982.248C427.471 832.155 566.238 757.108 746.238 757.108ZM1869.76 1155.59C2009.76 1155.59 2121.88 1202.74 2206.13 1297.05C2291.6 1390.02 2341.6 1519.53 2356.12 1685.56C2371.58 1862.22 2341.35 2004.34 2265.43 2111.93C2189.39 2218.19 2081.37 2271.32 1941.37 2271.32C1798.7 2271.32 1685.3 2224.83 1601.17 2131.86C1518.37 2038.88 1469.7 1909.37 1455.18 1743.34C1439.61 1565.35 1469.17 1423.23 1543.88 1316.97C1619.8 1209.38 1728.42 1155.59 1869.76 1155.59ZM1970.84 2219.52C2038.84 2219.52 2090.37 2183.66 2125.43 2111.93C2161.7 2038.88 2173.45 1929.3 2160.67 1783.19C2151.6 1679.58 2134.07 1585.94 2108.09 1502.26C2083.43 1418.58 2047.33 1348.85 1999.78 1293.06C1952.12 1235.95 1896.96 1207.39 1834.29 1207.39C1690.29 1207.39 1630.9 1351.5 1656.11 1639.74C1670.64 1805.77 1704.73 1943.91 1758.37 2054.15C1812.02 2164.4 1882.84 2219.52 1970.84 2219.52ZM3134.41 1155.59C3274.41 1155.59 3386.53 1202.74 3470.78 1297.05C3556.25 1390.02 3606.25 1519.53 3620.77 1685.56C3636.23 1862.22 3606 2004.34 3530.07 2111.93C3454.04 2218.19 3346.02 2271.32 3206.02 2271.32C3063.35 2271.32 2949.95 2224.83 2865.82 2131.86C2783.02 2038.88 2734.35 1909.37 2719.83 1743.34C2704.26 1565.35 2733.82 1423.23 2808.52 1316.97C2884.45 1209.38 2993.07 1155.59 3134.41 1155.59ZM3235.49 2219.52C3303.49 2219.52 3355.02 2183.66 3390.07 2111.93C3426.35 2038.88 3438.1 1929.3 3425.31 1783.19C3416.25 1679.58 3398.72 1585.94 3372.74 1502.26C3348.08 1418.58 3311.98 1348.85 3264.43 1293.06C3216.77 1235.95 3161.6 1207.39 3098.94 1207.39C2954.94 1207.39 2895.55 1351.5 2920.76 1639.74C2935.29 1805.77 2969.37 1943.91 3023.02 2054.15C3076.67 2164.4 3147.49 2219.52 3235.49 2219.52ZM4303.42 2213.54L4306.73 2251.4H3764.73L3761.42 2213.54C3793.19 2210.89 3815.68 2208.9 3828.89 2207.57C3843.45 2206.24 3858.43 2202.25 3873.85 2195.61C3889.27 2188.97 3898.69 2182.33 3902.11 2175.69C3906.86 2169.05 3911.03 2155.77 3914.62 2135.84C3918.21 2115.92 3919.19 2096.66 3917.56 2078.06C3915.82 2058.14 3913.21 2028.25 3909.72 1988.4L3845.75 1257.2L3716.01 1237.27L3712.34 1195.43L3838.43 1173.52L3831.8 1097.81C3820.65 970.294 3850.51 862.04 3921.39 773.047C3992.27 684.054 4076.38 639.557 4173.71 639.557C4220.38 639.557 4260.64 650.183 4294.5 671.435C4328.36 692.687 4346.8 720.581 4349.82 755.116C4351.91 779.024 4345.11 800.276 4329.4 818.872C4315.03 837.468 4291.17 846.765 4257.84 846.765C4229.84 846.765 4208.53 839.46 4193.92 824.849C4179.31 810.238 4170.64 794.963 4167.91 779.024C4165.07 761.757 4158.34 745.818 4147.73 731.207C4138.45 716.596 4124.48 709.291 4105.81 709.291C4023.15 709.291 3992.33 829.498 4013.36 1069.91L4022.08 1169.53L4242.34 1195.43L4246.01 1237.27L4030.1 1261.18L4093.72 1988.4C4102.78 2092.01 4116.86 2153.77 4135.93 2173.7C4155.01 2193.62 4210.84 2206.9 4303.42 2213.54ZM4883.5 2213.54L4886.81 2251.4H4344.81L4341.5 2213.54C4373.26 2210.89 4395.76 2208.9 4408.97 2207.57C4423.52 2206.24 4438.51 2202.25 4453.93 2195.61C4469.35 2188.97 4478.77 2182.33 4482.18 2175.69C4486.94 2169.05 4491.11 2155.77 4494.7 2135.84C4498.29 2115.92 4499.27 2096.66 4497.64 2078.06C4495.9 2058.14 4493.29 2028.25 4489.8 1988.4L4425.83 1257.2L4296.08 1237.27L4292.42 1195.43L4418.51 1173.52L4411.88 1097.81C4400.73 970.294 4430.59 862.04 4501.47 773.047C4572.35 684.054 4656.46 639.557 4753.79 639.557C4800.46 639.557 4840.72 650.183 4874.58 671.435C4908.44 692.687 4926.88 720.581 4929.9 755.116C4931.99 779.024 4925.18 800.276 4909.48 818.872C4895.1 837.468 4871.25 846.765 4837.92 846.765C4809.92 846.765 4788.61 839.46 4774 824.849C4759.39 810.238 4750.72 794.963 4747.99 779.024C4745.15 761.757 4738.42 745.818 4727.81 731.207C4718.53 716.596 4704.56 709.291 4685.89 709.291C4603.22 709.291 4572.41 829.498 4593.44 1069.91L4602.16 1169.53L4822.42 1195.43L4826.08 1237.27L4610.18 1261.18L4673.8 1988.4C4682.86 2092.01 4696.93 2153.77 4716.01 2173.7C4735.09 2193.62 4790.91 2206.9 4883.5 2213.54Z" fill="black" style="fill:black;fill-opacity:1;"/>
<circle cx="77" cy="77" r="77" transform="matrix(1 0 0.0871557 0.996195 3257.68 1653.68)" fill="black" style="fill:black;fill-opacity:1;"/>
<circle cx="77" cy="77" r="77" transform="matrix(1 0 0.0871557 0.996195 3257.68 1653.68)" fill="black" style="fill:black;fill-opacity:1;"/>
<circle cx="77" cy="77" r="77" transform="matrix(1 0 0.0871557 0.996195 3257.68 1653.68)" fill="black" style="fill:black;fill-opacity:1;"/>
<circle cx="77" cy="77" r="77" transform="matrix(1 0 0.0871557 0.996195 1991.68 1653.68)" fill="black" style="fill:black;fill-opacity:1;"/>
<circle cx="77" cy="77" r="77" transform="matrix(1 0 0.0871557 0.996195 1991.68 1653.68)" fill="black" style="fill:black;fill-opacity:1;"/>
<circle cx="77" cy="77" r="77" transform="matrix(1 0 0.0871557 0.996195 1991.68 1653.68)" fill="black" style="fill:black;fill-opacity:1;"/>
</svg>
