<svg width="1971" height="1971" viewBox="0 0 1971 1971" fill="none" xmlns="http://www.w3.org/2000/svg">
<rect width="1970.16" height="1970.16" rx="555" fill="#4108BE" style="fill:#4108BE;fill:color(display-p3 0.2549 0.0314 0.7451);fill-opacity:1;"/>
<path fill-rule="evenodd" clip-rule="evenodd" d="M962.281 469.574C962.281 420.368 949.008 400 907.25 400H885.928C863.486 402.394 840.554 416.036 828.796 426.061L706.559 540.408C670.875 578.59 640 624.397 640 710.917V1387.46C640 1561.26 756.059 1569.24 819.432 1570C819.432 1570 963.686 1570 1028.22 1570C1092.76 1570 1143.49 1539.13 1186.39 1501.23L1272.95 1410.15C1330 1350.88 1330 1313.22 1330 1204.19V978.44C1330 870.492 1244.6 814.191 1164.63 814.191H1013.33L1013.38 814.146C995.977 814.327 962.249 797.919 962.248 751.491L962.281 469.574ZM1201.96 1326.01L1156.53 1376.76C1141.09 1393.2 1122.87 1382.33 1122.87 1382.33C1122.87 1382.33 1111.53 1373.72 1111.53 1353.74V1164.99C1111.53 1142.31 1126.45 1118.32 1134.33 1109.15L1175.01 1067.62C1187.22 1055.28 1196.26 1047.44 1206.64 1049.47C1217.02 1051.49 1222.08 1057.34 1222.08 1071.16V1273.63C1222.36 1295.06 1210.03 1317.79 1201.96 1326.01ZM855.845 799.435C855.947 816.697 846.844 833.827 839.996 843.715L789.066 899.101C778.845 909.949 765.632 914.939 757.071 914.672C748.51 914.404 747.415 898.181 747.415 885.917L747.55 688.302C747.623 662.575 764.527 641.692 771.857 633.856L810.259 596.663L810.234 596.748C822.022 584.837 836.214 574.195 843.472 578.084C847.141 580.05 855.659 583.493 855.845 602.009V799.435ZM1137.3 935.816C1134.8 931.262 1130.97 924.907 1109.21 924.907H913.053C897.022 926.819 883.979 934.902 876.549 941.286L819.432 1005.19C810.141 1015.56 806.019 1026.44 810.321 1034.54C814.624 1042.63 823.632 1047.59 835.123 1047.59H1013.02C1034.52 1047.69 1055.6 1036.79 1063.08 1029.01L1135.89 957.826C1142.18 950.185 1139.79 940.369 1137.3 935.816Z" fill="white" style="fill:white;fill-opacity:1;"/>
<path fill-rule="evenodd" clip-rule="evenodd" d="M962.281 469.574C962.281 420.368 949.008 400 907.25 400H885.928C863.486 402.394 840.554 416.036 828.796 426.061L706.559 540.408C670.875 578.59 640 624.397 640 710.917V1387.46C640 1561.26 756.059 1569.24 819.432 1570C819.432 1570 963.686 1570 1028.22 1570C1092.76 1570 1143.49 1539.13 1186.39 1501.23L1272.95 1410.15C1330 1350.88 1330 1313.22 1330 1204.19V978.44C1330 870.492 1244.6 814.191 1164.63 814.191H1013.33L1013.38 814.146C995.977 814.327 962.249 797.919 962.248 751.491L962.281 469.574ZM1201.96 1326.01L1156.53 1376.76C1141.09 1393.2 1122.87 1382.33 1122.87 1382.33C1122.87 1382.33 1111.53 1373.72 1111.53 1353.74V1164.99C1111.53 1142.31 1126.45 1118.32 1134.33 1109.15L1175.01 1067.62C1187.22 1055.28 1196.26 1047.44 1206.64 1049.47C1217.02 1051.49 1222.08 1057.34 1222.08 1071.16V1273.63C1222.36 1295.06 1210.03 1317.79 1201.96 1326.01ZM855.845 799.435C855.947 816.697 846.844 833.827 839.996 843.715L789.066 899.101C778.845 909.949 765.632 914.939 757.071 914.672C748.51 914.404 747.415 898.181 747.415 885.917L747.55 688.302C747.623 662.575 764.527 641.692 771.857 633.856L810.259 596.663L810.234 596.748C822.022 584.837 836.214 574.195 843.472 578.084C847.141 580.05 855.659 583.493 855.845 602.009V799.435ZM1137.3 935.816C1134.8 931.262 1130.97 924.907 1109.21 924.907H913.053C897.022 926.819 883.979 934.902 876.549 941.286L819.432 1005.19C810.141 1015.56 806.019 1026.44 810.321 1034.54C814.624 1042.63 823.632 1047.59 835.123 1047.59H1013.02C1034.52 1047.69 1055.6 1036.79 1063.08 1029.01L1135.89 957.826C1142.18 950.185 1139.79 940.369 1137.3 935.816Z" fill="white" style="fill:white;fill-opacity:1;"/>
</svg>
