<svg width="30" height="30" viewBox="0 0 120 102" fill="none" xmlns="http://www.w3.org/2000/svg">
<path fill-rule="evenodd" clip-rule="evenodd" d="M78.8089 1.12166C102.48 2.25367 120 22.4101 120 46.1084C120 56.7993 116.455 66.6782 110.469 74.6165C110.467 74.6197 110.465 74.6231 110.462 74.6265C104.712 82.2348 104.848 84.3279 106.342 90.4847C106.647 91.7439 107.044 93.5175 107.332 94.8558C108.019 97.0421 107.127 99.4889 105.06 100.682C102.668 102.063 99.6102 101.244 98.2295 98.8523L97.4564 97.5133C96.1567 95.4776 93.8006 93.8664 90.3163 93.2893C88.624 93.009 86.5216 93.0725 83.4579 93.1651C81.8486 93.2137 79.9742 93.2703 77.7547 93.2893C77.6517 93.2902 77.5863 93.2662 77.5554 93.2194C76.2062 93.3574 74.8399 93.4389 73.459 93.4613C66.6926 93.5709 61.4873 93.6465 60 93.6465C58.5127 93.6465 53.3074 93.5709 46.541 93.4613C20.7054 93.0427 0 71.9474 0 46.1084C0 22.4101 17.5199 2.25367 41.1911 1.12166C47.2697 0.830973 53.6348 0.646484 60 0.646484C66.3652 0.646484 72.7303 0.830973 78.8089 1.12166ZM71.8047 36.6445C66.8341 36.6445 62.8047 40.674 62.8047 45.6445C62.8047 50.6151 66.8341 54.6445 71.8047 54.6445C71.9525 54.6445 72.0995 54.641 72.2455 54.6339C71.8216 56.6088 71.0705 57.8641 68.2047 58.9938C65.9105 59.5865 66.0675 61.197 66.3999 62.1259C66.911 63.235 68.5457 63.3557 69.161 63.3557C74.873 63.3557 79.1829 55.3643 80.4926 48.0026C80.6961 47.251 80.8047 46.4605 80.8047 45.6445C80.8047 40.674 76.7752 36.6445 71.8047 36.6445ZM39.1953 45.6445C39.1953 40.674 43.2247 36.6445 48.1953 36.6445C53.1659 36.6445 57.1953 40.674 57.1953 45.6445C57.1953 46.3732 57.1087 47.0816 56.9453 47.7601C56.9511 47.7573 56.9539 47.7571 56.9535 47.7596C55.6493 55.1285 51.2705 63.3201 45.5517 63.3201C44.9363 63.3201 43.3016 63.1994 42.7905 62.0903C42.4581 61.1614 42.3011 59.5509 44.5953 58.9582C47.4437 57.8354 48.203 56.5885 48.6284 54.6343C48.4849 54.6411 48.3405 54.6445 48.1953 54.6445C43.2247 54.6445 39.1953 50.6151 39.1953 45.6445Z" fill="white" style="fill:white;fill-opacity:1;"/>
</svg>
