<svg width="7042" height="2757" viewBox="0 0 7042 2757" fill="none" xmlns="http://www.w3.org/2000/svg">
<path fill-rule="evenodd" clip-rule="evenodd" d="M1836.4 573.953V470.002L2062.27 282.124V408.17L1836.4 573.953ZM1836.4 826.628V838.554L1619.43 834.767V365.049L1621.57 365.086L2059.35 0.946054L2062.27 4.33838V2.126L2279.24 5.91317V517.901L2276.84 517.86L1843.57 835.863L1836.4 826.628ZM449.478 56.6972L673.844 60.6136V867.996L1217.63 877.488L1441.99 881.404L1441.99 881.404V1940.74L1441.05 1940.72L989.88 2372.04V2372.48L900.324 2370.91V2371.2L69.2082 2356.7V2356.41L0.742074 2355.21V469.79L0 468.982L448.323 58.4544L449.478 59.7127V56.6972ZM989.88 2065.04L1217.63 1847.31V1265.88L989.88 1495.04V2065.04ZM352.239 1321.35L577.949 1090.72L1056.32 1099.07L827.183 1329.64L765.516 1328.56L352.239 1321.35ZM765.516 1552.96L225.106 1543.53V2129.42L765.516 2138.85V1552.96ZM449.478 904.726L225.106 1133.98V563.739L449.478 358.283V904.726ZM3897.75 1979.6L3898.93 1979.62V920.29L3674.57 916.374V916.398L2900.11 902.879V906.9L2899.98 906.776L2458.27 1358.11L2456.68 1358.08V1359.73L2455.61 1360.83L2456.68 1361.87V2398.08L3184.89 2410.79L3026.37 2580.12L2863.28 2750.38L3186.23 2756.01V2755.3L3899.37 1980.96L3897.75 1979.6ZM3306.27 1372.91L2763.56 1363.44L2993.09 1128.9L3526.63 1138.21L3306.27 1372.91ZM3496.52 2077.9V1508.94L3674.57 1319.31V1887.72L3496.52 2077.9ZM4510.71 127.586L4735.08 131.503V938.885L5278.86 948.377L5503.23 952.294V2010.74L5503.74 2011.29L5051.11 2440.15V2443.37L5047.78 2443.31L5047.65 2443.44L5047.52 2443.3L4826.75 2439.45V1811.85L4286.34 2410.79V2430.02L4061.97 2426.1V539.195L4063.64 539.224L4510.71 132.135V127.586ZM5051.11 2134.45L5278.86 1918.66V1172.78L4639.18 1161.61L4413.47 1392.24L4826.75 1399.45L5043.13 1403.23L5051.11 1403.37V2134.45ZM4510.71 432.255V934.969V975.615L4286.34 1204.87V636.563L4510.71 432.255ZM4686.23 1621.4L4286.34 1614.42V2064.6L4686.23 1621.4ZM2052.56 887.331L2273.64 891.19V1928.18L2276.72 1931.11L1843.8 2386.56V2387.38L1619.43 2383.47V1287.46L1621.44 1287.49L2049.27 887.894V887.274L2049.93 887.285L2051.31 885.993L2052.56 887.331ZM2049.27 1191.54V1848.3L1843.8 2064.47V1383.46L2049.27 1191.54ZM6129 155.834L6353.37 159.75V967.133L7041.9 979.151V1203.55L7041.12 1203.54L7041.92 1204.36L6587.1 1648.2V1654.58L6353.37 1650.5V1991.33L6353.57 1991.53L6353.37 1991.74V1991.94L6353.18 1991.94L5904.63 2456.85V2458.26L5680.27 2454.35V567.442L5682.05 567.474L5681.46 566.824L6129 160.385V155.834ZM6257.47 1189.86L6031.76 1420.48L6480.25 1428.31L6716.4 1197.87L6257.47 1189.86ZM5904.63 1233.12L6129 1003.86V963.217V460.143L5904.63 663.909V1233.12ZM5904.63 2137.25V1642.66L6129 1646.58V1904.69L5904.63 2137.25ZM3264.06 1604.67L2689.14 1594.64V2169.64L3264.06 2179.67V1604.67Z" fill="#FF7700" style="fill:#FF7700;fill:color(display-p3 1.0000 0.4667 0.0000);fill-opacity:1;"/>
</svg>
